<svg width="60" height="60" viewBox="0 0 60 60" fill="none" xmlns="http://www.w3.org/2000/svg">
<g clip-path="url(#clip0_4788_15384)">
<path opacity="0.87" d="M16.9 37V28.9C16.9 25.9 17.4 23.1333 18.4 20.6C19.4667 18 21.2667 15.4 23.8 12.8L28.3 16.3C26.7 17.9 25.5 19.4 24.7 20.8C23.9667 22.2 23.5 23.6333 23.3 25.1H28.8V37H16.9ZM34.8 37V28.9C34.8 25.9 35.3 23.1333 36.3 20.6C37.3667 18 39.1667 15.4 41.7 12.8L46.2 16.3C44.6 17.9 43.4 19.4 42.6 20.8C41.8667 22.2 41.4 23.6333 41.2 25.1H46.7V37H34.8Z" fill="#E2D1FF"/>
</g>
<defs>
<clipPath id="clip0_4788_15384">
<rect width="60" height="60" fill="white"/>
</clipPath>
</defs>
</svg>
