<svg width="970" height="905" viewBox="0 0 970 905" fill="none" xmlns="http://www.w3.org/2000/svg">
<g opacity="0.2">
<path d="M553.311 298.096C553.404 228.291 530.649 160.685 489.048 107.168C401.981 171.049 343.44 246.707 343.44 246.707C270.691 336.309 248.876 444.217 244.115 523.873C242.719 547.718 244.946 571.649 250.707 594.722C259.261 595.578 267.899 596.136 276.661 596.136C429.456 596.158 553.311 462.709 553.311 298.096Z" fill="#3D84ED"/>
<path d="M276.664 596.124C429.461 596.124 553.328 462.677 553.328 298.062C553.328 133.447 429.461 0 276.664 0C123.867 0 -0.000244141 133.447 -0.000244141 298.062C-0.000244141 462.677 123.867 596.124 276.664 596.124Z" fill="#98EBEE"/>
<path d="M343.583 246.938C343.583 246.938 447.966 111.985 585.345 50.2181C748.193 -22.9983 936.969 86.1005 966.344 273.552C979.182 355.442 961.506 452.22 860.06 539.64C843.102 554.397 826.997 570.256 811.835 587.129L530.596 897.377C526.598 901.791 521.145 904.325 515.421 904.43C509.698 904.534 504.168 902.201 500.033 897.936L308.293 700.166C264.069 654.531 240.181 590.345 244.12 524.476C248.888 444.723 270.696 336.659 343.583 246.938Z" fill="#C19DFF"/>
<path d="M553.223 298.464C553.316 228.658 530.561 161.053 488.96 107.535C401.894 171.416 343.352 247.074 343.352 247.074C270.603 336.676 248.788 444.584 244.027 524.24C242.631 548.085 244.858 572.016 250.619 595.089C259.174 595.945 267.811 596.503 276.573 596.503C429.368 596.526 553.223 463.076 553.223 298.464Z" fill="#3D84ED"/>
</g>
</svg>
