<svg width="960" height="1180" viewBox="0 0 960 1180" fill="none" xmlns="http://www.w3.org/2000/svg">
<g opacity="0.15">
<path d="M721.975 388.921C722.096 297.847 692.408 209.643 638.132 139.819C524.537 223.164 448.158 321.874 448.158 321.874C353.244 438.776 324.782 579.562 318.571 683.488C316.749 714.599 319.655 745.822 327.171 775.924C338.332 777.041 349.602 777.769 361.033 777.769C560.383 777.798 721.975 603.689 721.975 388.921Z" fill="#3D84ED"/>
<path d="M361.034 777.755C560.387 777.755 721.994 603.648 721.994 388.877C721.994 174.106 560.387 0 361.034 0C161.682 0 0.0742188 174.106 0.0742188 388.877C0.0742188 603.648 161.682 777.755 361.034 777.755Z" fill="#98EBEE"/>
<path d="M448.347 322.177C448.347 322.177 584.535 146.105 763.771 65.5183C976.237 -30.0061 1222.53 112.334 1260.85 356.9C1277.61 463.739 1254.54 590.005 1122.19 704.061C1100.06 723.313 1079.05 744.004 1059.27 766.018L692.341 1170.8C687.125 1176.55 680.01 1179.86 672.543 1180C665.076 1180.13 657.86 1177.09 652.466 1171.52L402.306 913.496C344.607 853.957 313.441 770.214 318.579 684.276C324.8 580.224 353.253 439.234 448.347 322.177Z" fill="#C19DFF"/>
<path d="M721.858 389.402C721.979 298.327 692.291 210.123 638.014 140.3C524.42 223.645 448.041 322.355 448.041 322.355C353.127 439.257 324.665 580.043 318.453 683.969C316.632 715.079 319.537 746.302 327.054 776.404C338.215 777.521 349.485 778.25 360.916 778.25C560.265 778.279 721.858 604.169 721.858 389.402Z" fill="#3D84ED"/>
</g>
</svg>
