<svg width="670" height="435" viewBox="0 0 670 435" fill="none" xmlns="http://www.w3.org/2000/svg">
<path d="M216.43 106.98C177.739 110.103 140.43 116.751 107.34 127.179C68.3392 139.47 28.4907 158.618 40.2602 183.663C61.9891 229.9 166.227 230.742 145.414 261.831C121.84 297.045 137.65 338.352 243.433 349.839C444.355 371.657 687.239 243.998 619.021 173.85C576.552 130.179 421.871 90.3996 216.43 106.98Z" fill="#CFB3FF"/>
<path opacity="0.9" d="M216.43 106.98C177.739 110.103 140.43 116.751 107.34 127.179C68.3392 139.47 28.4907 158.618 40.2602 183.663C61.9891 229.9 166.227 230.742 145.414 261.831C121.84 297.045 137.65 338.352 243.433 349.839C444.355 371.657 687.239 243.998 619.021 173.85C576.552 130.179 421.871 90.3996 216.43 106.98Z" fill="white"/>
<path d="M670 427.706C670 431.421 520.015 434.432 335 434.432C149.984 434.432 0 431.421 0 427.706C0 423.99 149.985 420.979 335 420.979C520.015 420.979 670 423.99 670 427.706Z" fill="#F5F5F5"/>
<path d="M501.99 19.6465H164.053C154.632 19.6465 146.994 27.2616 146.994 36.6553V264.777C146.994 274.17 154.632 281.785 164.053 281.785H501.99C511.412 281.785 519.049 274.17 519.049 264.777V36.6553C519.049 27.2616 511.412 19.6465 501.99 19.6465Z" fill="#CFB3FF"/>
<path opacity="0.8" d="M501.99 19.7163H164.054C154.632 19.7163 146.994 27.3315 146.994 36.7252V264.846C146.994 274.24 154.632 281.855 164.054 281.855H501.99C511.412 281.855 519.049 274.24 519.049 264.846V36.7252C519.049 27.3315 511.412 19.7163 501.99 19.7163Z" fill="white"/>
<path d="M164.266 19.6465H502.084C511.447 19.6465 519.049 27.226 519.049 36.5618V52.6244H146.994V36.8669C146.994 27.3627 154.733 19.6465 164.266 19.6465Z" fill="#CFB3FF"/>
<path d="M171.255 42.0868C174.136 42.0868 176.472 39.7582 176.472 36.8857C176.472 34.0132 174.136 31.6846 171.255 31.6846C168.374 31.6846 166.039 34.0132 166.039 36.8857C166.039 39.7582 168.374 42.0868 171.255 42.0868Z" fill="white"/>
<path d="M183.845 42.0868C186.726 42.0868 189.061 39.7582 189.061 36.8857C189.061 34.0132 186.726 31.6846 183.845 31.6846C180.964 31.6846 178.628 34.0132 178.628 36.8857C178.628 39.7582 180.964 42.0868 183.845 42.0868Z" fill="white"/>
<path d="M202.032 36.8857C202.032 39.7582 199.696 42.0868 196.815 42.0868C193.934 42.0868 191.599 39.7582 191.599 36.8857C191.599 34.0131 193.934 31.6846 196.815 31.6846C199.697 31.6846 202.032 34.0131 202.032 36.8857Z" fill="white"/>
<path d="M297.235 68.6099H179.911C177.832 68.6099 176.146 70.2903 176.146 72.3633V173.407C176.146 175.479 177.832 177.16 179.911 177.16H297.235C299.314 177.16 301 175.479 301 173.407V72.3633C301 70.2903 299.314 68.6099 297.235 68.6099Z" fill="#CFB3FF"/>
<path opacity="0.2" d="M176.145 159.695L208.468 128.04C211.48 125.09 216.054 124.41 219.799 126.356L245.452 139.685L268.271 114.993C272.275 110.66 278.997 110.254 283.496 114.074L300.998 128.931V170.296C300.468 174.132 296.145 177.159 293.543 177.159H184.127C173.793 177.159 175.664 162.456 176.145 159.695Z" fill="black"/>
<path opacity="0.2" d="M259.599 99.4168C259.599 106.846 253.697 112.869 246.418 112.869C239.139 112.869 233.237 106.846 233.237 99.4168C233.237 91.9867 239.138 85.9639 246.418 85.9639C253.697 85.9639 259.599 91.9867 259.599 99.4168Z" fill="black"/>
<path d="M300.995 191.645H180.437V201.131H300.995V191.645Z" stroke="#CFB3FF" stroke-width="0.5" stroke-miterlimit="10"/>
<path d="M300.995 209.391H180.437V218.877H300.995V209.391Z" stroke="#CFB3FF" stroke-width="0.5" stroke-miterlimit="10"/>
<path d="M300.995 226.801H180.437V236.287H300.995V226.801Z" stroke="#CFB3FF" stroke-width="0.5" stroke-miterlimit="10"/>
<path d="M300.995 244.547H180.437V254.033H300.995V244.547Z" stroke="#CFB3FF" stroke-width="0.5" stroke-miterlimit="10"/>
<path d="M407.292 73.8921H353.932C351.852 73.8921 350.167 75.5726 350.167 77.6455V123.077C350.167 125.15 351.852 126.831 353.932 126.831H407.292C409.371 126.831 411.056 125.15 411.056 123.077V77.6455C411.056 75.5726 409.371 73.8921 407.292 73.8921Z" stroke="#CFB3FF" stroke-width="0.5" stroke-miterlimit="10"/>
<path d="M350.165 118.314L365.929 102.876C367.398 101.438 369.629 101.106 371.455 102.055L383.965 108.555L395.094 96.5134C397.047 94.4004 400.325 94.2025 402.519 96.0652L411.055 103.311V123.484C410.796 125.355 408.688 126.831 407.419 126.831H354.058C349.018 126.831 349.931 119.661 350.165 118.314Z" stroke="#CFB3FF" stroke-width="0.5" stroke-miterlimit="10"/>
<path d="M387.942 88.9174C387.942 92.5407 385.064 95.4779 381.514 95.4779C377.964 95.4779 375.086 92.5407 375.086 88.9174C375.086 85.2937 377.964 82.3564 381.514 82.3564C385.064 82.3564 387.942 85.2937 387.942 88.9174Z" stroke="#CFB3FF" stroke-width="0.5" stroke-miterlimit="10"/>
<path d="M386.443 134.196H352.517V141.497H386.443V134.196Z" stroke="#CFB3FF" stroke-width="0.5" stroke-miterlimit="10"/>
<path d="M413.22 152.411H352.517V159.712H413.22V152.411Z" stroke="#CFB3FF" stroke-width="0.5" stroke-miterlimit="10"/>
<path d="M413.22 166.023H352.517V173.324H413.22V166.023Z" stroke="#CFB3FF" stroke-width="0.5" stroke-miterlimit="10"/>
<path d="M387.906 180.299H352.517V187.6H387.906V180.299Z" stroke="#CFB3FF" stroke-width="0.5" stroke-miterlimit="10"/>
<path d="M487.595 73.8906H434.234C432.155 73.8906 430.47 75.5711 430.47 77.6441V123.076C430.47 125.149 432.155 126.829 434.234 126.829H487.595C489.674 126.829 491.359 125.149 491.359 123.076V77.6441C491.359 75.5711 489.674 73.8906 487.595 73.8906Z" stroke="#CFB3FF" stroke-width="0.5" stroke-miterlimit="10"/>
<path d="M430.468 118.313L446.232 102.875C447.7 101.437 449.932 101.105 451.758 102.054L464.268 108.554L475.397 96.5124C477.35 94.3994 480.628 94.2015 482.822 96.0642L491.358 103.31V123.483C491.099 125.354 488.991 126.83 487.722 126.83H434.361C429.321 126.83 430.234 119.66 430.468 118.313Z" stroke="#CFB3FF" stroke-width="0.5" stroke-miterlimit="10"/>
<path d="M468.245 88.9159C468.245 92.5392 465.367 95.4764 461.817 95.4764C458.267 95.4764 455.389 92.5392 455.389 88.9159C455.389 85.2923 458.267 82.355 461.817 82.355C465.367 82.355 468.245 85.2923 468.245 88.9159Z" stroke="#CFB3FF" stroke-width="0.5" stroke-miterlimit="10"/>
<path d="M466.748 134.195H432.822V141.495H466.748V134.195Z" stroke="#CFB3FF" stroke-width="0.5" stroke-miterlimit="10"/>
<path d="M493.525 152.411H432.822V159.712H493.525V152.411Z" stroke="#CFB3FF" stroke-width="0.5" stroke-miterlimit="10"/>
<path d="M493.525 166.022H432.822V173.322H493.525V166.022Z" stroke="#CFB3FF" stroke-width="0.5" stroke-miterlimit="10"/>
<path d="M468.21 180.298H432.822V187.598H468.21V180.298Z" stroke="#CFB3FF" stroke-width="0.5" stroke-miterlimit="10"/>
<path d="M493.523 208.061H348.749V215.2H493.523V208.061Z" stroke="#CFB3FF" stroke-width="0.5" stroke-miterlimit="10"/>
<path d="M493.523 220.23H348.749V259.477H493.523V220.23Z" stroke="#CFB3FF" stroke-width="0.5" stroke-miterlimit="10"/>
<path d="M395.727 277.115C380.37 295.025 375.884 321.537 384.499 343.479C394.071 334.961 400.812 321.978 401.238 310.622C401.665 299.266 398.684 288.089 395.727 277.115Z" fill="#CFB3FF"/>
<path d="M393.044 345.549C387.833 353.51 385.339 363.204 386.063 372.683C394.365 369.801 401.684 360.451 406.072 352.856C410.46 345.262 412.913 336.731 415.145 328.254C406.151 331.409 398.255 337.589 393.044 345.549Z" fill="#CFB3FF"/>
<path d="M391.038 308.368C384.872 330.479 381.724 353.408 381.741 376.36C381.746 382.893 382.012 389.424 382.523 395.937C382.564 396.462 383.39 396.466 383.348 395.937C381.554 373.04 382.885 349.927 387.347 327.393C388.599 321.069 390.102 314.797 391.834 308.586C391.976 308.076 391.18 307.857 391.038 308.368Z" fill="#263238"/>
<path d="M382.888 380.195C389.193 365.243 397.475 351.241 407.046 338.145C407.359 337.717 406.643 337.306 406.333 337.73C396.716 350.889 388.427 364.954 382.093 379.977C381.887 380.464 382.685 380.677 382.888 380.195Z" fill="#263238"/>
<path d="M373.853 357.953C378.199 364.591 380.278 372.674 379.675 380.578C372.752 378.175 366.649 370.378 362.991 364.046C359.332 357.713 357.286 350.6 355.425 343.531C362.924 346.162 369.508 351.315 373.853 357.953Z" fill="#CFB3FF"/>
<path d="M382.701 385.791C377.522 373.519 370.693 362.148 362.839 351.401C362.529 350.978 361.813 351.388 362.126 351.817C369.934 362.5 376.756 373.808 381.906 386.01C382.108 386.491 382.907 386.279 382.701 385.791Z" fill="#263238"/>
<path d="M382.916 389.957C392.685 379.937 402.66 370.118 412.429 360.097C412.799 359.717 412.217 359.135 411.846 359.516C402.076 369.536 392.102 379.355 382.332 389.375C381.962 389.755 382.545 390.338 382.916 389.957Z" fill="#263238"/>
<path d="M412.73 355.425C404.254 363.574 396.532 372.503 389.693 382.059L391.244 382.06C397.695 381.758 403.957 378.585 408.005 373.568C412.052 368.55 413.817 361.772 412.73 355.425Z" fill="#CFB3FF"/>
<path d="M372.525 336.039C376.164 341.973 379.592 348.032 382.805 354.206C383.049 354.676 383.762 354.26 383.517 353.791C380.305 347.617 376.876 341.558 373.237 335.624C372.96 335.173 372.247 335.586 372.525 336.039Z" fill="#263238"/>
<path d="M363.833 306.03C362.446 312.254 361.069 320.348 361.055 326.829C361.041 333.311 363.024 339.635 366.718 343.978C370.412 348.32 377.869 350.223 380.875 347.738L363.833 306.03Z" fill="#CFB3FF"/>
<path d="M400.667 392.782H363.642V399.624H400.667V392.782Z" fill="#263238"/>
<path d="M394.672 423.996H371.681L367.503 398.056H397.973L394.672 423.996Z" fill="#263238"/>
<path opacity="0.2" d="M367.771 399.75H397.752L397.379 402.687H368.244L367.771 399.75Z" fill="black"/>
<path d="M612.131 153.84C620.73 144.26 619.912 129.544 610.304 120.97C600.695 112.397 585.935 113.213 577.335 122.793C570.697 130.189 569.695 140.636 573.993 148.965L571.48 155.492L578.888 155.391C578.984 155.479 579.066 155.576 579.163 155.663C588.772 164.236 603.532 163.42 612.131 153.84Z" fill="#CFB3FF"/>
<path d="M607.928 115.175C614.718 118.559 619.569 125.539 620.362 133.066" stroke="#CFB3FF" stroke-width="0.5" stroke-linecap="round" stroke-linejoin="round"/>
<path d="M620.601 136.529C620.807 137.665 620.775 138.844 620.506 139.967" stroke="#CFB3FF" stroke-width="0.5" stroke-linecap="round" stroke-linejoin="round"/>
<path d="M594.267 148.227L583.566 140.283L586.347 136.56L593.522 141.887L603.382 130.16L606.949 133.142L594.267 148.227Z" fill="white"/>
<path opacity="0.3" d="M402.363 57.4554C396.572 47.1514 383.582 43.7922 373.35 49.9525C363.118 56.1128 359.517 69.4598 365.308 79.7639C365.367 79.8683 365.437 79.9607 365.497 80.0636L363.966 86.8177L370.287 85.6779C376.892 91.0848 386.422 92.0229 394.321 87.267C404.554 81.1067 408.154 67.7597 402.363 57.4554Z" fill="black"/>
<path d="M397.39 52.6664C403.181 62.9705 399.581 76.3176 389.349 82.4778C381.449 87.2338 371.919 86.2957 365.314 80.8888L358.993 82.0285L360.525 75.2745C360.465 75.1716 360.394 75.0793 360.335 74.9748C354.544 64.6708 358.145 51.3238 368.377 45.1635C378.61 39.0031 391.599 42.3623 397.39 52.6664Z" fill="white"/>
<path d="M373.64 63.3486C373.64 64.9144 372.324 66.1836 370.699 66.1836C369.075 66.1836 367.758 64.9144 367.758 63.3486C367.758 61.7829 369.075 60.5137 370.699 60.5137C372.324 60.5137 373.64 61.7829 373.64 63.3486Z" fill="#CFB3FF"/>
<path d="M382.646 63.3486C382.646 64.9144 381.329 66.1836 379.705 66.1836C378.08 66.1836 376.764 64.9144 376.764 63.3486C376.764 61.7829 378.08 60.5137 379.705 60.5137C381.329 60.5137 382.646 61.7829 382.646 63.3486Z" fill="#CFB3FF"/>
<path d="M391.649 63.3486C391.649 64.9144 390.332 66.1836 388.708 66.1836C387.084 66.1836 385.767 64.9144 385.767 63.3486C385.767 61.7829 387.084 60.5137 388.708 60.5137C390.332 60.5137 391.649 61.7829 391.649 63.3486Z" fill="#CFB3FF"/>
<path d="M116.336 0H21.3331C16.9438 0 13.3855 3.54765 13.3855 7.92393V94.9116C13.3855 99.2878 16.9438 102.836 21.3331 102.836H63.8478C68.3292 107.254 78.5854 117.603 78.5854 117.603V102.836H116.336C120.725 102.836 124.283 99.2878 124.283 94.9116V7.92393C124.283 3.54765 120.725 0 116.336 0Z" fill="#CFB3FF"/>
<path opacity="0.8" d="M116.336 0H21.3331C16.9438 0 13.3855 3.54765 13.3855 7.92393V94.9116C13.3855 99.2878 16.9438 102.836 21.3331 102.836H63.8478C68.3292 107.254 78.5854 117.603 78.5854 117.603V102.836H116.336C120.725 102.836 124.283 99.2878 124.283 94.9116V7.92393C124.283 3.54765 120.725 0 116.336 0Z" fill="white"/>
<path d="M66.7204 12.8188C68.5534 10.9258 75.5775 14.7216 82.4093 21.297C89.2411 27.8726 93.2936 34.7376 91.4607 36.6305C89.6277 38.5236 82.6036 34.7277 75.7718 28.1523C68.94 21.5769 64.8875 14.7118 66.7204 12.8188Z" fill="#263238"/>
<path d="M75.782 28.1663C68.9532 21.5918 64.8959 14.7315 66.7291 12.8345L45.1046 35.2C43.2714 37.0883 47.32 43.9574 54.1575 50.5319C60.995 57.1065 68.0062 60.9264 69.7959 59.0035L91.4291 36.6466C89.6307 38.5349 82.6108 34.7409 75.782 28.1663Z" fill="#CFB3FF"/>
<path opacity="0.6" d="M75.782 28.1663C68.9532 21.5918 64.8959 14.7315 66.7291 12.8345L45.1046 35.2C43.2714 37.0883 47.32 43.9574 54.1575 50.5319C60.995 57.1065 68.0062 60.9264 69.7959 59.0035L91.4291 36.6466C89.6307 38.5349 82.6108 34.7409 75.782 28.1663Z" fill="white"/>
<path d="M106.668 29.2232C102.602 36.5167 96.3469 38.6389 89.188 37.019H89.1359C86.0516 36.3954 80.8736 33.0518 75.7824 28.1577C73.1792 25.6907 70.849 22.9523 68.832 19.9893C69.0231 17.4687 72.4375 15.3811 75.4522 15.0866C79.4227 14.6882 84.5487 15.511 89.579 22.4581C95.6085 30.791 101.933 29.3877 102.846 26.304C104.427 20.8989 110.335 22.6573 106.668 29.2232ZM100.934 24.1126C101.169 21.8517 99.2401 20.9595 99.3879 23.1424C99.5355 25.3252 100.769 25.741 100.934 24.1126ZM105.513 35.0268C107.19 34.533 107.164 32.9219 105.669 33.6582C104.175 34.3945 104.305 35.3733 105.513 35.0268Z" fill="#CFB3FF"/>
<path d="M52.8528 68.142C56.8686 72.2192 56.923 78.6585 52.9743 82.5247C49.0256 86.3908 42.569 86.2196 38.5532 82.1425C34.5374 78.0652 34.4829 71.6259 38.4317 67.7598C42.3804 63.8938 48.837 64.0648 52.8528 68.142ZM63.3988 68.8472C59.4501 72.7133 59.5045 79.1526 63.5203 83.2298C67.5362 87.307 73.9927 87.4781 77.9415 83.6119C81.8901 79.7458 81.8358 73.3065 77.8199 69.2294C73.8041 65.1521 67.3476 64.9811 63.3988 68.8472ZM95.4827 86.3983C100.871 86.6373 105.433 82.4759 105.673 77.1037C105.68 76.9353 105.683 76.7667 105.682 76.5981C105.64 70.9379 101.155 66.3043 95.4827 66.0607C90.0945 65.8218 85.5323 69.9832 85.2927 75.3554C85.2852 75.5237 85.2821 75.6923 85.2833 75.861C85.3256 81.5212 89.8106 86.1548 95.4827 86.3983ZM58.0666 75.142C58.0666 68.3453 52.5201 62.8154 45.7031 62.8154C38.8861 62.8154 33.3396 68.3453 33.3396 75.142C33.3396 81.9392 38.8861 87.4691 45.7031 87.4691C52.5201 87.4691 58.0666 81.9392 58.0666 75.142ZM57.5165 75.142C57.5165 81.6366 52.2171 86.9206 45.7031 86.9206C39.1891 86.9206 33.8897 81.6366 33.8897 75.142C33.8897 68.6474 39.1891 63.3639 45.7031 63.3639C52.2171 63.3639 57.5165 68.6474 57.5165 75.142Z" fill="#CFB3FF"/>
<path d="M502.031 330.697H613.919C615.997 330.697 617.684 332.379 617.684 334.451V418.645C617.684 422.011 614.943 424.743 611.567 424.743H502.031C499.953 424.743 498.266 423.062 498.266 420.99V334.451C498.266 332.379 499.953 330.697 502.031 330.697Z" fill="#CFB3FF"/>
<path opacity="0.7" d="M536.869 377.716V358.034C536.869 356.048 539.026 354.806 540.752 355.799L557.848 365.64L574.945 375.482C576.67 376.475 576.67 378.958 574.945 379.951L557.848 389.792L540.752 399.634C539.026 400.627 536.869 399.385 536.869 397.399V377.716Z" fill="white"/>
<path opacity="0.3" d="M596.065 330.69H614.09C616.074 330.69 617.685 332.296 617.685 334.275V418.731C617.685 422.049 614.983 424.744 611.654 424.744H596.065V330.69Z" fill="black"/>
<path opacity="0.3" d="M525.671 417.229C525.671 417.229 530.906 414.944 530.822 415.271C530.738 415.599 522.667 380.254 519.801 367.303C516.936 354.353 511.763 336.545 511.763 336.545L553.525 330.842C553.525 330.842 490.687 325.483 491.769 326.293C492.549 326.876 503.985 385.495 513.573 411.703C517.299 421.889 525.671 417.229 525.671 417.229Z" fill="black"/>
<path d="M464.021 365.72L451.873 387.864L441.271 384.721L450.905 359.021L464.021 365.72Z" fill="#E9B376"/>
<path d="M449.165 399.797L441.583 398.189C441.583 398.189 441.15 396.643 439.551 396.256C438.653 396.039 436.268 396.841 436.268 396.841L415.384 392.577C415.39 392.546 415.673 391.149 416.031 390.579C416.469 389.884 416.926 389.314 417.398 388.849C419.051 387.225 421.576 386.895 423.451 386.718C426.594 386.42 435.675 384.022 435.675 384.022C435.675 384.022 438.027 383.179 439.974 380.52C441.06 379.037 442.504 378.29 443.432 378.362C445.326 378.506 446.118 379.805 446.02 381.568L445.904 383.617C447.084 384.999 448.947 385.326 450.656 384.293C450.656 384.293 455.048 382.802 454.417 384.719C454.057 385.813 452.261 390.645 450.957 394.503C450.652 395.403 450.365 396.254 450.113 397.001L450.111 397.001C449.552 398.658 449.165 399.797 449.165 399.797Z" fill="#263238"/>
<path d="M430.823 385.123C430.935 385.058 431.081 385.079 431.175 385.17C431.609 385.583 431.935 386.106 432.103 386.71C432.192 387.029 431.681 387.21 431.591 386.888C431.442 386.351 431.157 385.889 430.779 385.528C430.653 385.407 430.669 385.213 430.819 385.126L430.823 385.123Z" fill="#CFB3FF"/>
<path d="M432.609 384.587C432.721 384.522 432.867 384.543 432.961 384.634C433.394 385.047 433.72 385.569 433.889 386.174C433.977 386.493 433.467 386.674 433.377 386.352C433.227 385.815 432.943 385.353 432.565 384.992C432.438 384.871 432.455 384.677 432.604 384.59L432.609 384.587Z" fill="#CFB3FF"/>
<path d="M434.436 384.122C434.548 384.057 434.694 384.079 434.788 384.169C435.221 384.582 435.548 385.105 435.716 385.709C435.805 386.028 435.294 386.209 435.204 385.887C435.055 385.35 434.77 384.889 434.392 384.527C434.265 384.406 434.282 384.212 434.431 384.125L434.436 384.122Z" fill="#CFB3FF"/>
<path d="M434.58 384.401C434.792 383.692 435.005 382.978 435.089 382.243C435.173 381.508 435.122 380.742 434.823 380.065C434.684 379.75 434.451 379.429 434.109 379.381C433.75 379.33 433.422 379.605 433.231 379.913C432.863 380.503 432.812 381.255 432.987 381.928C433.161 382.602 434.138 383.863 434.58 384.401Z" stroke="#CFB3FF" stroke-width="0.25" stroke-miterlimit="10"/>
<path d="M434.668 384.419C435.091 383.811 435.516 383.199 436.039 382.674C436.562 382.148 437.193 381.709 437.909 381.517C438.243 381.428 438.64 381.409 438.891 381.645C439.156 381.892 439.145 382.319 439.025 382.661C438.793 383.317 438.237 383.826 437.601 384.112C436.964 384.398 435.366 384.426 434.668 384.419Z" stroke="#CFB3FF" stroke-width="0.25" stroke-miterlimit="10"/>
<path d="M514.221 381.96L519.766 406.587L509.722 411.207L499.935 385.565L514.221 381.96Z" fill="#E9B376"/>
<path d="M525.636 417.328L518.877 421.113C518.877 421.113 517.528 420.237 516.071 420.999C515.253 421.427 513.993 423.6 513.993 423.6L495.486 434.147C495.47 434.121 494.757 432.885 494.649 432.221C494.517 431.411 494.483 430.681 494.53 430.022C494.695 427.715 496.373 425.804 497.663 424.436C499.826 422.143 505.057 414.364 505.057 414.364C505.057 414.364 506.265 412.182 505.966 408.904C505.799 407.075 506.389 405.564 507.134 405.007C508.651 403.867 510.106 404.321 511.201 405.71L512.47 407.325C514.272 407.586 515.888 406.605 516.486 404.704C516.486 404.704 518.797 400.692 519.593 402.547C520.047 403.606 521.899 408.417 523.475 412.173C523.842 413.049 524.19 413.877 524.496 414.604L524.494 414.606C525.172 416.218 525.636 417.328 525.636 417.328Z" fill="#263238"/>
<path d="M502.137 418.386C502.178 418.264 502.302 418.184 502.433 418.189C503.031 418.214 503.623 418.392 504.15 418.735C504.427 418.916 504.164 419.389 503.883 419.206C503.415 418.901 502.896 418.742 502.372 418.719C502.197 418.711 502.081 418.555 502.136 418.391L502.137 418.386Z" fill="#CFB3FF"/>
<path d="M503.131 416.806C503.172 416.684 503.296 416.604 503.426 416.609C504.025 416.634 504.616 416.812 505.143 417.155C505.421 417.336 505.157 417.809 504.877 417.626C504.408 417.321 503.889 417.162 503.366 417.139C503.191 417.131 503.075 416.975 503.129 416.811L503.131 416.806Z" fill="#CFB3FF"/>
<path d="M504.193 415.254C504.234 415.131 504.358 415.051 504.488 415.057C505.087 415.082 505.678 415.26 506.205 415.603C506.483 415.784 506.219 416.256 505.939 416.074C505.471 415.769 504.952 415.609 504.428 415.587C504.253 415.579 504.137 415.423 504.191 415.259L504.193 415.254Z" fill="#CFB3FF"/>
<path opacity="0.2" d="M516.073 421.001C515.255 421.429 513.995 423.602 513.995 423.602L495.488 434.149C495.472 434.123 494.759 432.887 494.651 432.223C494.59 431.85 494.555 431.5 494.535 431.161L524.328 414.201C524.383 414.334 524.444 414.479 524.498 414.606L524.496 414.607C525.174 416.22 525.638 417.33 525.638 417.33L518.879 421.115C518.879 421.115 517.53 420.239 516.073 421.001Z" fill="white"/>
<path d="M504.49 415.371C504.179 414.699 503.866 414.024 503.442 413.416C503.018 412.809 502.473 412.267 501.8 411.955C501.487 411.81 501.099 411.722 500.811 411.911C500.508 412.11 500.444 412.532 500.504 412.889C500.618 413.575 501.078 414.172 501.655 414.564C502.232 414.955 503.802 415.258 504.49 415.371Z" stroke="#CFB3FF" stroke-width="0.25" stroke-miterlimit="10"/>
<path d="M504.566 415.326C504.481 414.591 504.395 413.852 504.439 413.113C504.484 412.374 504.667 411.629 505.078 411.013C505.269 410.727 505.555 410.451 505.9 410.462C506.262 410.474 506.537 410.802 506.673 411.137C506.933 411.783 506.853 412.531 506.564 413.165C506.276 413.798 505.095 414.872 504.566 415.326Z" stroke="#CFB3FF" stroke-width="0.25" stroke-miterlimit="10"/>
<path d="M475.049 318.501C475.448 322.449 476.306 327.843 477.339 331.675C480.146 342.492 483.352 352.897 487.381 363.642C495.177 384.871 501.475 404.567 501.475 404.567L521.273 398.647C521.273 398.647 508.183 337.222 499.355 330.943H553.488C554.5 330.943 555.511 330.875 556.513 330.74C547.191 329.536 532.661 323.808 519.179 318.081C507.267 313.005 496.126 307.93 490.09 306.016C482.702 309.163 474.482 312.309 475.049 318.501Z" fill="#263238"/>
<path opacity="0.6" d="M490.077 306.075C496.127 308.033 507.268 313.065 519.165 318.14C532.647 323.868 547.177 329.595 556.5 330.799C572.208 328.711 578.113 310.048 561.692 288.529C551.031 288.529 540.312 298.68 540.312 298.68C540.312 298.68 508.082 298.52 490.077 306.075Z" fill="black"/>
<path d="M445.993 372.169L459.083 380.072C459.083 380.072 470.006 357.204 480.448 331.407C479.415 327.576 478.695 323.667 478.296 319.72C477.728 313.528 482.659 309.163 490.047 306.089C496.098 308.047 507.239 313.078 519.136 318.153C532.618 323.881 547.148 329.609 556.471 330.813C557.541 330.956 558.62 331.033 559.7 331.045C577.618 331.045 583.799 315.384 576.571 288.818C565.91 288.818 547.657 287.673 547.657 287.673C547.657 287.673 512.431 279.233 487.08 282.105C474.738 283.555 464.747 292.784 462.355 304.943C455.825 337.193 445.993 372.169 445.993 372.169Z" fill="#263238"/>
<path d="M443.927 373.129L459.083 380.072C459.083 380.072 470.006 357.204 480.448 331.407C479.415 327.576 478.695 323.667 478.296 319.72C477.729 313.528 482.659 309.163 490.047 306.089C496.098 308.047 507.239 313.078 519.136 318.153C532.618 323.881 547.148 329.609 556.471 330.813C557.541 330.956 558.62 331.033 559.7 331.045C577.618 331.045 583.799 315.384 576.571 288.818C565.91 288.818 547.657 287.673 547.657 287.673C547.657 287.673 512.431 279.233 487.081 282.105C474.738 283.555 464.747 292.784 462.355 304.943C455.825 337.193 443.927 373.129 443.927 373.129Z" fill="#263238"/>
<path opacity="0.2" d="M475.05 318.501C475.449 322.449 476.306 327.843 477.34 331.675C480.147 342.492 483.353 352.897 487.382 363.642C495.177 384.871 501.475 404.567 501.475 404.567L521.273 398.647C521.273 398.647 508.184 337.222 499.355 330.943H553.489C554.501 330.943 555.511 330.875 556.514 330.74C547.191 329.536 532.661 323.808 519.179 318.081C507.267 313.005 496.126 307.93 490.091 306.016C482.702 309.163 474.482 312.309 475.05 318.501Z" fill="black"/>
<path d="M536.338 205.346L542.353 200.478L559.48 199.349C559.48 199.349 563.772 202.866 563.984 202.901C564.196 202.936 566.699 203.935 566.699 203.935L565 208.098L536.338 205.346Z" fill="#CFB3FF"/>
<path d="M519.972 229.906C519.972 229.906 510.998 258.104 510.126 259.658C507.178 264.911 487.648 273.918 487.648 273.918L477.69 271.838L470.555 277.78L475.26 281.454L480.78 279.374C483.792 279.91 486.846 280.177 489.906 280.172C495.05 280.172 519.854 273.904 523.994 267.009C528.134 260.114 530.036 228.186 530.036 228.186L519.972 229.906Z" fill="#E9B376"/>
<path d="M577.9 294.251L518.129 285.268C519.018 246.631 527.874 206.198 527.874 206.198C545.11 204.254 562.506 204.17 579.76 205.946C571.745 230.721 577.9 294.251 577.9 294.251Z" fill="#CFB3FF"/>
<path opacity="0.6" d="M572.808 293.551L518.129 285.268C519.018 246.631 527.874 206.198 527.874 206.198C545.11 204.254 562.506 204.17 579.76 205.946C571.745 230.721 572.808 293.551 572.808 293.551Z" fill="white"/>
<path d="M579.758 205.946C576.514 233.956 584.927 293.551 584.927 293.551C581.134 301.658 571.027 303.167 559.076 302.749C548.357 256.661 563.705 202.927 563.705 202.927L579.758 205.946Z" fill="#CFB3FF"/>
<path d="M527.873 206.149C519.918 227.079 515.132 284.603 515.132 284.603L519.884 285.74C526.085 216.314 539.312 203.717 539.312 203.717L527.873 206.149Z" fill="#CFB3FF"/>
<path d="M533.369 230.617L533.934 222.662C533.961 222.207 534.292 221.857 534.683 221.872L554.252 222.494L554.274 222.495C554.682 222.522 554.994 222.929 554.971 223.405L554.56 231.599L554.15 239.83L554.149 239.844C554.126 240.313 553.782 240.671 553.38 240.644L533.523 239.255L533.52 239.254C533.107 239.22 532.796 238.802 532.826 238.32L533.369 230.617Z" fill="#CFB3FF"/>
<path opacity="0.4" d="M533.369 230.617L533.934 222.662C533.961 222.207 534.292 221.857 534.683 221.872L554.252 222.494L554.274 222.495C554.682 222.522 554.994 222.929 554.971 223.405L554.56 231.599L554.15 239.83L554.149 239.844C554.126 240.313 553.782 240.671 553.38 240.644L533.523 239.255L533.52 239.254C533.107 239.22 532.796 238.802 532.826 238.32L533.369 230.617Z" fill="white"/>
<path opacity="0.2" d="M533.369 230.617C536.746 231.444 542.78 232.845 542.903 232.402C543.067 231.779 542.975 229.251 543.344 228.532C543.713 227.813 547.018 235.229 548.126 234.151C549.234 233.073 548.208 225.142 550.373 225.058C551.564 225.01 553.277 228.484 554.56 231.599L554.15 239.83L554.149 239.844C554.126 240.313 553.782 240.671 553.38 240.644L533.523 239.255L533.52 239.254C533.107 239.22 532.796 238.802 532.826 238.32L533.369 230.617Z" fill="#263238"/>
<path d="M506.123 244.97L518.128 248.33H519.092L523.319 226.383L527.874 206.232C516.521 207.772 506.123 244.97 506.123 244.97Z" fill="#CFB3FF"/>
<path d="M559.446 199.449L560.522 217.17L563.983 202.902L559.446 199.449Z" fill="#CFB3FF"/>
<path d="M502.044 282.19H539.113L539.113 282.202C539.104 283.613 537.524 284.752 535.583 284.745H505.608L505.558 284.745L505.555 284.745H475.2C473.275 284.732 471.727 283.59 471.736 282.19H502.044Z" fill="#263238"/>
<path d="M474.647 284.601H508.511C509.096 284.597 509.566 284.215 509.561 283.747C509.56 283.659 509.542 283.572 509.508 283.489L494.443 249.054C494.062 248.07 492.928 247.398 491.641 247.394H457.756C457.183 247.394 456.719 247.766 456.719 248.224C456.719 248.32 456.74 248.416 456.781 248.506L471.845 282.941C472.232 283.921 473.362 284.591 474.647 284.601Z" fill="#263238"/>
<path opacity="0.7" d="M457.756 247.394H491.641C492.928 247.398 494.062 248.07 494.443 249.054L508.939 282.19H539.116L539.115 282.202C539.106 283.613 537.526 284.752 535.585 284.745H505.61L505.56 284.746L505.557 284.745H475.202C474.592 284.741 474.028 284.613 473.531 284.41C472.744 284.145 472.113 283.621 471.845 282.941L456.78 248.506C456.74 248.416 456.719 248.32 456.719 248.224C456.718 247.766 457.183 247.394 457.756 247.394Z" fill="white"/>
<path d="M478.108 265.726C478.84 267.378 480.323 268.513 481.429 268.282C482.535 268.051 482.83 266.545 482.12 264.888C481.41 263.231 479.909 262.122 478.803 262.353C477.697 262.584 477.367 264.03 478.108 265.726Z" fill="white"/>
<g opacity="0.3">
<path d="M494.442 249.054L508.939 282.19H507.369L491.641 247.394C492.927 247.398 494.062 248.07 494.442 249.054Z" fill="black"/>
</g>
<path d="M571.108 224.696C571.108 224.696 568.739 259.316 565.941 262.321C561.211 267.399 535.307 278.398 535.307 278.398L523.614 274.31C522.794 274.042 521.888 274.189 521.218 274.698L513.224 280.782L513.987 281.424C514.317 281.701 514.794 281.758 515.183 281.565L516.425 280.948L515.036 282.306L515.476 282.676C515.914 283.044 516.521 283.176 517.083 283.026L520.658 282.07L517.359 284.26C518.095 284.879 519.121 285.094 520.061 284.826L525.292 283.34C528.858 284.153 532.492 284.672 536.151 284.891C542.309 285.269 572.952 279.664 578.372 272.247C583.793 264.829 587.82 229.504 587.82 229.504L571.108 224.696Z" fill="#E9B376"/>
<path d="M579.755 205.943C579.755 205.943 589.532 207.201 589.494 217.624C589.461 226.605 586.202 250.006 586.202 250.006L565.497 246.115L570.058 220.216C571.1 214.297 574.628 209.104 579.755 205.943Z" fill="#CFB3FF"/>
<path d="M534.162 161.645C534.578 161.115 533.427 149.22 553.968 155.139C569.22 159.535 563.458 171.456 563.458 171.456L546.016 158.894L534.162 161.645Z" fill="#263238"/>
<path d="M559.034 204.979C557.515 204.094 557.321 203.42 556.835 201.843C555.575 197.772 556.929 183.879 556.929 183.879L541.7 190.121C541.7 190.121 541.818 190.462 541.994 191.037C542.477 192.644 543.454 196.07 543.748 198.933C543.936 200.717 543.854 202.289 543.254 203.087C542.631 203.908 540.823 205.024 539.673 205.409C539.673 205.409 541.604 209.555 548.427 209.024C555.25 208.493 559.034 204.979 559.034 204.979Z" fill="#E9B376"/>
<path opacity="0.2" d="M554.398 191.526C554.398 191.526 551.127 198.308 543.607 198.073C543.312 195.21 542.336 191.784 541.853 190.177C542.418 189.966 542.783 189.836 542.783 189.836L554.398 191.526Z" fill="black"/>
<path d="M535.003 159.208C535.003 159.208 530.57 171.71 536.475 177.97C542.38 184.23 546.978 160.258 546.978 160.258L535.003 159.208Z" fill="#263238"/>
<path d="M554.416 191.999C549.772 195.493 544.512 196.345 540.088 193.962C537.242 192.433 534.913 189.821 533.796 186.491C533.645 186.055 533.522 185.601 533.414 185.136C531.549 176.624 533.116 162.655 542.451 159.087C549.089 156.496 556.595 159.763 559.191 166.393C559.942 168.274 560.219 170.31 560.03 172.332C559.29 181.728 559.841 187.917 554.416 191.999Z" fill="#E9B376"/>
<path d="M545.688 175.219C545.737 176.201 545.135 176.996 544.476 176.982C543.817 176.968 543.321 176.149 543.335 175.164C543.348 174.179 543.904 173.386 544.547 173.401C545.189 173.416 545.7 174.218 545.688 175.219Z" fill="#263238"/>
<path d="M537.039 175.199C537.088 176.181 536.47 176.977 535.827 176.962C535.184 176.948 534.672 176.13 534.686 175.145C534.699 174.16 535.255 173.367 535.898 173.382C536.541 173.396 537.054 174.261 537.039 175.199Z" fill="#263238"/>
<path d="M539.691 174.943C538.728 177.271 537.447 179.456 535.884 181.434C536.939 182.218 538.288 182.497 539.568 182.195L539.691 174.943Z" fill="#D58745"/>
<path d="M533.785 170.743C533.931 170.827 534.111 170.828 534.257 170.744C535.23 170.134 536.434 170.017 537.506 170.429C537.729 170.538 537.998 170.447 538.107 170.225C538.217 170.003 538.125 169.735 537.903 169.626L537.901 169.625C536.559 169.07 535.03 169.198 533.8 169.969C533.583 170.089 533.505 170.362 533.626 170.578L533.632 170.587C533.674 170.647 533.726 170.699 533.785 170.743Z" fill="#263238"/>
<path d="M547.425 171.251C547.516 171.25 547.604 171.22 547.678 171.166C547.845 170.984 547.833 170.701 547.65 170.534L547.643 170.527C546.575 169.537 545.091 169.128 543.665 169.428C543.426 169.494 543.285 169.74 543.351 169.978C543.422 170.214 543.665 170.352 543.904 170.293C545.036 170.088 546.2 170.429 547.041 171.213C547.157 171.281 547.297 171.295 547.425 171.251Z" fill="#263238"/>
<path d="M553.328 160.444L552.54 164.554C553.853 165.37 554.572 166.959 553.833 168.549C552.255 171.945 553.872 177.485 556.408 179.821C556.408 179.821 556.594 178.317 557.847 178.761C559.101 179.205 557.893 185.534 556.563 189.425C556.563 189.425 559.469 187.489 562.158 179.377C564.644 171.875 565.32 165.528 563.947 162.468L553.328 160.444Z" fill="#263238"/>
<path opacity="0.4" d="M553.328 160.444L552.54 164.554C553.853 165.37 554.572 166.959 553.833 168.549C552.255 171.945 553.872 177.485 556.408 179.821C556.408 179.821 556.594 178.317 557.847 178.761C559.101 179.205 557.893 185.534 556.563 189.425C556.563 189.425 559.469 187.489 562.158 179.377C564.644 171.875 565.32 165.528 563.947 162.468L553.328 160.444Z" fill="white"/>
<path d="M564.004 180.14C562.913 182.251 561.027 183.845 558.76 184.571C555.751 185.513 554.148 182.85 554.893 179.963C555.58 177.404 557.96 173.744 561.027 174.092C564.093 174.441 565.31 177.532 564.004 180.14Z" fill="#E9B376"/>
<path opacity="0.1" d="M556.912 180.638C557.2 179.059 558.224 177.628 559.628 176.842C560.225 176.507 561.034 176.309 561.55 176.758" stroke="black" stroke-width="0.5" stroke-miterlimit="10"/>
<path d="M531.688 162.596C529.945 163.003 528.006 162.435 526.761 161.151C529.226 160.991 531.65 160.246 533.778 158.996C531.615 159.545 529.201 158.996 527.491 157.566C530.76 157.047 533.749 155.474 536.863 154.354C543.748 151.877 551.529 151.66 558.355 154.295C559.965 154.916 561.571 155.733 562.638 157.086C563.705 158.44 564.87 161.01 563.949 162.467L552.825 162.965C551.045 159.7 548.232 160.834 544.161 163.257C542.514 164.239 538.759 166.081 536.899 166.554C534.543 167.153 532.688 167.426 531.238 167.353C528.734 167.226 527.714 166.503 526.179 165.355C528.458 164.5 529.902 164.246 531.688 162.596Z" fill="#263238"/>
<path d="M543.051 183.531C544.84 183.025 546.501 182.145 547.922 180.95C548.078 181.229 548.193 181.529 548.261 181.84C548.399 182.392 548.399 182.968 548.261 183.519C547.979 184.646 547.018 185.874 544.373 186.641C544.181 186.707 543.984 186.764 543.786 186.81C543.297 185.771 542.735 184.77 542.102 183.812C542.102 183.812 542.463 183.722 543.051 183.531Z" fill="#263238"/>
<path d="M547.878 180.95C548.034 181.229 548.148 181.529 548.217 181.84C547.663 182.821 546.013 183.666 543.527 184.41L543.007 183.531C544.796 183.025 546.456 182.145 547.878 180.95Z" fill="white"/>
<path d="M545.492 184.951C546.323 184.315 547.261 183.83 548.261 183.52C547.978 184.646 547.018 185.875 544.373 186.641C544.56 185.975 544.951 185.384 545.492 184.951Z" fill="#C15854"/>
<path opacity="0.3" d="M404.777 157.371C404.051 158.019 401.683 160.009 399.981 161.771C399.247 162.531 398.173 163.536 397.137 164.504C397.003 164.604 396.867 164.7 396.745 164.821L395.738 165.823C395.231 166.306 394.79 166.739 394.489 167.064L393.333 168.215C392.647 168.906 392.098 169.719 391.712 170.612L389.385 178.985C384.038 184.243 372.476 195.033 371.805 194.62C371.362 194.347 369.254 188.247 367.314 182.396L370.857 181.138L370.262 179.398L369.633 179.628C368.464 175.327 361.574 150.267 359.042 147.479L359.037 147.485C354.278 142.009 348.185 137.966 341.439 135.659C341.612 135.001 341.839 134.361 342.124 133.746C344.887 135.028 348.117 135.229 351.124 134.123C354.266 133.023 356.868 130.767 358.397 127.817C358.612 127.426 358.802 126.998 358.992 126.556C359.732 124.678 360.332 122.157 360.709 119.417C362.52 119.182 364.032 117.79 364.304 115.9C364.435 113.901 363.218 112.139 361.435 111.452C361.833 109.465 361.934 107.473 361.907 105.779C363.662 104.18 364.617 101.887 364.507 99.5174C364.14 95.86 359.042 95.2421 359.042 95.2421C359.042 95.2421 357.512 91.1182 354.134 89.8696C350.757 88.6211 347.367 91.7488 347.367 91.7488C347.367 91.7488 343.155 87.6879 338.247 88.8481C334.842 89.5447 332.39 92.5208 332.365 95.9862C332.365 95.9862 326.61 96.5663 326.736 99.5174C326.853 102.242 329.704 104.179 330.141 104.46C329.957 106.88 330.045 109.758 330.502 113.315C330.115 113.899 329.87 114.586 329.845 115.337C329.826 115.883 329.922 116.427 330.126 116.934C330.492 118.05 331.074 119.07 331.828 119.944C332.415 121.798 333.132 123.355 333.839 124.602C332.33 127.951 330.472 131.183 328.372 133.418C320.319 133.101 314.758 133.344 310.445 134.278C310.37 134.294 310.297 134.311 310.222 134.328C309.946 134.39 309.674 134.455 309.407 134.523C308.815 134.671 308.241 134.83 307.693 135.008C301.398 136.125 295.566 139.071 290.965 143.519C283.856 150.102 272.117 161.528 272.117 161.528L272.157 161.579C266.536 166.882 261.564 171.749 260.372 173.455C257.311 177.831 257.458 221.806 257.458 221.806C257.458 221.806 256.086 224.576 256.052 226.56C256.038 227.341 255.716 231.073 255.635 233.193L236.416 230.155C233.258 229.655 230.292 231.803 229.792 234.952L224.483 268.332C223.982 271.48 226.136 274.437 229.294 274.936L277.621 282.576C277.62 282.672 277.617 282.768 277.616 282.864H307.905C308.429 276.304 308.917 270.126 309.331 264.953C309.338 264.972 309.348 265.025 309.355 265.058L309.344 265.073C309.344 265.073 310.422 274.791 311.283 282.864H336.662C335.178 264.299 333.142 248.056 331.304 235.606C331.658 235.607 332.018 235.609 332.365 235.607L331.848 232.804C332.016 232.796 332.184 232.791 332.353 232.782L332.353 232.76C332.353 232.697 332.379 230.637 332.611 227.387C332.643 226.97 332.678 226.54 332.719 226.085C332.871 224.168 333.099 221.924 333.415 219.502C333.544 218.513 333.701 217.459 333.87 216.38C334.882 210.036 336.566 202.887 339.373 196.94C342.016 191.403 344.52 185.803 346.904 180.153L349.163 184.316L350.444 186.656L349.669 186.939L350.251 188.453L352.719 187.577C356.965 198.6 363.101 212.257 367.922 213.739C375.249 215.99 392.137 188.718 395.683 182.828C399.179 181.587 401.894 176.349 401.894 176.349L404.901 172.357C405.913 171.014 405.814 169.14 404.666 167.911L401.752 164.917L401.795 164.867C402.925 163.553 406.32 160.383 406.529 159.141C406.737 157.898 405.503 156.722 404.777 157.371ZM284.868 180.432C284.539 181.87 284.222 183.308 283.906 184.733C283.828 185.098 283.755 185.456 283.677 185.82C279.161 206.638 275.912 226.653 275.912 226.653C276.192 226.731 276.474 226.801 276.754 226.877L275.925 231.243C275.925 231.243 276.792 231.355 278.333 231.543C278.317 233.186 278.3 234.934 278.281 236.773L268.115 235.166C268.322 234.948 268.529 234.732 268.743 234.493L271.472 234.91L265.793 223.677L274.582 181.661L282.582 175.204L283.147 175.942C284.242 175.271 285.316 174.565 286.396 173.87C285.876 176.034 285.366 178.224 284.868 180.432Z" fill="black"/>
<path d="M318.001 420.639L327.904 419.754L329.805 398.475L316.575 400.262L318.001 420.639Z" fill="#A77865"/>
<path d="M329.258 413.144H325.81C325.03 413.144 324.308 413.538 323.847 414.165C321.858 416.873 320.364 415.849 318.2 413.304C316.826 413.144 316.455 414.717 316.343 415.14L313.765 424.489C313.541 425.27 313.995 426.084 314.778 426.307C314.917 426.347 315.061 426.366 315.206 426.364H342.527C346.873 426.364 347.773 421.998 345.984 421.594C337.935 419.821 332.235 417.459 329.747 415.125C329.286 414.716 329.76 414.41 329.258 413.144Z" fill="#263238"/>
<path d="M336.743 415.802C337.106 415.542 337.323 415.126 337.328 414.68C337.359 414.441 337.25 414.205 337.047 414.074C335.966 413.311 331.655 415.32 331.171 415.555C331.117 415.575 331.074 415.617 331.055 415.67C331.02 415.77 331.071 415.879 331.171 415.915C332.23 416.165 333.313 416.304 334.402 416.33C335.218 416.407 336.039 416.223 336.743 415.802ZM336.777 414.399C336.865 414.454 336.909 414.556 336.889 414.657C336.871 414.979 336.716 415.278 336.462 415.477C335.482 416.206 333.118 415.892 331.846 415.656C333.636 414.871 336.18 413.984 336.777 414.399Z" fill="#CFB3FF"/>
<path d="M331.315 415.959C332.61 415.421 335.323 413.299 335.176 412.177C335.154 411.941 334.985 411.661 334.4 411.582C332.036 411.313 331.022 415.544 331.022 415.724C330.999 415.796 331.021 415.876 331.079 415.926C331.123 415.939 331.17 415.939 331.214 415.926L331.315 415.959ZM334.321 411.93C334.76 411.975 334.76 412.132 334.76 412.188C334.884 412.873 332.914 414.635 331.506 415.376C331.799 414.388 332.666 411.919 334.163 411.919L334.321 411.93Z" fill="#CFB3FF"/>
<path d="M331.648 415.797C330.46 415.959 329.359 416.666 328.72 417.678" stroke="#CFB3FF" stroke-width="0.5" stroke-linecap="round" stroke-linejoin="round"/>
<path d="M333.796 417.404C332.608 417.566 331.506 418.274 330.867 419.285" stroke="#CFB3FF" stroke-width="0.5" stroke-linecap="round" stroke-linejoin="round"/>
<path d="M336.462 418.757C335.274 418.918 334.172 419.626 333.533 420.637" stroke="#CFB3FF" stroke-width="0.5" stroke-linecap="round" stroke-linejoin="round"/>
<path d="M269.437 420.776H278.81L283.384 399.135H270.029L269.437 420.776Z" fill="#A77865"/>
<path d="M280.795 414.495H277.347C276.567 414.495 275.845 414.889 275.384 415.516C273.395 418.224 271.901 417.201 269.738 414.655C268.363 414.495 267.992 416.069 267.88 416.491L265.302 425.841C265.078 426.621 265.532 427.435 266.315 427.658C266.454 427.698 266.598 427.717 266.743 427.715H294.065C298.41 427.715 299.311 423.349 297.521 422.945C289.472 421.172 283.772 418.81 281.284 416.476C280.823 416.067 281.297 415.761 280.795 414.495Z" fill="#263238"/>
<path d="M288.28 417.153C288.643 416.893 288.86 416.477 288.866 416.031C288.896 415.792 288.787 415.557 288.584 415.425C287.504 414.662 283.192 416.671 282.708 416.907C282.654 416.926 282.612 416.968 282.592 417.022C282.557 417.121 282.608 417.23 282.708 417.266C283.767 417.516 284.85 417.655 285.939 417.681C286.756 417.758 287.576 417.574 288.28 417.153ZM288.314 415.75C288.402 415.805 288.447 415.908 288.427 416.009C288.409 416.33 288.253 416.629 287.999 416.828C287.019 417.557 284.655 417.243 283.383 417.007C285.173 416.222 287.717 415.335 288.314 415.75Z" fill="#CFB3FF"/>
<path d="M282.852 417.31C284.147 416.772 286.86 414.651 286.713 413.528C286.691 413.292 286.522 413.012 285.937 412.933C283.573 412.664 282.559 416.895 282.559 417.075C282.536 417.147 282.558 417.227 282.616 417.277C282.66 417.29 282.707 417.29 282.751 417.277L282.852 417.31ZM285.858 413.281C286.297 413.326 286.297 413.483 286.297 413.539C286.421 414.224 284.451 415.986 283.044 416.727C283.336 415.739 284.203 413.27 285.7 413.27L285.858 413.281Z" fill="#CFB3FF"/>
<path d="M283.185 417.148C281.997 417.31 280.896 418.018 280.257 419.029" stroke="#CFB3FF" stroke-width="0.5" stroke-linecap="round" stroke-linejoin="round"/>
<path d="M285.333 418.755C284.145 418.917 283.043 419.625 282.404 420.636" stroke="#CFB3FF" stroke-width="0.5" stroke-linecap="round" stroke-linejoin="round"/>
<path d="M287.999 420.108C286.811 420.27 285.709 420.977 285.07 421.989" stroke="#CFB3FF" stroke-width="0.5" stroke-linecap="round" stroke-linejoin="round"/>
<path d="M272.95 209.03H322.699C325.665 225.212 332.344 267.265 333.208 316.437C333.801 350.195 334.595 404.786 333.208 407.709L313.395 407.774C313.395 407.774 312.547 365.609 309.921 323.714C308.408 299.593 304.343 258.801 303.839 257.356C302.131 278.669 299.191 317.01 297.483 329.079C293.157 358.778 288 408.277 288 408.277H267.34C267.34 408.277 268.937 355.446 270.556 326.263C272.326 294.545 272.95 215.537 272.95 209.03Z" fill="#263238"/>
<path opacity="0.2" d="M303.851 257.475C303.851 257.475 305.855 275.526 306.58 282.861C307.971 263.943 309.386 250.374 309.386 250.374L303.851 257.475Z" fill="#263238"/>
<path d="M386.555 168.636C385.935 169.67 367.176 187.553 366.316 187.024C365.456 186.494 358.322 164.008 358.322 164.008L342.194 165.786C342.194 165.786 354.224 203.62 362.433 206.142C370.642 208.665 390.867 174.105 390.867 174.105" fill="#A77865"/>
<path d="M271.57 217.657L270.431 223.648C270.431 223.648 305.229 228.137 326.872 228.011L326.113 223.9L271.57 217.657Z" fill="#CFB3FF"/>
<path d="M335.362 161.424L336.83 164.11L343.673 176.722L345.102 179.332L364.316 172.673C364.316 172.673 356.322 142.936 353.552 139.884L335.362 161.424Z" fill="#CFB3FF"/>
<path opacity="0.4" d="M335.362 161.424L336.83 164.11L343.673 176.722L345.102 179.332L364.316 172.673C364.316 172.673 356.322 142.936 353.552 139.884L335.362 161.424Z" fill="white"/>
<path opacity="0.2" d="M336.829 164.11L343.672 176.721C347.91 168.436 346.683 157.085 346.683 157.085L336.829 164.11Z" fill="#263238"/>
<path d="M353.549 139.896C346.233 131.473 335.771 126.413 324.607 125.897C305.786 125.014 299.866 126.881 292.985 133.01C282.928 141.964 270.418 219.058 270.418 219.058C288.771 224.152 307.837 226.218 326.859 225.174C326.859 225.174 327.087 203.735 333.879 189.345C341.529 173.316 348.1 156.796 353.549 139.896Z" fill="#CFB3FF"/>
<path opacity="0.4" d="M270.418 219.056C288.771 224.151 307.836 226.222 326.859 225.186C326.859 225.186 326.859 222.537 327.226 218.489C327.378 216.572 327.605 214.327 327.921 211.906C328.238 209.484 328.693 206.723 329.186 203.973C329.49 202.498 329.844 201.01 330.224 199.534C331.106 196.031 332.308 192.616 333.816 189.331C334.651 187.566 335.46 185.813 336.245 184.098C337.598 181.096 338.888 178.183 340.039 175.396C342.569 169.532 344.72 164.172 346.516 159.48C347.781 156.113 348.919 153.099 349.842 150.513C350.867 147.625 351.677 145.255 352.271 143.489C353.043 141.156 353.422 139.882 353.422 139.882C352.794 139.098 352.118 138.352 351.398 137.65C344.339 130.712 335.006 126.548 325.113 125.921H324.481C310.137 125.253 303.294 126.174 297.804 129.364C296.034 130.42 294.376 131.654 292.858 133.047C291.43 134.59 290.306 136.386 289.544 138.343C287.206 143.764 285.286 149.355 283.801 155.066L282.966 158.131C281.701 162.81 280.513 167.791 279.374 172.836C279.045 174.273 278.729 175.711 278.413 177.136C277.945 179.331 277.477 181.512 277.034 183.669C275.896 189.104 274.871 194.376 273.973 199.118C272.708 205.928 271.683 211.628 271.076 215.172C270.659 217.669 270.418 219.056 270.418 219.056ZM325.695 126.615C326.964 126.647 328.231 126.744 329.49 126.905C334.55 127.586 342.329 131.634 342.139 133.551C341.949 135.468 338.989 140.361 331.425 139.176C328.79 138.691 326.288 137.65 324.089 136.124C319.915 133.375 316.879 129.654 316.575 128.444C316.196 126.993 321.104 126.501 325.708 126.64L325.695 126.615Z" fill="white"/>
<path opacity="0.2" d="M278.412 177.174C290.353 172.231 299.789 151.813 299.789 151.813L293.009 147.727L283.801 155.104L282.966 158.169C281.701 162.848 280.512 167.829 279.374 172.874C279.045 174.311 278.728 175.749 278.412 177.174Z" fill="#263238"/>
<path d="M344.178 179.343L364.771 171.801L365.366 173.542L344.76 180.856L344.178 179.343Z" fill="#CFB3FF"/>
<path d="M224.301 227.355L218.992 260.735C218.491 263.884 220.645 266.841 223.803 267.34L285.19 277.045C288.348 277.544 291.314 275.396 291.815 272.248L297.123 238.867C297.624 235.719 295.47 232.762 292.312 232.263L230.925 222.558C227.767 222.059 224.802 224.207 224.301 227.355Z" fill="#CFB3FF"/>
<path d="M252.271 241.277L240.141 247.545L249.729 257.243" stroke="white" stroke-width="2" stroke-linecap="round" stroke-linejoin="round"/>
<path d="M263.857 259.475L275.975 253.207L266.4 243.509" stroke="white" stroke-width="2" stroke-linecap="round" stroke-linejoin="round"/>
<path d="M253.956 257.913L262.178 242.842" stroke="white" stroke-width="2" stroke-linecap="round" stroke-linejoin="round"/>
<path d="M285.864 136.301C285.864 136.301 257.94 161.483 254.879 165.859C251.818 170.235 251.966 214.211 251.966 214.211C251.966 214.211 250.594 216.981 250.559 218.964C250.541 220.013 249.964 226.397 250.166 227.028C250.166 227.028 253.925 237.344 263.25 226.898L265.979 227.315L260.3 216.081L269.09 174.065L290.987 156.391L285.864 136.301Z" fill="#A77865"/>
<path d="M303.155 127.234C306.431 134.157 303.939 148.736 297.893 153.882C291.495 159.171 284.732 164.005 277.654 168.347L266.624 153.932C266.624 153.932 278.362 142.506 285.471 135.923C290.306 131.25 296.492 128.21 303.155 127.234Z" fill="#CFB3FF"/>
<path opacity="0.4" d="M303.155 127.234C306.431 134.157 303.939 148.736 297.893 153.882C291.495 159.171 284.732 164.005 277.654 168.347L266.624 153.932C266.624 153.932 278.362 142.506 285.471 135.923C290.306 131.25 296.492 128.21 303.155 127.234Z" fill="white"/>
<path d="M319.084 128.508C321.121 134.309 328.697 136.958 332.669 137.336C335.676 137.809 338.628 136.218 339.879 133.452C339.879 133.452 335.338 131.194 335.794 128.659C336.115 127.109 336.752 125.641 337.666 124.346C338.139 123.607 338.654 122.895 339.209 122.215L331.936 106.665C330.317 113.4 325.345 126.339 319.084 128.508Z" fill="#A77865"/>
<path opacity="0.2" d="M331.646 113.84C328.18 121.407 333.075 126.615 335.795 128.608C336.117 127.058 336.754 125.59 337.667 124.295L331.646 113.84Z" fill="#263238"/>
<path d="M356.035 93.6485C356.035 93.6485 358.362 106.462 351.658 111.595C344.954 116.727 344.271 92.791 344.271 92.791L356.035 93.6485Z" fill="#A77865"/>
<path opacity="0.4" d="M356.035 93.6485C356.035 93.6485 358.362 106.462 351.658 111.595C344.954 116.727 344.271 92.791 344.271 92.791L356.035 93.6485Z" fill="#263238"/>
<path d="M332.064 122.378C335.136 126.648 340.691 128.346 345.636 126.527C348.779 125.427 351.381 123.171 352.909 120.221C353.124 119.83 353.314 119.402 353.504 118.96C356.641 111.002 357.299 91.5808 348.849 92.2997C341.867 92.8924 335.036 90.7485 331.469 96.7641C330.45 98.4755 329.852 100.403 329.723 102.389C328.964 111.671 328.079 117.056 332.064 122.378Z" fill="#A77865"/>
<path d="M343.297 106.98C343.145 107.711 343.499 108.379 343.992 108.455C344.486 108.531 344.966 107.963 345.08 107.194C345.194 106.425 344.865 105.794 344.385 105.731C343.904 105.668 343.411 106.223 343.297 106.98Z" fill="#263238"/>
<path d="M351.756 108.177C351.604 108.909 351.971 109.577 352.452 109.653C352.932 109.729 353.426 109.161 353.527 108.392C353.628 107.623 353.324 106.992 352.831 106.916C352.338 106.841 351.857 107.471 351.756 108.177Z" fill="#263238"/>
<path d="M349.014 108.165C349.584 110.571 350.482 112.887 351.683 115.05C350.536 115.645 349.185 115.705 347.99 115.214L349.014 108.165Z" fill="#8E4F42"/>
<path d="M341.068 103.877C341.225 103.924 341.395 103.88 341.51 103.764C342.296 102.957 343.415 102.565 344.534 102.704C344.774 102.752 345.008 102.601 345.065 102.364C345.118 102.133 344.973 101.903 344.741 101.85L344.723 101.847C343.329 101.643 341.921 102.111 340.929 103.108C340.758 103.284 340.758 103.562 340.929 103.738C340.969 103.79 341.015 103.837 341.068 103.877Z" fill="#263238"/>
<path d="M355.804 105.783C355.885 105.814 355.975 105.814 356.057 105.783C356.28 105.726 356.416 105.5 356.359 105.277L356.348 105.24C355.941 103.875 354.893 102.794 353.54 102.34C353.313 102.269 353.072 102.396 353.001 102.622L352.996 102.642C352.931 102.876 353.066 103.117 353.299 103.185C354.36 103.574 355.176 104.438 355.5 105.518C355.551 105.651 355.665 105.75 355.804 105.783Z" fill="#263238"/>
<path d="M342.12 115.542C342.12 115.542 343.676 118.872 346.851 118.746" stroke="#263238" stroke-width="0.5" stroke-linecap="round" stroke-linejoin="round"/>
<path d="M338.082 91.9727L338.209 96.0839C336.713 96.6256 335.89 98.2271 336.324 99.7539C337.311 103.285 334.869 108.405 332.049 110.272C332.049 110.272 332.049 108.784 330.784 109.011C329.519 109.238 329.127 116.981 331.214 120.878C331.214 120.878 326.749 116.779 325.42 108.494C324.156 100.838 324.396 95.9831 325.42 92.3132L338.082 91.9727Z" fill="#A77865"/>
<path opacity="0.4" d="M338.082 91.9727L338.209 96.0839C336.713 96.6256 335.89 98.2271 336.324 99.7539C337.311 103.285 334.869 108.405 332.049 110.272C332.049 110.272 332.049 108.784 330.784 109.011C329.519 109.238 329.127 116.981 331.214 120.878C331.214 120.878 326.749 116.779 325.42 108.494C324.156 100.838 324.396 95.9831 325.42 92.3132L338.082 91.9727Z" fill="#263238"/>
<path d="M324.715 96.9032C329.23 97.3437 333.785 97.067 338.212 96.0834C350.95 93.5612 356.376 98.2273 356.376 98.2273C358.161 96.6268 359.131 94.3124 359.02 91.9217C358.653 88.2644 353.556 87.6464 353.556 87.6464C353.556 87.6464 352.025 83.5225 348.648 82.2739C345.27 81.0254 341.88 84.153 341.88 84.153C341.88 84.153 337.668 80.0922 332.76 81.2524C329.355 81.949 326.903 84.9251 326.878 88.3905C326.878 88.3905 321.123 88.9707 321.25 91.9217C321.376 94.8728 324.715 96.9032 324.715 96.9032Z" fill="#263238"/>
<path d="M344.282 102.843C346.566 102.843 348.418 104.971 348.418 107.597C348.418 110.223 346.566 112.352 344.282 112.352C341.997 112.352 340.146 110.223 340.146 107.597C340.146 104.971 341.997 102.843 344.282 102.843Z" stroke="#263238" stroke-width="0.5" stroke-linecap="round" stroke-linejoin="round"/>
<path d="M358.816 108.303C358.488 110.578 356.372 112.157 354.09 111.83C351.808 111.503 350.224 109.393 350.553 107.118C350.848 105.071 352.606 103.551 354.68 103.549C357.132 103.737 358.976 105.857 358.816 108.303Z" stroke="#263238" stroke-width="0.5" stroke-linecap="round" stroke-linejoin="round"/>
<path d="M348.406 108.165C348.406 108.165 349.747 107.333 350.543 108.304" stroke="#263238" stroke-width="0.5" stroke-linecap="round" stroke-linejoin="round"/>
<path d="M340.146 107.597L332.898 106.626C331.948 106.504 330.988 106.762 330.229 107.345L329.913 107.597" stroke="#263238" stroke-width="0.5" stroke-linecap="round" stroke-linejoin="round"/>
<path d="M324.638 109.338C325.365 111.556 326.943 113.397 329.027 114.459C331.797 115.833 333.771 113.513 333.492 110.6C333.239 108.002 331.506 104.092 328.433 103.941C326.254 103.868 324.429 105.57 324.356 107.742C324.338 108.288 324.434 108.831 324.638 109.338Z" fill="#A77865"/>
<path d="M401.037 151.543C401.245 150.301 400.011 149.124 399.285 149.773C398.559 150.422 396.191 152.412 394.49 154.173C393.755 154.934 392.681 155.938 391.645 156.907C391.511 157.006 391.375 157.103 391.253 157.224L390.246 158.225C389.739 158.709 389.298 159.141 388.997 159.467L387.841 160.617C387.155 161.309 386.606 162.122 386.22 163.015L383.832 171.611L387.559 175.309C392.225 176.825 396.402 168.752 396.402 168.752L399.409 164.759C400.421 163.416 400.322 161.543 399.174 160.313L396.26 157.32L396.303 157.269C397.433 155.956 400.828 152.786 401.037 151.543Z" fill="#A77865"/>
<path opacity="0.3" d="M223.945 113.698H223.303V108.122H187.51V113.698H187.47C186.105 113.698 184.995 114.806 184.995 116.167V120.919C184.995 122.28 186.105 123.387 187.47 123.387H204.016C204.822 123.387 205.478 124.041 205.478 124.845V131.391H201.452V136.983C199.544 137.825 198.004 138.559 197.623 138.845C196.498 139.686 195.616 143.408 195.616 143.408L193.78 146.122C193.254 145.821 192.918 145.715 192.918 145.715L174.215 171.207C162.795 164.12 150.825 157.957 138.418 152.776C131.438 166.619 139.032 185.56 139.032 185.56C139.032 185.56 165.266 199.721 177.743 196.101C190.221 192.481 199.822 156.014 199.822 156.014C199.45 154.273 198.95 152.827 198.392 151.612L199.969 148.467C200.13 148.459 200.434 148.422 200.985 148.328C201.115 148.305 201.275 148.267 201.452 148.219V155.96C201.452 158.128 203.215 159.886 205.391 159.886H206.666C208.841 159.886 210.604 158.128 210.604 155.96V143.934C210.861 143.744 211.076 143.565 211.213 143.408C212.491 141.942 212.555 133.325 211.213 133.3C211.092 133.298 210.869 133.345 210.604 133.414V131.391H206.578V124.845C206.578 123.436 205.429 122.29 204.016 122.29H187.47C186.712 122.29 186.095 121.675 186.095 120.919V116.167C186.095 115.41 186.712 114.795 187.47 114.795H187.51V120.371H223.303V114.795H223.945V113.698Z" fill="black"/>
<path d="M89.304 158.28C84.7656 163.493 61.6768 207.837 66.1386 218.187C70.6004 228.537 107.599 216.607 107.599 216.607L105.387 201.987C105.387 201.987 91.0171 202.497 89.6364 201.133C88.2556 199.769 109.081 179.043 109.081 179.043L89.304 158.28Z" fill="#263238"/>
<g opacity="0.2">
<path d="M66.1409 218.281C66.6892 219.478 67.6447 220.445 68.8384 221.008L69.5799 221.34H69.6822C69.9109 221.436 70.1459 221.517 70.3853 221.582C71.4242 221.914 72.4956 222.136 73.5814 222.245L74.5147 222.334C74.9749 222.334 75.4352 222.398 75.9082 222.41H77.1866C89.569 222.53 107.609 216.724 107.626 216.611L105.415 201.991C105.415 201.991 101.684 202.123 97.8422 202.073C94.1435 202.024 90.3415 201.806 89.6641 201.137C89.3317 200.805 90.3161 199.327 91.991 197.313C96.0563 192.329 104.2 184.031 107.562 180.641L109.084 179.111L89.2807 158.373C84.7422 163.535 61.6535 207.88 66.1409 218.281Z" fill="white"/>
</g>
<path opacity="0.2" d="M96.8857 219.547L98.2698 214.116L97.2556 202.059H101.003L103.087 215.191L101.102 218.481L96.8857 219.547Z" fill="#263238"/>
<path opacity="0.2" d="M97.2538 191.274L92.6216 177.692L93.808 195.098L97.2538 191.274Z" fill="#263238"/>
<path opacity="0.2" d="M89.8233 201.33C89.8233 201.33 87.8823 206.321 83.9185 209.58C83.9185 209.58 90.2463 207.107 91.3697 201.715L89.8233 201.33Z" fill="#263238"/>
<path d="M124.123 404.413L130.515 404.515C137.022 374.039 141.625 336.323 144.488 307.873C144.936 303.412 145.345 299.193 145.767 295.254C145.933 293.381 146.099 291.583 146.253 289.85C147.02 281.297 147.531 274.554 147.864 270.323C148.094 267.263 148.209 265.581 148.209 265.581H124.967L125.184 271.457L125.951 290.844L126.028 293.062L126.514 305.872L127.319 327.681C119.38 358.399 124.123 404.413 124.123 404.413Z" fill="#E9B376"/>
<path d="M72.2202 402.782L78.523 403.967C91.1412 372.522 102.992 332.257 110.701 304.126C111.89 299.766 112.99 295.688 113.974 291.991C113.974 291.8 114.064 291.621 114.115 291.443C116.058 284.101 117.554 278.251 118.487 274.541L119.599 270.042L96.8431 266.116L95.5646 275.676L93.6597 289.697L93.289 292.45L92.0105 302.022L88.546 327.693C75.4036 356.627 72.2202 402.782 72.2202 402.782Z" fill="#E9B376"/>
<path d="M143.031 425.598C141.84 424.634 140.485 423.891 139.03 423.406C139.03 423.406 134.67 419.098 132.561 406.122L126.859 404.631C124.874 404.159 122.804 404.967 121.669 406.657C121.511 406.888 121.391 407.142 121.311 407.409C121.016 408.801 120.811 410.21 120.697 411.628C120.378 416.372 120.348 421.131 120.608 425.879H121.643L122.052 416.956C122.206 413.91 124.545 417.479 125.21 420.78C125.875 424.081 127.294 427.523 133.967 427.689C141.766 427.803 145 427.497 143.031 425.598Z" fill="#263238"/>
<path d="M121.462 406.835C121.092 403.801 120.977 398.524 120.977 398.524L133.659 399.927C133.659 399.927 132.125 405.93 133.39 410.442C126.998 408.696 121.462 406.835 121.462 406.835Z" fill="#263238"/>
<path d="M91.4345 425.598C90.2425 424.638 88.887 423.9 87.433 423.418C87.433 423.418 83.0735 419.11 80.9769 406.134L75.2622 404.643C73.2773 404.171 71.2073 404.979 70.0718 406.67C69.9144 406.9 69.7937 407.154 69.7138 407.422C69.419 408.813 69.2141 410.223 69.1002 411.641C68.7832 416.385 68.7576 421.144 69.0235 425.891H69.995L70.4042 416.969C70.5576 413.922 72.8972 417.491 73.562 420.792C74.2267 424.094 75.6458 427.535 82.332 427.701C90.1688 427.803 93.4033 427.497 91.4345 425.598Z" fill="#263238"/>
<path d="M69.8802 406.835C69.4967 403.801 69.3816 398.524 69.3816 398.524L82.0637 399.927C82.0637 399.927 80.5296 405.93 81.7952 410.442C75.4031 408.696 69.8802 406.835 69.8802 406.835Z" fill="#263238"/>
<path opacity="0.2" d="M107.596 135.605C109.066 136.65 110.731 137.391 112.492 137.785C117.67 138.983 121.211 138.103 123.525 135.733C120.426 136.497 117.162 136.228 114.231 134.968C112.037 134.161 109.594 134.396 107.596 135.605Z" fill="#263238"/>
<path d="M124.61 119.328C124.61 121.979 125.786 124.121 127.167 124.121C128.547 124.121 129.8 121.979 129.8 119.328C129.8 116.677 128.624 114.536 127.167 114.536C125.709 114.536 124.61 116.677 124.61 119.328Z" stroke="#263238" stroke-width="0.5" stroke-linecap="round" stroke-linejoin="round"/>
<path d="M107.284 135.337C107.378 135.425 107.481 135.502 107.591 135.567C109.049 136.676 110.713 137.486 112.487 137.95C117.665 139.148 121.206 138.435 123.52 136.102C126.755 132.597 127.56 126.389 127.1 118.895C127.019 115.912 126.467 112.961 125.464 110.151V110.01C125.464 109.985 125.387 109.794 125.336 109.692C124.048 106.471 121.207 104.123 117.793 103.459C116.336 103.134 114.849 102.968 113.357 102.962C98.693 102.847 96.0594 127.039 107.284 135.337Z" fill="#E9B376"/>
<path d="M106.112 148.797C105.204 152.952 110.612 154.648 110.612 154.648C119.446 150.824 121.082 146.197 121.082 146.197C113.706 142.373 115.841 131.526 115.841 131.526L114.345 132.265L103.823 134.317C103.823 134.317 106.738 139.9 107.122 141.175C109.116 147.867 106.112 148.797 106.112 148.797Z" fill="#E9B376"/>
<path d="M125.485 110.088C125.485 110.088 126.29 120.285 116.535 124.733C116.535 124.733 112.355 135.376 106.206 135.516C97.8062 135.72 90.4168 123.828 93.3189 111.706C97.1159 95.9774 121.01 94.7028 125.485 110.088Z" fill="#263238"/>
<path d="M107.595 99.2023C107.595 99.2023 117.388 96.7296 122.808 100.668C129.137 105.257 131.54 109.998 124.087 117.366C124.087 117.366 107.633 112.051 102.162 113.172C98.9634 113.815 95.8246 114.723 92.7778 115.887C91.5889 105.053 102.123 96.9845 107.595 99.2023Z" fill="#263238"/>
<path d="M121.49 119.33C121.49 119.33 118.934 131.133 122.948 141.202L119.872 141.851L119.06 138.956C118.5 139.129 118.269 142.656 117.567 142.86C110.401 144.945 97.4585 148.045 91.5877 144.873C83.4951 140.501 90.9102 125.83 91.2553 117.367C91.6005 108.903 95.2824 96.3991 107.594 99.2034C119.905 102.007 121.49 119.33 121.49 119.33Z" fill="#263238"/>
<path d="M129.435 118.577H120.036" stroke="#263238" stroke-width="0.5" stroke-linecap="round" stroke-linejoin="round"/>
<path d="M97.7695 107.622C98.7048 105.014 98.2726 101.915 96.5078 99.776C94.743 97.6368 91.6565 96.6172 89.0092 97.4574C86.3618 98.2977 84.4015 101.041 84.6433 103.801C84.8049 105.646 85.8772 107.353 87.3666 108.459C88.8559 109.566 90.7281 110.098 92.585 110.138C89.8385 112.039 86.4147 112.945 83.084 112.653C85.6497 114.625 89.0826 115.429 92.2605 114.804C90.4683 116.08 88.4804 117.082 86.3873 117.765C88.6662 118.807 91.3655 118.897 93.7091 118.009C96.0528 117.121 98.0108 115.267 99.0205 112.979L97.7695 107.622Z" fill="#263238"/>
<path d="M85.5803 318.253C78.4346 332.123 74.8117 368.004 70.9395 395.16L83.1765 397.121L99.9088 346.14L116.455 286.647L121.416 268.521L122.72 318.808C117.144 336.85 118.854 365.738 118.488 394.097L133.663 395.638L148.544 286.596C160.05 219.206 140.375 203.286 140.375 203.286L105.307 210.322C89.4291 237.242 93.2005 268.521 93.2005 268.521L85.5803 318.253Z" fill="#CFB3FF"/>
<path opacity="0.2" d="M115.52 286.533L116.453 286.647L121.414 268.522C121.414 268.522 110.777 250.41 114.101 240.978C113.628 241.64 102.173 258.58 115.52 286.533Z" fill="#263238"/>
<path opacity="0.2" d="M101.921 216.732L148.073 217.326C148.073 217.326 147.49 214.706 146.707 213.484C145.924 212.262 146.376 213.484 146.376 213.484L102.704 215.12L101.921 216.732Z" fill="#263238"/>
<path d="M203.057 135.313V119.949C203.057 118.841 202.156 117.943 201.045 117.943H184.499C183.435 117.943 182.573 117.084 182.573 116.023V111.271C182.573 110.211 183.435 109.351 184.499 109.351H220.973" stroke="#263238" stroke-miterlimit="10"/>
<path d="M184.54 115.477H220.333V103.228H184.54V115.477Z" fill="#CFB3FF"/>
<path opacity="0.3" d="M184.54 115.477H220.333V103.228H184.54V115.477Z" fill="white"/>
<path d="M203.696 154.992H202.421C200.247 154.992 198.482 153.232 198.482 151.065V126.496H207.635V151.065C207.635 153.232 205.87 154.992 203.696 154.992Z" fill="#263238"/>
<g opacity="0.3">
<path d="M184.54 108.059C185.028 107.875 185.911 108.22 186.148 108.684C186.385 109.147 186.444 109.685 186.67 110.154C187.258 111.368 189.066 111.769 190.114 110.917C190.892 110.286 191.334 109.1 192.331 108.998C193.175 108.912 193.846 109.705 194.18 110.482C194.513 111.26 194.709 112.146 195.337 112.715C195.904 113.229 196.715 113.373 197.482 113.401C198.513 113.438 199.606 113.281 200.416 112.642C201.152 112.062 201.554 111.17 201.928 110.312C202.301 109.454 202.7 108.56 203.431 107.975C204.163 107.389 205.335 107.236 205.999 107.897C206.483 108.379 206.571 109.138 206.991 109.677C207.386 110.184 208.076 110.444 208.709 110.323C209.342 110.203 209.887 109.707 210.066 109.09C210.212 108.585 210.158 107.968 210.555 107.624C211.109 107.144 212.02 107.697 212.24 108.395C212.46 109.092 212.278 109.846 212.32 110.576C212.384 111.671 213.032 112.755 214.044 113.183C215.057 113.612 216.389 113.25 216.917 112.288C217.395 111.418 217.181 110.288 217.684 109.433C218.133 108.67 219.409 108.047 220.244 108.345L220.328 103.228H184.534L184.54 108.059Z" fill="white"/>
</g>
<path d="M135.443 147.881C135.443 147.881 123.745 143.725 106.116 148.798C88.4858 153.871 87.821 161.353 87.821 161.353C87.821 161.353 98.9946 186.604 100.759 215.193L146.706 213.486C146.706 213.486 152.191 173.131 135.443 147.881Z" fill="#263238"/>
<path opacity="0.2" d="M87.821 161.354C87.821 161.354 98.9946 186.604 100.759 215.194L146.706 213.486C147.255 208.832 147.537 204.151 147.55 199.465C147.641 192.606 147.213 185.751 146.271 178.956C144.737 168.377 141.58 157.084 135.443 147.83C135.443 147.83 123.745 143.674 106.116 148.747C88.4858 153.82 87.821 161.354 87.821 161.354Z" fill="white"/>
<path opacity="0.2" d="M136.079 180.729C136.079 180.729 137.984 192.353 147.585 199.517C147.675 192.658 147.248 185.802 146.306 179.008L136.079 180.729Z" fill="#263238"/>
<path d="M186.848 147.079L192.639 138.514C192.639 138.514 193.521 134.792 194.646 133.95C195.771 133.109 206.894 128.38 208.236 128.406C209.578 128.431 209.514 137.048 208.236 138.514C206.958 139.979 199.875 143.115 198.008 143.434C196.142 143.752 197.062 143.434 197.062 143.434L191.949 153.631L186.848 147.079Z" fill="#E9B376"/>
<path d="M135.442 147.881C147.849 153.062 159.819 159.225 171.238 166.312L189.942 140.82C189.942 140.82 194.979 142.375 196.846 151.119C196.846 151.119 187.245 187.586 174.767 191.206C162.289 194.826 136.056 180.665 136.056 180.665C136.056 180.665 128.462 161.724 135.442 147.881Z" fill="#263238"/>
<path opacity="0.2" d="M135.442 147.881C147.849 153.062 159.819 159.225 171.238 166.312L189.942 140.82C189.942 140.82 194.979 142.375 196.846 151.119C196.846 151.119 187.245 187.586 174.767 191.206C162.289 194.826 136.056 180.665 136.056 180.665C136.056 180.665 128.462 161.724 135.442 147.881Z" fill="white"/>
<path opacity="0.2" d="M103.854 178.749C103.854 178.749 109.068 180.599 113.735 175.829C118.402 171.06 121.065 155.933 121.065 155.933L103.854 178.749Z" fill="#263238"/>
<path d="M123.526 146.227C123.526 146.227 118.947 177.406 104.151 178.749C89.3546 180.091 82.725 155.402 85.2275 152.484C87.7302 149.566 106.71 146.008 123.526 146.227Z" fill="#263238"/>
<path opacity="0.3" d="M123.526 146.227C123.526 146.227 118.947 177.406 104.151 178.749C89.3546 180.091 82.725 155.402 85.2275 152.484C87.7302 149.566 106.71 146.008 123.526 146.227Z" fill="white"/>
<path d="M121.495 121.788C121.495 120.195 120.216 117.505 117.659 117.875C115.103 118.244 113.645 124.592 119.986 126.007C120.945 126.211 121.495 125.14 121.495 121.788Z" fill="#E9B376"/>
<path opacity="0.2" d="M171.235 166.311C171.235 166.311 175.595 169.325 175.956 170.695C175.956 170.695 175.748 167.063 172.128 165.094L171.235 166.311Z" fill="#263238"/>
</svg>
