<svg width="312" height="239" viewBox="0 0 312 239" fill="none" xmlns="http://www.w3.org/2000/svg">
<path d="M100.785 67.725C82.7682 69.1837 65.394 72.2894 49.985 77.1608C31.8236 82.9023 13.2673 91.8469 18.748 103.546C28.8666 125.145 77.4072 125.539 67.7153 140.061C56.7373 156.511 64.0995 175.807 113.36 181.173C206.923 191.365 320.027 131.731 288.261 98.9624C268.484 78.5621 196.453 59.9797 100.785 67.725Z" fill="#CFB3FF"/>
<path opacity="0.9" d="M100.785 67.725C82.7682 69.1837 65.394 72.2894 49.985 77.1608C31.8236 82.9023 13.2673 91.8469 18.748 103.546C28.8666 125.145 77.4072 125.539 67.7153 140.061C56.7373 156.511 64.0995 175.807 113.36 181.173C206.923 191.365 320.027 131.731 288.261 98.9624C268.484 78.5621 196.453 59.9797 100.785 67.725Z" fill="white"/>
<path d="M312 217.547C312 219.283 242.156 220.69 156 220.69C69.8435 220.69 0 219.283 0 217.547C0 215.812 69.8436 214.405 156 214.405C242.156 214.405 312 215.812 312 217.547Z" fill="#F5F5F5"/>
<path d="M233.762 26.9287H76.3949C72.0074 26.9287 68.4507 30.486 68.4507 34.8741V141.438C68.4507 145.826 72.0074 149.383 76.3949 149.383H233.762C238.15 149.383 241.707 145.826 241.707 141.438V34.8741C241.707 30.486 238.15 26.9287 233.762 26.9287Z" fill="#CFB3FF"/>
<path opacity="0.8" d="M233.762 26.9614H76.395C72.0075 26.9614 68.4507 30.5187 68.4507 34.9069V141.47C68.4507 145.858 72.0075 149.416 76.395 149.416H233.762C238.15 149.416 241.707 145.858 241.707 141.47V34.9069C241.707 30.5187 238.15 26.9614 233.762 26.9614Z" fill="white"/>
<path d="M76.4938 26.9287H233.806C238.166 26.9287 241.707 30.4694 241.707 34.8305V42.3339H68.4507V34.973C68.4507 30.5332 72.0547 26.9287 76.4938 26.9287Z" fill="#CFB3FF"/>
<path d="M79.7486 37.4115C81.0903 37.4115 82.1779 36.3237 82.1779 34.9819C82.1779 33.64 81.0903 32.5522 79.7486 32.5522C78.407 32.5522 77.3193 33.64 77.3193 34.9819C77.3193 36.3237 78.407 37.4115 79.7486 37.4115Z" fill="white"/>
<path d="M85.611 37.4115C86.9527 37.4115 88.0403 36.3237 88.0403 34.9819C88.0403 33.64 86.9527 32.5522 85.611 32.5522C84.2694 32.5522 83.1818 33.64 83.1818 34.9819C83.1818 36.3237 84.2694 37.4115 85.611 37.4115Z" fill="white"/>
<path d="M94.0804 34.9819C94.0804 36.3237 92.9927 37.4115 91.6511 37.4115C90.3095 37.4115 89.2218 36.3237 89.2218 34.9819C89.2218 33.64 90.3094 32.5522 91.6511 32.5522C92.9928 32.5522 94.0804 33.64 94.0804 34.9819Z" fill="white"/>
<path d="M138.414 49.8013H83.7792C82.811 49.8013 82.0261 50.5863 82.0261 51.5546V98.7555C82.0261 99.7239 82.811 100.509 83.7792 100.509H138.414C139.382 100.509 140.167 99.7239 140.167 98.7555V51.5546C140.167 50.5863 139.382 49.8013 138.414 49.8013Z" fill="#CFB3FF"/>
<path opacity="0.2" d="M82.0255 92.3507L97.0774 77.5634C98.48 76.1855 100.61 75.8678 102.354 76.7765L114.3 83.0031L124.926 71.4685C126.791 69.4446 129.921 69.255 132.016 71.0392L140.166 77.9794V97.3027C139.919 99.0947 137.906 100.509 136.694 100.509H85.7427C80.9303 100.509 81.8016 93.6405 82.0255 92.3507Z" fill="black"/>
<path opacity="0.2" d="M120.888 64.1921C120.888 67.6627 118.139 70.4762 114.75 70.4762C111.36 70.4762 108.611 67.6627 108.611 64.1921C108.611 60.7212 111.36 57.9077 114.75 57.9077C118.139 57.9077 120.888 60.7212 120.888 64.1921Z" fill="black"/>
<path d="M140.165 107.275H84.0244V111.707H140.165V107.275Z" stroke="#CFB3FF" stroke-width="0.5" stroke-miterlimit="10"/>
<path d="M140.165 115.565H84.0244V119.996H140.165V115.565Z" stroke="#CFB3FF" stroke-width="0.5" stroke-miterlimit="10"/>
<path d="M140.165 123.698H84.0244V128.129H140.165V123.698Z" stroke="#CFB3FF" stroke-width="0.5" stroke-miterlimit="10"/>
<path d="M140.165 131.988H84.0244V136.419H140.165V131.988Z" stroke="#CFB3FF" stroke-width="0.5" stroke-miterlimit="10"/>
<path d="M189.664 52.2686H164.816C163.848 52.2686 163.063 53.0536 163.063 54.0219V75.2446C163.063 76.213 163.848 76.998 164.816 76.998H189.664C190.632 76.998 191.417 76.213 191.417 75.2446V54.0219C191.417 53.0536 190.632 52.2686 189.664 52.2686Z" stroke="#CFB3FF" stroke-width="0.5" stroke-miterlimit="10"/>
<path d="M163.062 73.02L170.403 65.8084C171.087 65.1364 172.126 64.9814 172.976 65.4246L178.802 68.4613L183.984 62.836C184.893 61.8489 186.42 61.7565 187.442 62.6266L191.416 66.0113V75.435C191.296 76.3089 190.314 76.9985 189.723 76.9985H164.875C162.528 76.9985 162.953 73.649 163.062 73.02Z" stroke="#CFB3FF" stroke-width="0.5" stroke-miterlimit="10"/>
<path d="M180.654 59.2875C180.654 60.9801 179.313 62.3521 177.66 62.3521C176.007 62.3521 174.667 60.9801 174.667 59.2875C174.667 57.5948 176.007 56.2227 177.66 56.2227C179.313 56.2227 180.654 57.5948 180.654 59.2875Z" stroke="#CFB3FF" stroke-width="0.5" stroke-miterlimit="10"/>
<path d="M179.955 80.439H164.157V83.8492H179.955V80.439Z" stroke="#CFB3FF" stroke-width="0.5" stroke-miterlimit="10"/>
<path d="M192.425 88.9473H164.157V92.3576H192.425V88.9473Z" stroke="#CFB3FF" stroke-width="0.5" stroke-miterlimit="10"/>
<path d="M192.425 95.3062H164.157V98.7164H192.425V95.3062Z" stroke="#CFB3FF" stroke-width="0.5" stroke-miterlimit="10"/>
<path d="M180.637 101.975H164.157V105.385H180.637V101.975Z" stroke="#CFB3FF" stroke-width="0.5" stroke-miterlimit="10"/>
<path d="M227.059 52.2681H202.211C201.243 52.2681 200.458 53.0531 200.458 54.0214V75.2442C200.458 76.2125 201.243 76.9975 202.211 76.9975H227.059C228.027 76.9975 228.812 76.2125 228.812 75.2442V54.0214C228.812 53.0531 228.027 52.2681 227.059 52.2681Z" stroke="#CFB3FF" stroke-width="0.5" stroke-miterlimit="10"/>
<path d="M200.457 73.0195L207.797 65.8079C208.481 65.1359 209.52 64.9809 210.371 65.4241L216.197 68.4608L221.379 62.8355C222.288 61.8485 223.815 61.756 224.837 62.6261L228.811 66.0108V75.4345C228.691 76.3084 227.709 76.998 227.118 76.998H202.27C199.923 76.998 200.348 73.6485 200.457 73.0195Z" stroke="#CFB3FF" stroke-width="0.5" stroke-miterlimit="10"/>
<path d="M218.049 59.287C218.049 60.9796 216.708 62.3517 215.055 62.3517C213.402 62.3517 212.062 60.9796 212.062 59.287C212.062 57.5943 213.402 56.2222 215.055 56.2222C216.708 56.2222 218.049 57.5943 218.049 59.287Z" stroke="#CFB3FF" stroke-width="0.5" stroke-miterlimit="10"/>
<path d="M217.351 80.4385H201.553V83.8487H217.351V80.4385Z" stroke="#CFB3FF" stroke-width="0.5" stroke-miterlimit="10"/>
<path d="M229.82 88.9478H201.553V92.358H229.82V88.9478Z" stroke="#CFB3FF" stroke-width="0.5" stroke-miterlimit="10"/>
<path d="M229.82 95.3057H201.553V98.716H229.82V95.3057Z" stroke="#CFB3FF" stroke-width="0.5" stroke-miterlimit="10"/>
<path d="M218.032 101.975H201.553V105.385H218.032V101.975Z" stroke="#CFB3FF" stroke-width="0.5" stroke-miterlimit="10"/>
<path d="M229.82 114.944H162.402V118.279H229.82V114.944Z" stroke="#CFB3FF" stroke-width="0.5" stroke-miterlimit="10"/>
<path d="M229.82 120.628H162.402V138.962H229.82V120.628Z" stroke="#CFB3FF" stroke-width="0.5" stroke-miterlimit="10"/>
<path d="M184.279 147.201C177.127 155.568 175.039 167.952 179.05 178.202C183.508 174.223 186.647 168.158 186.845 162.854C187.044 157.549 185.656 152.328 184.279 147.201Z" fill="#CFB3FF"/>
<path d="M183.03 179.17C180.603 182.888 179.442 187.417 179.778 191.845C183.645 190.498 187.053 186.131 189.096 182.583C191.139 179.035 192.282 175.05 193.321 171.09C189.133 172.564 185.456 175.451 183.03 179.17Z" fill="#CFB3FF"/>
<path d="M182.095 161.8C179.224 172.129 177.758 182.84 177.766 193.562C177.768 196.614 177.892 199.664 178.13 202.707C178.149 202.952 178.534 202.954 178.514 202.707C177.679 192.011 178.299 181.214 180.376 170.688C180.959 167.734 181.659 164.804 182.466 161.902C182.532 161.664 182.161 161.562 182.095 161.8Z" fill="#263238"/>
<path d="M178.3 195.354C181.236 188.369 185.093 181.829 189.55 175.711C189.696 175.511 189.362 175.319 189.218 175.517C184.74 181.664 180.88 188.234 177.93 195.252C177.834 195.479 178.206 195.579 178.3 195.354Z" fill="#263238"/>
<path d="M174.093 184.963C176.116 188.064 177.085 191.84 176.804 195.532C173.58 194.41 170.738 190.768 169.034 187.81C167.331 184.851 166.378 181.529 165.511 178.227C169.003 179.456 172.07 181.863 174.093 184.963Z" fill="#CFB3FF"/>
<path d="M178.213 197.968C175.801 192.235 172.621 186.923 168.964 181.903C168.82 181.705 168.486 181.897 168.632 182.097C172.268 187.088 175.445 192.37 177.843 198.07C177.937 198.295 178.309 198.196 178.213 197.968Z" fill="#263238"/>
<path d="M178.313 199.914C182.863 195.233 187.507 190.646 192.057 185.965C192.229 185.788 191.958 185.516 191.785 185.694C187.235 190.374 182.591 194.961 178.041 199.642C177.869 199.82 178.14 200.092 178.313 199.914Z" fill="#263238"/>
<path d="M192.196 183.783C188.25 187.59 184.654 191.76 181.469 196.225L182.191 196.225C185.195 196.084 188.111 194.602 189.996 192.258C191.881 189.914 192.703 186.748 192.196 183.783Z" fill="#CFB3FF"/>
<path d="M173.474 174.727C175.169 177.499 176.765 180.33 178.261 183.214C178.375 183.433 178.707 183.239 178.593 183.02C177.097 180.136 175.5 177.305 173.806 174.533C173.677 174.323 173.345 174.516 173.474 174.727Z" fill="#263238"/>
<path d="M169.427 160.709C168.78 163.617 168.14 167.397 168.133 170.425C168.126 173.453 169.05 176.407 170.77 178.435C172.49 180.464 175.963 181.353 177.363 180.192L169.427 160.709Z" fill="#CFB3FF"/>
<path d="M186.579 201.233H169.338V204.429H186.579V201.233Z" fill="#263238"/>
<path d="M183.788 215.815H173.081L171.136 203.697H185.325L183.788 215.815Z" fill="#263238"/>
<path opacity="0.2" d="M171.261 204.489H185.222L185.048 205.861H171.481L171.261 204.489Z" fill="black"/>
<path d="M285.052 89.6151C289.057 85.1399 288.676 78.2654 284.201 74.2605C279.727 70.2555 272.853 70.6366 268.849 75.1118C265.757 78.5667 265.291 83.447 267.292 87.3377L266.122 90.3866L269.572 90.3395C269.616 90.3806 269.655 90.4258 269.7 90.4665C274.174 94.4714 281.048 94.0902 285.052 89.6151Z" fill="#CFB3FF"/>
<path d="M283.095 71.5532C286.257 73.1341 288.516 76.3946 288.885 79.9108" stroke="#CFB3FF" stroke-width="0.5" stroke-linecap="round" stroke-linejoin="round"/>
<path d="M288.996 81.5288C289.092 82.0594 289.077 82.6099 288.952 83.1345" stroke="#CFB3FF" stroke-width="0.5" stroke-linecap="round" stroke-linejoin="round"/>
<path d="M276.734 86.9931L271.75 83.2818L273.045 81.5427L276.387 84.0313L280.978 78.5532L282.639 79.9461L276.734 86.9931Z" fill="white"/>
<path opacity="0.3" d="M187.369 44.5907C184.672 39.7773 178.623 38.2082 173.858 41.0859C169.093 43.9636 167.417 50.1984 170.113 55.0118C170.141 55.0606 170.174 55.1037 170.202 55.1518L169.489 58.3069L172.432 57.7745C175.508 60.3002 179.945 60.7384 183.624 58.5168C188.389 55.6391 190.066 49.4042 187.369 44.5907Z" fill="black"/>
<path d="M185.053 42.3534C187.75 47.1669 186.073 53.4018 181.308 56.2794C177.63 58.5011 173.192 58.0629 170.116 55.5371L167.173 56.0695L167.886 52.9145C167.858 52.8664 167.825 52.8233 167.798 52.7745C165.101 47.9611 166.778 41.7263 171.543 38.8486C176.308 35.9709 182.357 37.54 185.053 42.3534Z" fill="white"/>
<path d="M173.994 47.3433C173.994 48.0748 173.38 48.6677 172.624 48.6677C171.868 48.6677 171.255 48.0748 171.255 47.3433C171.255 46.6119 171.868 46.019 172.624 46.019C173.38 46.019 173.994 46.6119 173.994 47.3433Z" fill="#CFB3FF"/>
<path d="M178.187 47.3433C178.187 48.0748 177.574 48.6677 176.818 48.6677C176.061 48.6677 175.448 48.0748 175.448 47.3433C175.448 46.6119 176.061 46.019 176.818 46.019C177.574 46.019 178.187 46.6119 178.187 47.3433Z" fill="#CFB3FF"/>
<path d="M182.38 47.3433C182.38 48.0748 181.767 48.6677 181.01 48.6677C180.254 48.6677 179.641 48.0748 179.641 47.3433C179.641 46.6119 180.254 46.019 181.01 46.019C181.767 46.019 182.38 46.6119 182.38 47.3433Z" fill="#CFB3FF"/>
<path d="M54.1744 17.751H9.93427C7.89026 17.751 6.23328 19.4082 6.23328 21.4525V62.0876C6.23328 64.1319 7.89026 65.7891 9.93427 65.7891H29.7321C31.819 67.8529 36.595 72.6874 36.595 72.6874V65.7891H54.1744C56.2183 65.7891 57.8753 64.1319 57.8753 62.0876V21.4525C57.8753 19.4082 56.2183 17.751 54.1744 17.751Z" fill="#CFB3FF"/>
<path opacity="0.8" d="M54.1744 17.751H9.93427C7.89026 17.751 6.23328 19.4082 6.23328 21.4525V62.0876C6.23328 64.1319 7.89026 65.7891 9.93427 65.7891H29.7321C31.819 67.8529 36.595 72.6874 36.595 72.6874V65.7891H54.1744C56.2183 65.7891 57.8753 64.1319 57.8753 62.0876V21.4525C57.8753 19.4082 56.2183 17.751 54.1744 17.751Z" fill="white"/>
<path d="M31.0698 23.7391C31.9234 22.8548 35.1943 24.628 38.3757 27.6996C41.5571 30.7713 43.4442 33.9781 42.5907 34.8624C41.7371 35.7467 38.4662 33.9735 35.2848 30.9019C32.1034 27.8303 30.2163 24.6234 31.0698 23.7391Z" fill="#263238"/>
<path d="M35.2896 30.9086C32.1096 27.8374 30.2202 24.6327 31.0739 23.7466L21.0039 34.1943C20.1503 35.0764 22.0356 38.2852 25.2196 41.3564C28.4037 44.4276 31.6686 46.212 32.502 45.3138L42.576 34.8701C41.7385 35.7522 38.4695 33.9798 35.2896 30.9086Z" fill="#CFB3FF"/>
<path opacity="0.6" d="M35.2896 30.9086C32.1096 27.8374 30.2202 24.6327 31.0739 23.7466L21.0039 34.1943C20.1503 35.0764 22.0356 38.2852 25.2196 41.3564C28.4037 44.4276 31.6686 46.212 32.502 45.3138L42.576 34.8701C41.7385 35.7522 38.4695 33.9798 35.2896 30.9086Z" fill="white"/>
<path d="M49.6725 31.4021C47.7791 34.8092 44.8661 35.8005 41.5324 35.0438H41.5082C40.0719 34.7525 37.6606 33.1906 35.2898 30.9044C34.0776 29.7519 32.9925 28.4727 32.0532 27.0886C32.1422 25.9112 33.7322 24.936 35.1361 24.7984C36.985 24.6123 39.372 24.9967 41.7145 28.2419C44.5223 32.1345 47.4676 31.479 47.8924 30.0384C48.6287 27.5135 51.3799 28.3349 49.6725 31.4021ZM47.0023 29.0147C47.1116 27.9586 46.2134 27.5418 46.2822 28.5615C46.351 29.5812 46.9255 29.7755 47.0023 29.0147ZM49.1344 34.1132C49.9153 33.8825 49.9031 33.1299 49.2073 33.4738C48.5114 33.8178 48.5721 34.275 49.1344 34.1132Z" fill="#CFB3FF"/>
<path d="M24.6121 49.5825C26.4822 51.4871 26.5075 54.4951 24.6687 56.3011C22.8299 58.1071 19.8233 58.0272 17.9532 56.1226C16.0832 54.218 16.0578 51.2099 17.8966 49.404C19.7354 47.598 22.7421 47.6779 24.6121 49.5825ZM29.5231 49.9119C27.6843 51.7179 27.7097 54.7259 29.5797 56.6305C31.4498 58.5351 34.4564 58.6151 36.2952 56.809C38.134 55.003 38.1087 51.995 36.2386 50.0904C34.3686 48.1858 31.3619 48.1059 29.5231 49.9119ZM44.4637 58.1107C46.9728 58.2223 49.0973 56.2783 49.2088 53.7688C49.2123 53.6902 49.2138 53.6114 49.2132 53.5326C49.1935 50.8885 47.105 48.724 44.4637 48.6102C41.9545 48.4986 39.8301 50.4426 39.7185 52.9521C39.715 53.0307 39.7136 53.1095 39.7141 53.1883C39.7338 55.8323 41.8223 57.9969 44.4637 58.1107ZM27.0401 52.8524C27.0401 49.6775 24.4572 47.0942 21.2827 47.0942C18.1082 47.0942 15.5254 49.6775 15.5254 52.8524C15.5254 56.0276 18.1082 58.6109 21.2827 58.6109C24.4572 58.6109 27.0401 56.0276 27.0401 52.8524ZM26.7839 52.8524C26.7839 55.8863 24.3161 58.3546 21.2827 58.3546C18.2493 58.3546 15.7816 55.8863 15.7816 52.8524C15.7816 49.8186 18.2493 47.3505 21.2827 47.3505C24.3161 47.3505 26.7839 49.8186 26.7839 52.8524Z" fill="#CFB3FF"/>
<path d="M233.782 172.231H285.885C286.852 172.231 287.638 173.017 287.638 173.985V213.315C287.638 214.887 286.362 216.164 284.79 216.164H233.782C232.814 216.164 232.028 215.378 232.028 214.41V173.985C232.028 173.017 232.814 172.231 233.782 172.231Z" fill="#CFB3FF"/>
<path opacity="0.7" d="M250.005 194.196V185.002C250.005 184.074 251.009 183.494 251.813 183.958L259.774 188.555L267.735 193.152C268.539 193.616 268.539 194.776 267.735 195.24L259.774 199.837L251.813 204.434C251.009 204.898 250.005 204.318 250.005 203.39V194.196Z" fill="white"/>
<path opacity="0.3" d="M277.571 172.228H285.964C286.888 172.228 287.638 172.978 287.638 173.903V213.355C287.638 214.905 286.38 216.164 284.83 216.164H277.571V172.228Z" fill="black"/>
<path opacity="0.3" d="M244.79 212.654C244.79 212.654 247.228 211.586 247.189 211.739C247.15 211.892 243.391 195.381 242.057 189.332C240.723 183.282 238.313 174.964 238.313 174.964L257.761 172.299C257.761 172.299 228.499 169.796 229.003 170.174C229.366 170.446 234.691 197.83 239.156 210.072C240.892 214.831 244.79 212.654 244.79 212.654Z" fill="black"/>
<path d="M216.081 188.592L210.424 198.936L205.487 197.468L209.974 185.462L216.081 188.592Z" fill="#E9B376"/>
<path d="M209.163 204.51L205.633 203.759C205.633 203.759 205.431 203.037 204.686 202.856C204.268 202.755 203.158 203.13 203.158 203.13L193.432 201.137C193.435 201.123 193.567 200.47 193.734 200.204C193.938 199.879 194.151 199.613 194.371 199.396C195.14 198.638 196.316 198.484 197.189 198.401C198.653 198.261 202.881 197.141 202.881 197.141C202.881 197.141 203.977 196.747 204.883 195.505C205.389 194.812 206.061 194.464 206.494 194.497C207.376 194.565 207.744 195.171 207.699 195.995L207.645 196.952C208.194 197.598 209.062 197.75 209.857 197.268C209.857 197.268 211.903 196.571 211.609 197.467C211.441 197.978 210.605 200.235 209.998 202.037C209.856 202.458 209.722 202.855 209.605 203.204L209.604 203.204C209.343 203.978 209.163 204.51 209.163 204.51Z" fill="#263238"/>
<path d="M200.622 197.656C200.674 197.625 200.742 197.635 200.786 197.677C200.988 197.871 201.14 198.115 201.218 198.397C201.259 198.546 201.021 198.631 200.98 198.48C200.91 198.229 200.778 198.014 200.602 197.845C200.543 197.788 200.55 197.698 200.62 197.657L200.622 197.656Z" fill="#CFB3FF"/>
<path d="M201.454 197.405C201.506 197.375 201.574 197.385 201.618 197.427C201.819 197.62 201.971 197.864 202.05 198.147C202.091 198.296 201.853 198.38 201.811 198.23C201.742 197.979 201.609 197.763 201.433 197.594C201.374 197.538 201.382 197.447 201.452 197.407L201.454 197.405Z" fill="#CFB3FF"/>
<path d="M202.305 197.188C202.356 197.158 202.424 197.168 202.468 197.21C202.67 197.403 202.822 197.647 202.9 197.929C202.942 198.078 202.704 198.163 202.662 198.013C202.592 197.762 202.46 197.546 202.284 197.377C202.225 197.32 202.233 197.23 202.302 197.189L202.305 197.188Z" fill="#CFB3FF"/>
<path d="M202.372 197.318C202.47 196.987 202.569 196.654 202.608 196.31C202.647 195.967 202.624 195.609 202.485 195.293C202.42 195.145 202.311 194.996 202.152 194.973C201.985 194.949 201.832 195.078 201.743 195.222C201.572 195.498 201.548 195.848 201.63 196.163C201.711 196.478 202.166 197.067 202.372 197.318Z" stroke="#CFB3FF" stroke-width="0.25" stroke-miterlimit="10"/>
<path d="M202.413 197.327C202.609 197.043 202.808 196.757 203.051 196.511C203.294 196.266 203.588 196.061 203.922 195.971C204.077 195.93 204.262 195.921 204.379 196.031C204.502 196.146 204.498 196.346 204.441 196.505C204.333 196.812 204.074 197.05 203.778 197.183C203.482 197.317 202.738 197.33 202.413 197.327Z" stroke="#CFB3FF" stroke-width="0.25" stroke-miterlimit="10"/>
<path d="M239.458 196.178L242.04 207.682L237.363 209.84L232.805 197.862L239.458 196.178Z" fill="#E9B376"/>
<path d="M244.774 212.7L241.626 214.468C241.626 214.468 240.998 214.059 240.32 214.415C239.938 214.614 239.352 215.63 239.352 215.63L230.734 220.557C230.726 220.544 230.394 219.967 230.344 219.657C230.283 219.278 230.267 218.938 230.288 218.63C230.365 217.552 231.147 216.659 231.748 216.02C232.755 214.949 235.191 211.315 235.191 211.315C235.191 211.315 235.753 210.296 235.614 208.765C235.536 207.91 235.811 207.204 236.158 206.944C236.864 206.412 237.542 206.624 238.052 207.273L238.643 208.027C239.482 208.149 240.234 207.691 240.513 206.803C240.513 206.803 241.589 204.929 241.96 205.795C242.171 206.29 243.033 208.537 243.767 210.292C243.938 210.701 244.1 211.088 244.243 211.427L244.242 211.428C244.558 212.181 244.774 212.7 244.774 212.7Z" fill="#263238"/>
<path d="M233.831 213.194C233.85 213.137 233.908 213.1 233.968 213.102C234.247 213.114 234.523 213.197 234.768 213.357C234.897 213.442 234.775 213.663 234.644 213.577C234.426 213.435 234.184 213.36 233.94 213.35C233.859 213.346 233.805 213.273 233.83 213.197L233.831 213.194Z" fill="#CFB3FF"/>
<path d="M234.294 212.456C234.313 212.399 234.37 212.361 234.431 212.364C234.71 212.376 234.985 212.459 235.231 212.619C235.36 212.703 235.237 212.924 235.107 212.839C234.888 212.696 234.647 212.622 234.403 212.611C234.321 212.608 234.267 212.535 234.293 212.458L234.294 212.456Z" fill="#CFB3FF"/>
<path d="M234.788 211.731C234.807 211.674 234.865 211.636 234.926 211.639C235.204 211.65 235.48 211.734 235.725 211.894C235.854 211.978 235.732 212.199 235.601 212.114C235.383 211.971 235.141 211.897 234.897 211.886C234.816 211.883 234.762 211.81 234.787 211.733L234.788 211.731Z" fill="#CFB3FF"/>
<path opacity="0.2" d="M240.32 214.416C239.939 214.616 239.353 215.631 239.353 215.631L230.734 220.558C230.727 220.545 230.395 219.968 230.345 219.658C230.317 219.484 230.3 219.32 230.291 219.162L244.164 211.239C244.19 211.301 244.219 211.369 244.244 211.428L244.243 211.429C244.559 212.182 244.775 212.701 244.775 212.701L241.627 214.469C241.627 214.469 240.999 214.06 240.32 214.416Z" fill="white"/>
<path d="M234.927 211.786C234.782 211.472 234.636 211.156 234.439 210.872C234.241 210.588 233.988 210.335 233.674 210.19C233.528 210.122 233.348 210.081 233.213 210.169C233.072 210.262 233.043 210.459 233.07 210.626C233.124 210.946 233.338 211.225 233.607 211.408C233.875 211.591 234.606 211.733 234.927 211.786Z" stroke="#CFB3FF" stroke-width="0.25" stroke-miterlimit="10"/>
<path d="M234.962 211.764C234.922 211.421 234.882 211.076 234.903 210.731C234.924 210.386 235.009 210.037 235.2 209.75C235.29 209.616 235.422 209.487 235.583 209.492C235.752 209.498 235.88 209.651 235.943 209.808C236.064 210.109 236.027 210.459 235.893 210.755C235.758 211.051 235.208 211.552 234.962 211.764Z" stroke="#CFB3FF" stroke-width="0.25" stroke-miterlimit="10"/>
<path d="M221.217 166.534C221.403 168.378 221.802 170.898 222.283 172.688C223.591 177.741 225.083 182.601 226.96 187.621C230.59 197.538 233.523 206.738 233.523 206.738L242.742 203.973C242.742 203.973 236.646 175.279 232.535 172.346H257.744C258.215 172.346 258.686 172.314 259.152 172.251C254.811 171.689 248.045 169.013 241.767 166.337C236.22 163.967 231.032 161.596 228.221 160.702C224.781 162.172 220.953 163.641 221.217 166.534Z" fill="#263238"/>
<path opacity="0.6" d="M228.215 160.73C231.032 161.644 236.22 163.995 241.76 166.365C248.039 169.041 254.805 171.717 259.146 172.279C266.461 171.304 269.211 162.586 261.564 152.533C256.6 152.533 251.608 157.275 251.608 157.275C251.608 157.275 236.599 157.2 228.215 160.73Z" fill="black"/>
<path d="M207.686 191.604L213.782 195.296C213.782 195.296 218.868 184.613 223.731 172.563C223.25 170.773 222.915 168.947 222.729 167.103C222.465 164.211 224.761 162.172 228.201 160.736C231.019 161.65 236.207 164.001 241.747 166.371C248.025 169.047 254.791 171.723 259.133 172.285C259.631 172.352 260.133 172.388 260.636 172.393C268.98 172.393 271.859 165.078 268.493 152.668C263.528 152.668 255.028 152.133 255.028 152.133C255.028 152.133 238.624 148.191 226.819 149.532C221.072 150.209 216.419 154.52 215.306 160.2C212.265 175.265 207.686 191.604 207.686 191.604Z" fill="#263238"/>
<path d="M206.724 192.052L213.782 195.296C213.782 195.296 218.868 184.613 223.731 172.563C223.25 170.773 222.915 168.947 222.729 167.103C222.465 164.211 224.761 162.172 228.201 160.736C231.019 161.65 236.207 164.001 241.747 166.371C248.025 169.047 254.791 171.723 259.133 172.285C259.631 172.352 260.133 172.388 260.636 172.393C268.98 172.393 271.859 165.078 268.493 152.668C263.528 152.668 255.028 152.133 255.028 152.133C255.028 152.133 238.624 148.191 226.819 149.532C221.072 150.209 216.419 154.52 215.306 160.2C212.265 175.265 206.724 192.052 206.724 192.052Z" fill="#263238"/>
<path opacity="0.2" d="M221.217 166.534C221.403 168.378 221.802 170.898 222.284 172.688C223.591 177.741 225.084 182.601 226.96 187.621C230.59 197.538 233.523 206.738 233.523 206.738L242.742 203.973C242.742 203.973 236.647 175.279 232.535 172.346H257.744C258.215 172.346 258.686 172.314 259.153 172.251C254.811 171.689 248.045 169.013 241.767 166.337C236.22 163.967 231.032 161.596 228.221 160.702C224.781 162.172 220.953 163.641 221.217 166.534Z" fill="black"/>
<path d="M249.757 113.675L252.558 111.401L260.534 110.874C260.534 110.874 262.532 112.516 262.631 112.533C262.73 112.549 263.895 113.016 263.895 113.016L263.104 114.961L249.757 113.675Z" fill="#CFB3FF"/>
<path d="M242.136 125.148C242.136 125.148 237.957 138.32 237.551 139.046C236.178 141.5 227.084 145.707 227.084 145.707L222.447 144.736L219.124 147.511L221.315 149.228L223.885 148.256C225.288 148.507 226.711 148.631 228.135 148.629C230.531 148.629 242.081 145.701 244.009 142.48C245.937 139.259 246.823 124.344 246.823 124.344L242.136 125.148Z" fill="#E9B376"/>
<path d="M269.112 155.206L241.278 151.009C241.692 132.961 245.816 114.073 245.816 114.073C253.842 113.165 261.943 113.126 269.978 113.955C266.245 125.529 269.112 155.206 269.112 155.206Z" fill="#CFB3FF"/>
<path opacity="0.6" d="M266.74 154.879L241.278 151.009C241.692 132.961 245.816 114.073 245.816 114.073C253.842 113.165 261.943 113.126 269.978 113.955C266.245 125.529 266.74 154.879 266.74 154.879Z" fill="white"/>
<path d="M269.977 113.955C268.466 127.04 272.384 154.879 272.384 154.879C270.617 158.666 265.911 159.37 260.346 159.175C255.354 137.646 262.501 112.545 262.501 112.545L269.977 113.955Z" fill="#CFB3FF"/>
<path d="M245.815 114.05C242.111 123.827 239.882 150.699 239.882 150.699L242.095 151.23C244.983 118.798 251.142 112.914 251.142 112.914L245.815 114.05Z" fill="#CFB3FF"/>
<path d="M248.375 125.48L248.638 121.764C248.651 121.551 248.805 121.388 248.987 121.395L258.1 121.686L258.11 121.686C258.299 121.699 258.445 121.889 258.434 122.111L258.243 125.939L258.052 129.784L258.051 129.79C258.041 130.009 257.88 130.177 257.693 130.164L248.447 129.515L248.445 129.515C248.253 129.499 248.108 129.304 248.122 129.079L248.375 125.48Z" fill="#CFB3FF"/>
<path opacity="0.4" d="M248.375 125.48L248.638 121.764C248.651 121.551 248.805 121.388 248.987 121.395L258.1 121.686L258.11 121.686C258.299 121.699 258.445 121.889 258.434 122.111L258.243 125.939L258.052 129.784L258.051 129.79C258.041 130.009 257.88 130.177 257.693 130.164L248.447 129.515L248.445 129.515C248.253 129.499 248.108 129.304 248.122 129.079L248.375 125.48Z" fill="white"/>
<path opacity="0.2" d="M248.375 125.48C249.947 125.866 252.757 126.521 252.814 126.314C252.891 126.023 252.848 124.842 253.02 124.506C253.192 124.171 254.731 127.635 255.247 127.131C255.763 126.628 255.285 122.923 256.293 122.884C256.848 122.861 257.646 124.484 258.243 125.939L258.052 129.784L258.051 129.79C258.041 130.01 257.88 130.177 257.693 130.164L248.447 129.515L248.445 129.515C248.253 129.499 248.108 129.304 248.122 129.079L248.375 125.48Z" fill="#263238"/>
<path d="M235.687 132.184L241.278 133.754H241.726L243.695 123.502L245.816 114.089C240.529 114.808 235.687 132.184 235.687 132.184Z" fill="#CFB3FF"/>
<path d="M260.518 110.92L261.019 119.199L262.631 112.533L260.518 110.92Z" fill="#CFB3FF"/>
<path d="M233.788 149.572H251.05L251.05 149.577C251.045 150.237 250.309 150.769 249.406 150.765H235.447L235.424 150.766L235.423 150.765H221.287C220.391 150.759 219.67 150.226 219.674 149.572H233.788Z" fill="#263238"/>
<path d="M221.03 150.698H236.799C237.072 150.696 237.29 150.518 237.288 150.3C237.288 150.258 237.279 150.218 237.263 150.179L230.248 134.093C230.071 133.634 229.543 133.32 228.944 133.317H213.164C212.897 133.317 212.681 133.491 212.681 133.705C212.681 133.75 212.691 133.795 212.71 133.837L219.725 149.923C219.905 150.381 220.431 150.694 221.03 150.698Z" fill="#263238"/>
<path opacity="0.7" d="M213.164 133.317H228.943C229.543 133.32 230.071 133.634 230.248 134.093L236.999 149.572H251.051L251.051 149.578C251.047 150.237 250.311 150.769 249.407 150.766H235.448L235.425 150.766L235.424 150.766H221.288C221.004 150.764 220.741 150.704 220.51 150.609C220.143 150.485 219.85 150.24 219.725 149.923L212.71 133.837C212.691 133.795 212.681 133.75 212.681 133.705C212.681 133.491 212.897 133.317 213.164 133.317Z" fill="white"/>
<path d="M222.641 141.881C222.982 142.653 223.673 143.183 224.188 143.075C224.703 142.967 224.84 142.264 224.509 141.49C224.179 140.716 223.48 140.198 222.965 140.306C222.45 140.414 222.296 141.089 222.641 141.881Z" fill="white"/>
<g opacity="0.3">
<path d="M230.248 134.093L236.998 149.572H236.267L228.943 133.317C229.542 133.32 230.07 133.634 230.248 134.093Z" fill="black"/>
</g>
<path d="M265.949 122.714C265.949 122.714 264.846 138.887 263.543 140.29C261.34 142.662 249.277 147.801 249.277 147.801L243.832 145.891C243.45 145.766 243.028 145.834 242.717 146.072L238.994 148.914L239.349 149.214C239.503 149.344 239.725 149.37 239.906 149.28L240.485 148.992L239.838 149.626L240.042 149.799C240.246 149.971 240.529 150.033 240.791 149.963L242.456 149.516L240.919 150.539C241.262 150.828 241.74 150.928 242.178 150.803L244.613 150.109C246.274 150.489 247.966 150.732 249.67 150.833C252.538 151.01 266.807 148.392 269.332 144.927C271.856 141.462 273.731 124.96 273.731 124.96L265.949 122.714Z" fill="#E9B376"/>
<path d="M269.975 113.954C269.975 113.954 274.528 114.542 274.511 119.411C274.495 123.606 272.978 134.538 272.978 134.538L263.336 132.72L265.46 120.622C265.945 117.857 267.588 115.431 269.975 113.954Z" fill="#CFB3FF"/>
<path d="M248.744 93.2613C248.938 93.0137 248.402 87.457 257.967 90.2223C265.07 92.2756 262.386 97.8442 262.386 97.8442L254.264 91.9764L248.744 93.2613Z" fill="#263238"/>
<path d="M260.326 113.504C259.619 113.091 259.528 112.776 259.302 112.039C258.715 110.137 259.346 103.647 259.346 103.647L252.254 106.563C252.254 106.563 252.309 106.722 252.391 106.991C252.616 107.742 253.071 109.342 253.208 110.68C253.295 111.513 253.257 112.247 252.978 112.62C252.688 113.004 251.846 113.525 251.31 113.705C251.31 113.705 252.209 115.641 255.387 115.393C258.564 115.146 260.326 113.504 260.326 113.504Z" fill="#E9B376"/>
<path opacity="0.2" d="M258.167 107.219C258.167 107.219 256.644 110.387 253.142 110.278C253.005 108.941 252.55 107.34 252.325 106.589C252.588 106.49 252.758 106.43 252.758 106.43L258.167 107.219Z" fill="black"/>
<path d="M249.136 92.1226C249.136 92.1226 247.071 97.9631 249.821 100.887C252.571 103.811 254.712 92.6134 254.712 92.6134L249.136 92.1226Z" fill="#263238"/>
<path d="M258.176 107.44C256.013 109.072 253.564 109.471 251.503 108.357C250.178 107.643 249.093 106.423 248.574 104.867C248.503 104.664 248.446 104.451 248.395 104.235C247.527 100.258 248.257 93.7326 252.604 92.066C255.695 90.8556 259.19 92.3816 260.399 95.4791C260.749 96.3577 260.878 97.3089 260.79 98.2533C260.445 102.642 260.702 105.534 258.176 107.44Z" fill="#E9B376"/>
<path d="M254.111 99.6018C254.134 100.06 253.854 100.432 253.547 100.425C253.24 100.419 253.009 100.036 253.016 99.5762C253.022 99.1161 253.28 98.7456 253.58 98.7525C253.879 98.7595 254.117 99.1343 254.111 99.6018Z" fill="#263238"/>
<path d="M250.084 99.5928C250.107 100.051 249.819 100.423 249.519 100.416C249.22 100.41 248.982 100.027 248.988 99.5674C248.994 99.1075 249.253 98.7369 249.552 98.7437C249.852 98.7507 250.091 99.1546 250.084 99.5928Z" fill="#263238"/>
<path d="M251.318 99.4731C250.87 100.561 250.274 101.581 249.546 102.505C250.037 102.871 250.665 103.001 251.262 102.861L251.318 99.4731Z" fill="#D58745"/>
<path d="M248.568 97.5107C248.636 97.5502 248.72 97.5504 248.788 97.5114C249.241 97.2263 249.802 97.1718 250.301 97.3641C250.405 97.4152 250.53 97.3725 250.581 97.2689C250.632 97.1652 250.59 97.0399 250.486 96.9888L250.485 96.9884C249.86 96.7291 249.148 96.7889 248.575 97.1491C248.475 97.2055 248.438 97.3327 248.494 97.4337L248.497 97.438C248.517 97.4659 248.541 97.4904 248.568 97.5107Z" fill="#263238"/>
<path d="M254.92 97.7485C254.962 97.7482 255.004 97.7343 255.038 97.7092C255.116 97.6241 255.11 97.4917 255.025 97.4137L255.022 97.4106C254.525 96.9482 253.833 96.7567 253.169 96.8973C253.058 96.9278 252.992 97.0428 253.023 97.1542C253.056 97.2641 253.169 97.3289 253.281 97.3012C253.808 97.2055 254.35 97.3648 254.741 97.7308C254.795 97.7627 254.861 97.7691 254.92 97.7485Z" fill="#263238"/>
<path d="M257.669 92.7002L257.302 94.6202C257.914 95.0015 258.248 95.7436 257.904 96.4865C257.169 98.0727 257.922 100.661 259.103 101.752C259.103 101.752 259.19 101.049 259.774 101.257C260.357 101.464 259.795 104.421 259.176 106.239C259.176 106.239 260.529 105.334 261.781 101.545C262.939 98.0399 263.254 95.0751 262.614 93.6458L257.669 92.7002Z" fill="#263238"/>
<path opacity="0.4" d="M257.669 92.7002L257.302 94.6202C257.914 95.0015 258.248 95.7436 257.904 96.4865C257.169 98.0727 257.922 100.661 259.103 101.752C259.103 101.752 259.19 101.049 259.774 101.257C260.357 101.464 259.795 104.421 259.176 106.239C259.176 106.239 260.529 105.334 261.781 101.545C262.939 98.0399 263.254 95.0751 262.614 93.6458L257.669 92.7002Z" fill="white"/>
<path d="M262.641 101.901C262.133 102.887 261.255 103.631 260.199 103.971C258.798 104.41 258.051 103.166 258.398 101.818C258.718 100.622 259.826 98.9125 261.254 99.0753C262.682 99.2382 263.249 100.682 262.641 101.901Z" fill="#E9B376"/>
<path opacity="0.1" d="M259.338 102.134C259.472 101.396 259.949 100.728 260.603 100.36C260.881 100.204 261.258 100.112 261.498 100.321" stroke="black" stroke-width="0.5" stroke-miterlimit="10"/>
<path d="M247.592 93.7051C246.78 93.8956 245.877 93.63 245.298 93.0304C246.445 92.9553 247.574 92.6074 248.565 92.0234C247.558 92.28 246.434 92.0236 245.638 91.3557C247.16 91.113 248.552 90.3785 250.002 89.8552C253.208 88.6983 256.831 88.5967 260.01 89.8274C260.76 90.1178 261.508 90.4992 262.005 91.1316C262.501 91.764 263.044 92.9645 262.615 93.6451L257.435 93.8778C256.606 92.3522 255.296 92.882 253.4 94.0143C252.633 94.4726 250.884 95.3331 250.018 95.5541C248.921 95.834 248.057 95.9617 247.382 95.9274C246.216 95.8681 245.741 95.5304 245.026 94.9941C246.088 94.5948 246.76 94.476 247.592 93.7051Z" fill="#263238"/>
<path d="M252.883 103.485C253.716 103.248 254.49 102.838 255.152 102.279C255.224 102.409 255.278 102.55 255.31 102.695C255.374 102.953 255.374 103.222 255.31 103.479C255.178 104.006 254.731 104.58 253.499 104.938C253.409 104.969 253.318 104.995 253.225 105.016C252.998 104.531 252.736 104.064 252.441 103.616C252.441 103.616 252.61 103.574 252.883 103.485Z" fill="#263238"/>
<path d="M255.131 102.279C255.204 102.409 255.257 102.55 255.289 102.695C255.031 103.153 254.263 103.548 253.105 103.895L252.863 103.485C253.696 103.248 254.469 102.838 255.131 102.279Z" fill="white"/>
<path d="M254.02 104.148C254.407 103.851 254.844 103.625 255.309 103.479C255.178 104.006 254.731 104.58 253.499 104.938C253.586 104.626 253.768 104.35 254.02 104.148Z" fill="#C15854"/>
<path opacity="0.3" d="M188.493 91.2644C188.155 91.5674 187.052 92.4969 186.26 93.3198C185.918 93.675 185.418 94.1444 184.935 94.5969C184.873 94.6432 184.81 94.6884 184.753 94.7448L184.284 95.2127C184.048 95.4386 183.842 95.6405 183.702 95.7927L183.164 96.33C182.845 96.6531 182.589 97.0329 182.409 97.45L181.326 101.361C178.835 103.817 173.451 108.858 173.139 108.665C172.933 108.537 171.951 105.688 171.048 102.955L172.697 102.367L172.42 101.554L172.128 101.662C171.583 99.6527 168.374 87.9463 167.196 86.6434L167.193 86.6465C164.977 84.0883 162.14 82.1999 158.998 81.1222C159.079 80.815 159.185 80.516 159.318 80.2284C160.604 80.8275 162.108 80.9214 163.508 80.4046C164.972 79.8908 166.183 78.8371 166.895 77.459C166.995 77.2764 167.084 77.0761 167.172 76.8698C167.517 75.9923 167.796 74.8149 167.972 73.5347C168.815 73.4249 169.519 72.7748 169.646 71.8918C169.707 70.9581 169.14 70.1353 168.31 69.8141C168.495 68.8862 168.542 67.9552 168.53 67.1641C169.347 66.4172 169.792 65.3462 169.74 64.2391C169.57 62.5306 167.196 62.242 167.196 62.242C167.196 62.242 166.483 60.3155 164.91 59.7323C163.338 59.149 161.759 60.6101 161.759 60.6101C161.759 60.6101 159.797 58.7131 157.512 59.2551C155.926 59.5805 154.784 60.9708 154.773 62.5896C154.773 62.5896 152.093 62.8605 152.152 64.2391C152.206 65.512 153.534 66.4165 153.737 66.5478C153.652 67.6783 153.692 69.023 153.905 70.6842C153.725 70.9573 153.611 71.2783 153.599 71.629C153.591 71.884 153.635 72.138 153.73 72.3749C153.901 72.8964 154.172 73.373 154.523 73.7813C154.796 74.6471 155.13 75.3744 155.459 75.9568C154.756 77.5213 153.891 79.0311 152.914 80.0752C149.164 79.9271 146.574 80.0408 144.565 80.4771C144.53 80.4845 144.496 80.4926 144.462 80.5003C144.333 80.5293 144.206 80.5597 144.082 80.5914C143.806 80.6607 143.539 80.7349 143.284 80.8178C140.352 81.34 137.637 82.7159 135.494 84.7936C132.183 87.8688 126.717 93.2063 126.717 93.2063L126.736 93.2303C124.118 95.7075 121.803 97.9811 121.248 98.7777C119.822 100.822 119.891 121.365 119.891 121.365C119.891 121.365 119.252 122.659 119.236 123.585C119.23 123.95 119.079 125.693 119.042 126.684L110.092 125.264C108.622 125.031 107.241 126.034 107.007 127.505L104.535 143.098C104.302 144.569 105.305 145.95 106.776 146.184L129.28 149.752C129.279 149.797 129.278 149.842 129.278 149.887H143.383C143.627 146.823 143.854 143.936 144.047 141.52C144.05 141.529 144.054 141.554 144.058 141.569L144.052 141.576C144.052 141.576 144.555 146.116 144.956 149.887H156.774C156.083 141.214 155.135 133.627 154.279 127.811C154.444 127.811 154.611 127.812 154.773 127.811L154.532 126.502C154.61 126.498 154.689 126.496 154.767 126.492L154.767 126.481C154.767 126.452 154.779 125.49 154.887 123.972C154.902 123.777 154.919 123.576 154.938 123.363C155.009 122.468 155.115 121.419 155.262 120.288C155.322 119.826 155.395 119.334 155.474 118.83C155.945 115.866 156.729 112.527 158.036 109.749C159.267 107.162 160.433 104.546 161.543 101.907L162.595 103.852L163.192 104.945L162.831 105.077L163.102 105.784L164.251 105.375C166.228 110.524 169.086 116.904 171.331 117.596C174.743 118.648 182.607 105.908 184.258 103.157C185.886 102.577 187.15 100.13 187.15 100.13L188.551 98.2649C189.022 97.6375 188.976 96.7625 188.441 96.188L187.084 94.7896L187.104 94.7661C187.631 94.1524 189.212 92.6718 189.309 92.0913C189.406 91.5109 188.831 90.9614 188.493 91.2644ZM132.655 102.037C132.502 102.709 132.354 103.38 132.207 104.046C132.171 104.217 132.136 104.384 132.1 104.554C129.997 114.279 128.484 123.629 128.484 123.629C128.615 123.665 128.746 123.698 128.877 123.733L128.49 125.773C128.49 125.773 128.894 125.825 129.612 125.913C129.604 126.68 129.596 127.497 129.587 128.356L124.853 127.605C124.95 127.504 125.046 127.403 125.146 127.291L126.417 127.486L123.772 122.238L127.865 102.611L131.59 99.595L131.854 99.94C132.364 99.6261 132.863 99.2967 133.366 98.972C133.124 99.9827 132.887 101.006 132.655 102.037Z" fill="black"/>
<path d="M148.084 214.246L152.695 213.833L153.581 203.893L147.42 204.727L148.084 214.246Z" fill="#A77865"/>
<path d="M153.326 210.745H151.72C151.357 210.745 151.021 210.929 150.806 211.222C149.88 212.487 149.184 212.009 148.177 210.82C147.537 210.745 147.364 211.48 147.312 211.678L146.112 216.045C146.007 216.41 146.218 216.79 146.583 216.894C146.648 216.913 146.715 216.922 146.783 216.921H159.505C161.529 216.921 161.948 214.881 161.115 214.692C157.367 213.864 154.713 212.761 153.554 211.67C153.339 211.479 153.56 211.337 153.326 210.745Z" fill="#263238"/>
<path d="M156.812 211.987C156.981 211.865 157.082 211.671 157.084 211.463C157.098 211.351 157.048 211.241 156.953 211.179C156.45 210.823 154.442 211.761 154.217 211.872C154.192 211.881 154.172 211.9 154.163 211.925C154.146 211.972 154.17 212.023 154.217 212.039C154.71 212.156 155.214 212.221 155.721 212.233C156.102 212.27 156.484 212.183 156.812 211.987ZM156.827 211.331C156.868 211.357 156.889 211.405 156.88 211.452C156.871 211.602 156.799 211.742 156.681 211.835C156.225 212.176 155.124 212.029 154.531 211.919C155.365 211.552 156.55 211.138 156.827 211.331Z" fill="#CFB3FF"/>
<path d="M154.284 212.06C154.887 211.809 156.15 210.818 156.082 210.293C156.072 210.183 155.993 210.052 155.72 210.016C154.62 209.89 154.148 211.866 154.148 211.95C154.137 211.984 154.147 212.021 154.174 212.045C154.194 212.051 154.216 212.051 154.237 212.045L154.284 212.06ZM155.684 210.178C155.888 210.199 155.888 210.272 155.888 210.299C155.946 210.618 155.028 211.442 154.373 211.788C154.509 211.326 154.913 210.173 155.61 210.173L155.684 210.178Z" fill="#CFB3FF"/>
<path d="M154.439 211.985C153.886 212.06 153.373 212.391 153.076 212.863" stroke="#CFB3FF" stroke-width="0.5" stroke-linecap="round" stroke-linejoin="round"/>
<path d="M155.439 212.735C154.886 212.811 154.373 213.141 154.076 213.614" stroke="#CFB3FF" stroke-width="0.5" stroke-linecap="round" stroke-linejoin="round"/>
<path d="M156.681 213.367C156.128 213.443 155.614 213.773 155.317 214.246" stroke="#CFB3FF" stroke-width="0.5" stroke-linecap="round" stroke-linejoin="round"/>
<path d="M125.469 214.311H129.834L131.964 204.201H125.745L125.469 214.311Z" fill="#A77865"/>
<path d="M130.758 211.376H129.153C128.789 211.376 128.453 211.56 128.238 211.854C127.312 213.118 126.616 212.64 125.609 211.451C124.969 211.376 124.796 212.111 124.744 212.309L123.544 216.676C123.439 217.041 123.651 217.421 124.015 217.526C124.08 217.544 124.147 217.553 124.215 217.552H136.938C138.961 217.552 139.38 215.512 138.547 215.324C134.799 214.495 132.145 213.392 130.986 212.302C130.771 212.111 130.992 211.968 130.758 211.376Z" fill="#263238"/>
<path d="M134.244 212.618C134.413 212.497 134.514 212.302 134.516 212.094C134.531 211.982 134.48 211.872 134.385 211.811C133.882 211.454 131.874 212.393 131.649 212.503C131.624 212.512 131.604 212.532 131.595 212.557C131.578 212.603 131.603 212.654 131.649 212.671C132.142 212.787 132.647 212.853 133.153 212.865C133.534 212.901 133.916 212.815 134.244 212.618ZM134.26 211.963C134.3 211.988 134.321 212.036 134.312 212.083C134.304 212.234 134.231 212.373 134.113 212.466C133.657 212.807 132.556 212.66 131.963 212.55C132.797 212.183 133.982 211.769 134.26 211.963Z" fill="#CFB3FF"/>
<path d="M131.716 212.692C132.319 212.44 133.582 211.449 133.514 210.925C133.504 210.815 133.425 210.684 133.152 210.647C132.052 210.521 131.58 212.498 131.58 212.582C131.569 212.615 131.579 212.653 131.606 212.676C131.627 212.682 131.648 212.682 131.669 212.676L131.716 212.692ZM133.116 210.809C133.32 210.83 133.32 210.904 133.32 210.93C133.378 211.25 132.46 212.073 131.805 212.419C131.941 211.958 132.345 210.804 133.042 210.804L133.116 210.809Z" fill="#CFB3FF"/>
<path d="M131.871 212.616C131.318 212.692 130.805 213.022 130.508 213.495" stroke="#CFB3FF" stroke-width="0.5" stroke-linecap="round" stroke-linejoin="round"/>
<path d="M132.871 213.367C132.318 213.442 131.805 213.773 131.508 214.245" stroke="#CFB3FF" stroke-width="0.5" stroke-linecap="round" stroke-linejoin="round"/>
<path d="M134.113 213.999C133.56 214.074 133.047 214.405 132.749 214.877" stroke="#CFB3FF" stroke-width="0.5" stroke-linecap="round" stroke-linejoin="round"/>
<path d="M127.105 115.396H150.272C151.653 122.955 154.763 142.6 155.166 165.57C155.442 181.339 155.811 206.841 155.166 208.206L145.939 208.237C145.939 208.237 145.544 188.54 144.321 168.969C143.617 157.701 141.724 138.646 141.489 137.971C140.694 147.927 139.325 165.837 138.53 171.475C136.515 185.349 134.114 208.471 134.114 208.471H124.493C124.493 208.471 125.236 183.792 125.99 170.16C126.815 155.343 127.105 118.436 127.105 115.396Z" fill="#263238"/>
<path opacity="0.2" d="M141.495 138.026C141.495 138.026 142.428 146.459 142.766 149.885C143.414 141.048 144.072 134.709 144.072 134.709L141.495 138.026Z" fill="#263238"/>
<path d="M180.008 96.5268C179.719 97.0099 170.984 105.364 170.583 105.116C170.182 104.869 166.86 94.3647 166.86 94.3647L159.35 95.1954C159.35 95.1954 164.952 112.869 168.775 114.047C172.598 115.226 182.015 99.0814 182.015 99.0814" fill="#A77865"/>
<path d="M126.462 119.426L125.932 122.225C125.932 122.225 142.136 124.322 152.215 124.263L151.861 122.342L126.462 119.426Z" fill="#CFB3FF"/>
<path d="M156.169 93.1579L156.852 94.4128L160.039 100.304L160.704 101.523L169.652 98.4129C169.652 98.4129 165.929 84.5214 164.639 83.0957L156.169 93.1579Z" fill="#CFB3FF"/>
<path opacity="0.4" d="M156.169 93.1579L156.852 94.4128L160.039 100.304L160.704 101.523L169.652 98.4129C169.652 98.4129 165.929 84.5214 164.639 83.0957L156.169 93.1579Z" fill="white"/>
<path opacity="0.2" d="M156.852 94.4123L160.038 100.304C162.012 96.433 161.44 91.1309 161.44 91.1309L156.852 94.4123Z" fill="#263238"/>
<path d="M164.638 83.1012C161.231 79.1666 156.359 76.8027 151.16 76.5619C142.396 76.1495 139.639 77.0214 136.435 79.8845C131.752 84.0673 125.926 120.08 125.926 120.08C134.473 122.46 143.351 123.425 152.209 122.938C152.209 122.938 152.315 112.923 155.478 106.201C159.04 98.7127 162.1 90.9958 164.638 83.1012Z" fill="#CFB3FF"/>
<path opacity="0.4" d="M125.926 120.08C134.473 122.46 143.351 123.427 152.209 122.943C152.209 122.943 152.209 121.706 152.38 119.815C152.45 118.919 152.556 117.871 152.704 116.74C152.851 115.609 153.063 114.318 153.293 113.034C153.434 112.345 153.599 111.65 153.776 110.96C154.187 109.324 154.746 107.729 155.449 106.194C155.837 105.37 156.214 104.551 156.58 103.75C157.21 102.347 157.811 100.987 158.347 99.6846C159.525 96.9452 160.526 94.4414 161.362 92.2499C161.952 90.6769 162.482 89.2689 162.912 88.0612C163.389 86.7121 163.766 85.6045 164.043 84.7798C164.402 83.6899 164.579 83.0949 164.579 83.0949C164.286 82.7285 163.971 82.3802 163.636 82.0521C160.349 78.8114 156.003 76.8659 151.396 76.5733H151.102C144.422 76.261 141.235 76.6911 138.679 78.1816C137.854 78.675 137.083 79.2514 136.376 79.9018C135.711 80.6226 135.187 81.4619 134.832 82.3761C133.744 84.9082 132.85 87.5198 132.158 90.1879L131.769 91.6194C131.18 93.8051 130.627 96.1321 130.097 98.4886C129.943 99.1603 129.796 99.8319 129.649 100.498C129.431 101.523 129.213 102.542 129.007 103.549C128.477 106.088 128 108.551 127.581 110.766C126.992 113.947 126.515 116.61 126.232 118.266C126.038 119.432 125.926 120.08 125.926 120.08ZM151.667 76.8973C152.258 76.9122 152.848 76.9575 153.434 77.0328C155.79 77.3509 159.413 79.242 159.324 80.1375C159.236 81.0329 157.858 83.3187 154.335 82.765C153.108 82.5384 151.943 82.0524 150.919 81.3393C148.975 80.055 147.561 78.3171 147.42 77.7515C147.243 77.074 149.529 76.8443 151.673 76.9091L151.667 76.8973Z" fill="white"/>
<path opacity="0.2" d="M129.649 100.515C135.209 98.2059 139.603 88.668 139.603 88.668L136.446 86.7593L132.158 90.2056L131.769 91.6372C131.18 93.8228 130.626 96.1499 130.096 98.5064C129.943 99.178 129.796 99.8496 129.649 100.515Z" fill="#263238"/>
<path d="M160.274 101.528L169.864 98.0054L170.14 98.8184L160.545 102.235L160.274 101.528Z" fill="#CFB3FF"/>
<path d="M104.45 123.956L101.978 139.549C101.745 141.02 102.748 142.401 104.219 142.635L132.805 147.168C134.275 147.401 135.657 146.398 135.89 144.927L138.362 129.334C138.595 127.863 137.592 126.482 136.121 126.249L107.535 121.715C106.065 121.482 104.684 122.486 104.45 123.956Z" fill="#CFB3FF"/>
<path d="M117.476 130.46L111.827 133.388L116.292 137.918" stroke="white" stroke-width="2" stroke-linecap="round" stroke-linejoin="round"/>
<path d="M122.871 138.961L128.514 136.033L124.055 131.503" stroke="white" stroke-width="2" stroke-linecap="round" stroke-linejoin="round"/>
<path d="M118.26 138.231L122.089 131.191" stroke="white" stroke-width="2" stroke-linecap="round" stroke-linejoin="round"/>
<path d="M133.119 81.4219C133.119 81.4219 120.115 93.1851 118.69 95.2293C117.264 97.2736 117.333 117.816 117.333 117.816C117.333 117.816 116.694 119.11 116.678 120.037C116.67 120.527 116.401 123.509 116.495 123.804C116.495 123.804 118.246 128.622 122.588 123.743L123.859 123.937L121.214 118.69L125.307 99.0629L135.504 90.8066L133.119 81.4219Z" fill="#A77865"/>
<path d="M141.17 77.1865C142.696 80.4208 141.536 87.2311 138.72 89.6347C135.741 92.1055 132.592 94.3635 129.296 96.3919L124.159 89.6582C124.159 89.6582 129.625 84.3208 132.936 81.2456C135.187 79.0626 138.068 77.6426 141.17 77.1865Z" fill="#CFB3FF"/>
<path opacity="0.4" d="M141.17 77.1865C142.696 80.4208 141.536 87.2311 138.72 89.6347C135.741 92.1055 132.592 94.3635 129.296 96.3919L124.159 89.6582C124.159 89.6582 129.625 84.3208 132.936 81.2456C135.187 79.0626 138.068 77.6426 141.17 77.1865Z" fill="white"/>
<path d="M148.588 77.7813C149.537 80.4913 153.065 81.7284 154.915 81.9051C156.315 82.126 157.689 81.383 158.272 80.0906C158.272 80.0906 156.157 79.0361 156.369 77.8519C156.519 77.1278 156.816 76.4421 157.241 75.8372C157.461 75.4917 157.701 75.1593 157.96 74.8416L154.573 67.5776C153.819 70.7236 151.504 76.768 148.588 77.7813Z" fill="#A77865"/>
<path opacity="0.2" d="M154.438 70.9297C152.824 74.4644 155.104 76.8975 156.37 77.8283C156.52 77.1042 156.817 76.4185 157.242 75.8135L154.438 70.9297Z" fill="#263238"/>
<path d="M165.795 61.4972C165.795 61.4972 166.879 67.4827 163.757 69.8805C160.635 72.2782 160.317 61.0967 160.317 61.0967L165.795 61.4972Z" fill="#A77865"/>
<path opacity="0.4" d="M165.795 61.4972C165.795 61.4972 166.879 67.4827 163.757 69.8805C160.635 72.2782 160.317 61.0967 160.317 61.0967L165.795 61.4972Z" fill="#263238"/>
<path d="M154.633 74.918C156.063 76.9129 158.65 77.7062 160.953 76.8562C162.416 76.3425 163.628 75.2887 164.34 73.9106C164.44 73.728 164.528 73.5278 164.617 73.3215C166.078 69.6042 166.384 60.5317 162.449 60.8675C159.198 61.1443 156.017 60.1428 154.356 62.9529C153.881 63.7524 153.603 64.6528 153.543 65.5804C153.189 69.9164 152.777 72.4319 154.633 74.918Z" fill="#A77865"/>
<path d="M159.864 67.7247C159.793 68.0664 159.958 68.3786 160.188 68.414C160.417 68.4493 160.641 68.1842 160.694 67.8248C160.747 67.4655 160.594 67.1709 160.37 67.1414C160.146 67.112 159.917 67.3712 159.864 67.7247Z" fill="#263238"/>
<path d="M163.803 68.2844C163.732 68.6261 163.903 68.9383 164.127 68.9736C164.351 69.009 164.58 68.7439 164.627 68.3846C164.675 68.0252 164.533 67.7306 164.303 67.6953C164.074 67.6599 163.85 67.9545 163.803 68.2844Z" fill="#263238"/>
<path d="M162.526 68.2783C162.792 69.4023 163.21 70.4846 163.769 71.495C163.235 71.7725 162.606 71.8005 162.049 71.5716L162.526 68.2783Z" fill="#8E4F42"/>
<path d="M158.826 66.2755C158.899 66.2975 158.978 66.2771 159.032 66.2225C159.397 65.8458 159.919 65.6626 160.44 65.7277C160.551 65.7498 160.661 65.6795 160.687 65.5686C160.711 65.4608 160.644 65.3534 160.536 65.3288L160.528 65.3271C159.879 65.2319 159.223 65.4505 158.761 65.9162C158.681 65.9984 158.681 66.1286 158.761 66.2108C158.779 66.235 158.801 66.2569 158.826 66.2755Z" fill="#263238"/>
<path d="M165.688 67.1657C165.726 67.1802 165.768 67.1802 165.806 67.1657C165.91 67.1393 165.973 67.0335 165.946 66.9295L165.941 66.9124C165.752 66.2748 165.264 65.7694 164.633 65.5574C164.528 65.5246 164.416 65.5837 164.383 65.6894L164.38 65.6988C164.35 65.8077 164.413 65.9207 164.521 65.9521C165.016 66.1338 165.395 66.5376 165.546 67.042C165.57 67.1041 165.623 67.1505 165.688 67.1657Z" fill="#263238"/>
<path d="M159.316 71.7251C159.316 71.7251 160.04 73.2804 161.519 73.2214" stroke="#263238" stroke-width="0.5" stroke-linecap="round" stroke-linejoin="round"/>
<path d="M157.435 60.7144L157.494 62.6349C156.798 62.8879 156.415 63.636 156.617 64.3492C157.076 65.9988 155.939 68.3906 154.626 69.2625C154.626 69.2625 154.626 68.5674 154.037 68.6734C153.448 68.7794 153.265 72.3966 154.237 74.217C154.237 74.217 152.158 72.3024 151.539 68.4318C150.95 64.8559 151.062 62.5878 151.539 60.8734L157.435 60.7144Z" fill="#A77865"/>
<path opacity="0.4" d="M157.435 60.7144L157.494 62.6349C156.798 62.8879 156.415 63.636 156.617 64.3492C157.076 65.9988 155.939 68.3906 154.626 69.2625C154.626 69.2625 154.626 68.5674 154.037 68.6734C153.448 68.7794 153.265 72.3966 154.237 74.217C154.237 74.217 152.158 72.3024 151.539 68.4318C150.95 64.8559 151.062 62.5878 151.539 60.8734L157.435 60.7144Z" fill="#263238"/>
<path d="M151.211 63.0178C153.313 63.2236 155.434 63.0943 157.496 62.6348C163.427 61.4566 165.954 63.6363 165.954 63.6363C166.785 62.8887 167.237 61.8075 167.185 60.6907C167.015 58.9823 164.641 58.6936 164.641 58.6936C164.641 58.6936 163.928 56.7672 162.355 56.1839C160.783 55.6007 159.204 57.0617 159.204 57.0617C159.204 57.0617 157.242 55.1648 154.957 55.7068C153.371 56.0322 152.229 57.4224 152.218 59.0412C152.218 59.0412 149.538 59.3122 149.597 60.6907C149.656 62.0693 151.211 63.0178 151.211 63.0178Z" fill="#263238"/>
<path d="M160.322 65.7925C161.386 65.7925 162.248 66.7869 162.248 68.0135C162.248 69.2401 161.386 70.2345 160.322 70.2345C159.258 70.2345 158.396 69.2401 158.396 68.0135C158.396 66.7869 159.258 65.7925 160.322 65.7925Z" stroke="#263238" stroke-width="0.5" stroke-linecap="round" stroke-linejoin="round"/>
<path d="M167.091 68.3431C166.938 69.4058 165.952 70.1434 164.89 69.9905C163.827 69.8376 163.09 68.852 163.243 67.7893C163.38 66.8332 164.199 66.1231 165.164 66.1221C166.306 66.21 167.165 67.2001 167.091 68.3431Z" stroke="#263238" stroke-width="0.5" stroke-linecap="round" stroke-linejoin="round"/>
<path d="M162.243 68.2786C162.243 68.2786 162.867 67.8898 163.238 68.3434" stroke="#263238" stroke-width="0.5" stroke-linecap="round" stroke-linejoin="round"/>
<path d="M158.396 68.0134L155.021 67.5598C154.579 67.5027 154.132 67.6234 153.778 67.8955L153.631 68.0134" stroke="#263238" stroke-width="0.5" stroke-linecap="round" stroke-linejoin="round"/>
<path d="M151.175 68.8267C151.513 69.8628 152.248 70.7228 153.219 71.2186C154.509 71.8607 155.428 70.7767 155.298 69.4158C155.18 68.2022 154.373 66.376 152.942 66.3052C151.927 66.2713 151.078 67.0663 151.044 68.0808C151.035 68.3358 151.08 68.5899 151.175 68.8267Z" fill="#A77865"/>
<path d="M186.751 88.5424C186.848 87.962 186.274 87.4125 185.936 87.7155C185.597 88.0185 184.495 88.9481 183.702 89.7709C183.36 90.1261 182.86 90.5955 182.378 91.048C182.315 91.0943 182.252 91.1395 182.195 91.1959L181.726 91.6638C181.49 91.8897 181.285 92.0916 181.145 92.2438L180.606 92.7812C180.287 93.1042 180.031 93.484 179.852 93.9011L178.739 97.9167L180.475 99.644C182.648 100.352 184.593 96.5812 184.593 96.5812L185.993 94.7161C186.465 94.0886 186.418 93.2136 185.884 92.6391L184.527 91.2407L184.547 91.2172C185.073 90.6035 186.654 89.1229 186.751 88.5424Z" fill="#A77865"/>
<path opacity="0.3" d="M104.285 70.8635H103.986V68.2588H87.3178V70.8635H87.2995C86.6639 70.8635 86.1467 71.381 86.1467 72.0168V74.2366C86.1467 74.8725 86.6639 75.3896 87.2995 75.3896H95.0045C95.3798 75.3896 95.6852 75.6952 95.6852 76.0705V79.1285H93.8104V81.7407C92.9216 82.134 92.2048 82.4771 92.0272 82.6104C91.5033 83.0033 91.0926 84.742 91.0926 84.742L90.2379 86.01C89.9929 85.8694 89.8364 85.8197 89.8364 85.8197L81.1266 97.7281C75.8091 94.4175 70.2347 91.5383 64.4573 89.1183C61.2067 95.5846 64.743 104.433 64.743 104.433C64.743 104.433 76.9593 111.048 82.7698 109.357C88.5802 107.666 93.0512 90.6307 93.0512 90.6307C92.8781 89.8174 92.6454 89.1423 92.3854 88.5745L93.1199 87.1053C93.1946 87.1018 93.3362 87.0842 93.5929 87.0402C93.6535 87.0299 93.7281 87.0118 93.8104 86.9894V90.6054C93.8104 91.6185 94.6315 92.4397 95.6444 92.4397H96.2384C97.2513 92.4397 98.0724 91.6185 98.0724 90.6054V84.9876C98.1919 84.899 98.2919 84.8152 98.3556 84.742C98.951 84.0572 98.9807 80.0321 98.3556 80.0202C98.2994 80.0192 98.1957 80.0414 98.0724 80.0733V79.1285H96.1976V76.0705C96.1976 75.4124 95.6625 74.8772 95.0045 74.8772H87.2995C86.9463 74.8772 86.6591 74.59 86.6591 74.2366V72.0168C86.6591 71.6634 86.9463 71.376 87.2995 71.376H87.3178V73.9808H103.986V71.376H104.285V70.8635Z" fill="black"/>
<path d="M41.5864 91.6895C39.473 94.1248 28.7212 114.84 30.7989 119.674C32.8767 124.509 50.1056 118.936 50.1056 118.936L49.0757 112.107C49.0757 112.107 42.3841 112.345 41.7411 111.708C41.0982 111.071 50.7962 101.389 50.7962 101.389L41.5864 91.6895Z" fill="#263238"/>
<g opacity="0.2">
<path d="M30.8 119.718C31.0553 120.277 31.5003 120.729 32.0561 120.992L32.4014 121.147H32.449C32.5556 121.192 32.665 121.229 32.7764 121.26C33.2603 121.415 33.7592 121.519 34.2648 121.57L34.6994 121.611C34.9137 121.611 35.128 121.641 35.3483 121.647H35.9436C41.7097 121.703 50.1104 118.991 50.1185 118.938L49.0886 112.108C49.0886 112.108 47.3515 112.17 45.5624 112.147C43.84 112.124 42.0695 112.022 41.7541 111.709C41.5993 111.555 42.0577 110.864 42.8376 109.923C44.7307 107.595 48.523 103.719 50.0888 102.135L50.7972 101.42L41.5755 91.7329C39.4621 94.1444 28.7103 114.859 30.8 119.718Z" fill="white"/>
</g>
<path opacity="0.2" d="M45.1168 120.309L45.7613 117.773L45.2891 112.14H47.034L48.0044 118.275L47.0802 119.812L45.1168 120.309Z" fill="#263238"/>
<path opacity="0.2" d="M45.2882 107.102L43.1311 100.758L43.6836 108.889L45.2882 107.102Z" fill="#263238"/>
<path opacity="0.2" d="M41.8282 111.799C41.8282 111.799 40.9243 114.131 39.0785 115.653C39.0785 115.653 42.0252 114.498 42.5483 111.979L41.8282 111.799Z" fill="#263238"/>
<path d="M57.8003 206.667L60.777 206.715C63.8072 192.478 65.9504 174.859 67.284 161.57C67.4923 159.486 67.6828 157.515 67.8793 155.675C67.9567 154.8 68.0341 153.96 68.1055 153.15C68.4628 149.155 68.7009 146.005 68.8557 144.028C68.9628 142.599 69.0164 141.813 69.0164 141.813H58.1932L58.2945 144.558L58.6516 153.615L58.6873 154.651L58.9136 160.635L59.2887 170.822C55.5916 185.172 57.8003 206.667 57.8003 206.667Z" fill="#E9B376"/>
<path d="M33.6309 205.905L36.5659 206.458C42.4418 191.769 47.9606 172.96 51.5504 159.819C52.1041 157.783 52.6161 155.877 53.0745 154.151C53.0745 154.061 53.1162 153.978 53.1399 153.895C54.0449 150.465 54.7414 147.732 55.176 145.999L55.694 143.897L45.097 142.063L44.5017 146.529L43.6146 153.079L43.442 154.365L42.8466 158.837L41.2333 170.828C35.1133 184.344 33.6309 205.905 33.6309 205.905Z" fill="#E9B376"/>
<path d="M66.6056 216.563C66.0509 216.113 65.4197 215.766 64.7422 215.539C64.7422 215.539 62.7121 213.527 61.7298 207.465L59.0746 206.769C58.1503 206.548 57.1864 206.926 56.6575 207.715C56.5843 207.823 56.528 207.942 56.4909 208.067C56.3536 208.717 56.2582 209.375 56.2051 210.038C56.0565 212.254 56.0426 214.477 56.1634 216.694H56.6457L56.8361 212.526C56.9076 211.103 57.9971 212.771 58.3066 214.313C58.6162 215.855 59.277 217.462 62.3847 217.54C66.0162 217.594 67.5224 217.451 66.6056 216.563Z" fill="#263238"/>
<path d="M56.5614 207.798C56.3887 206.381 56.3352 203.916 56.3352 203.916L62.2409 204.571C62.2409 204.571 61.5265 207.375 62.1159 209.483C59.1392 208.667 56.5614 207.798 56.5614 207.798Z" fill="#263238"/>
<path d="M42.5784 216.563C42.0233 216.115 41.3921 215.77 40.715 215.545C40.715 215.545 38.6849 213.532 37.7086 207.471L35.0474 206.774C34.1231 206.554 33.1591 206.931 32.6304 207.721C32.5571 207.829 32.5009 207.947 32.4637 208.072C32.3264 208.722 32.231 209.381 32.1779 210.043C32.0303 212.259 32.0184 214.482 32.1422 216.7H32.5946L32.7852 212.532C32.8566 211.109 33.9461 212.776 34.2557 214.318C34.5652 215.86 35.226 217.468 38.3396 217.545C41.989 217.593 43.4952 217.45 42.5784 216.563Z" fill="#263238"/>
<path d="M32.5412 207.798C32.3625 206.381 32.309 203.916 32.309 203.916L38.2147 204.571C38.2147 204.571 37.5003 207.375 38.0896 209.483C35.113 208.667 32.5412 207.798 32.5412 207.798Z" fill="#263238"/>
<path opacity="0.2" d="M50.1042 81.0971C50.7889 81.585 51.5641 81.9312 52.3844 82.1154C54.7954 82.675 56.4445 82.2642 57.5221 81.1567C56.0791 81.5136 54.559 81.3881 53.194 80.7995C52.1726 80.4226 51.035 80.5321 50.1042 81.0971Z" fill="#263238"/>
<path d="M58.0272 73.4937C58.0272 74.7321 58.5749 75.7325 59.2179 75.7325C59.8608 75.7325 60.4443 74.7321 60.4443 73.4937C60.4443 72.2552 59.8966 71.2549 59.2179 71.2549C58.5392 71.2549 58.0272 72.2552 58.0272 73.4937Z" stroke="#263238" stroke-width="0.5" stroke-linecap="round" stroke-linejoin="round"/>
<path d="M49.9591 80.9721C50.0027 81.0129 50.0506 81.0489 50.102 81.0793C50.7811 81.5972 51.556 81.9757 52.3821 82.1927C54.7932 82.7524 56.4423 82.4189 57.5198 81.3293C59.026 79.6919 59.4011 76.7922 59.1867 73.2911C59.1492 71.8979 58.8921 70.5194 58.4247 69.2065V69.141C58.4247 69.1291 58.389 69.0398 58.3652 68.9921C57.7655 67.4874 56.4423 66.3906 54.8527 66.0805C54.1745 65.9289 53.4819 65.851 52.7869 65.8483C45.9584 65.7947 44.732 77.0959 49.9591 80.9721Z" fill="#E9B376"/>
<path d="M49.4133 87.2594C48.9907 89.2005 51.5089 89.9924 51.5089 89.9924C55.6226 88.2061 56.3847 86.0447 56.3847 86.0447C52.9496 84.2585 53.9438 79.1914 53.9438 79.1914L53.2473 79.5367L48.3477 80.4954C48.3477 80.4954 49.705 83.1034 49.8836 83.6988C50.8124 86.8248 49.4133 87.2594 49.4133 87.2594Z" fill="#E9B376"/>
<path d="M58.4345 69.1768C58.4345 69.1768 58.8095 73.9402 54.2671 76.0182C54.2671 76.0182 52.3204 80.99 49.4569 81.0555C45.5455 81.1508 42.1045 75.5955 43.4559 69.933C45.224 62.5855 56.3508 61.9901 58.4345 69.1768Z" fill="#263238"/>
<path d="M50.1039 64.0918C50.1039 64.0918 54.6641 62.9367 57.1883 64.7766C60.1353 66.9201 61.2545 69.1351 57.7837 72.5766C57.7837 72.5766 50.1217 70.0937 47.5737 70.6177C46.0844 70.9181 44.6227 71.3423 43.204 71.8859C42.6503 66.8249 47.5559 63.0558 50.1039 64.0918Z" fill="#263238"/>
<path d="M56.5746 73.4941C56.5746 73.4941 55.384 79.0077 57.2534 83.7116L55.8208 84.0145L55.4429 82.6625C55.1822 82.743 55.0746 84.3906 54.7475 84.4861C51.4104 85.4601 45.3837 86.908 42.6498 85.4264C38.8813 83.3841 42.3343 76.5308 42.495 72.5771C42.6557 68.6235 44.3703 62.7824 50.1034 64.0924C55.8365 65.4023 56.5746 73.4941 56.5746 73.4941Z" fill="#263238"/>
<path d="M60.2743 73.1426H55.8973" stroke="#263238" stroke-width="0.5" stroke-linecap="round" stroke-linejoin="round"/>
<path d="M45.5284 68.0252C45.964 66.8067 45.7627 65.3594 44.9409 64.36C44.1191 63.3607 42.6818 62.8844 41.449 63.2769C40.2162 63.6694 39.3034 64.9511 39.4159 66.2401C39.4912 67.1019 39.9906 67.8994 40.6841 68.4163C41.3776 68.9331 42.2495 69.1818 43.1142 69.2003C41.8352 70.0885 40.2408 70.5119 38.6898 70.3755C39.8846 71.2964 41.4832 71.6721 42.9631 71.3801C42.1285 71.9761 41.2028 72.4444 40.2281 72.7634C41.2893 73.2503 42.5463 73.2923 43.6377 72.8775C44.729 72.4627 45.6408 71.5964 46.111 70.5275L45.5284 68.0252Z" fill="#263238"/>
<path d="M39.8522 166.418C36.5247 172.898 34.8376 189.659 33.0344 202.345L38.7329 203.26L46.5246 179.445L54.2299 151.654L56.5398 143.187L57.1473 166.678C54.5507 175.106 55.3467 188.6 55.1764 201.848L62.2431 202.568L69.1728 151.63C74.5308 120.15 65.3686 112.713 65.3686 112.713L49.0386 116C41.6445 128.575 43.4008 143.187 43.4008 143.187L39.8522 166.418Z" fill="#CFB3FF"/>
<path opacity="0.2" d="M53.7943 151.601L54.2289 151.654L56.5388 143.187C56.5388 143.187 51.5856 134.726 53.1335 130.32C52.9132 130.63 47.579 138.543 53.7943 151.601Z" fill="#263238"/>
<path opacity="0.2" d="M47.4619 118.995L68.9532 119.272C68.9532 119.272 68.6818 118.048 68.3173 117.477C67.9528 116.907 68.1631 117.477 68.1631 117.477L47.8265 118.241L47.4619 118.995Z" fill="#263238"/>
<path d="M94.5579 80.9607V73.7837C94.5579 73.2662 94.1385 72.8467 93.6211 72.8467H85.916C85.4208 72.8467 85.0193 72.4452 85.0193 71.9498V69.7299C85.0193 69.2346 85.4208 68.833 85.916 68.833H102.901" stroke="#263238" stroke-miterlimit="10"/>
<path d="M85.9351 71.6948H102.603V65.9728H85.9351V71.6948Z" fill="#CFB3FF"/>
<path opacity="0.3" d="M85.9351 71.6948H102.603V65.9728H85.9351V71.6948Z" fill="white"/>
<path d="M94.8556 90.1533H94.2616C93.2494 90.1533 92.4276 89.3314 92.4276 88.319V76.8421H96.6896V88.319C96.6896 89.3314 95.8678 90.1533 94.8556 90.1533Z" fill="#263238"/>
<g opacity="0.3">
<path d="M85.9352 68.2295C86.1626 68.1435 86.5735 68.3045 86.684 68.5211C86.7944 68.7378 86.8216 68.9888 86.9272 69.2079C87.2007 69.7752 88.0428 69.9625 88.531 69.5647C88.893 69.2696 89.0988 68.7157 89.5633 68.6682C89.9563 68.6281 90.2688 68.9981 90.4242 69.3614C90.5795 69.7246 90.6705 70.1386 90.9629 70.4042C91.2273 70.6444 91.6048 70.7118 91.9617 70.7248C92.442 70.7422 92.9511 70.6686 93.3281 70.3704C93.6708 70.0994 93.8581 69.6824 94.0321 69.2817C94.2062 68.8811 94.3917 68.4636 94.7323 68.1901C95.0729 67.9166 95.6187 67.845 95.9279 68.1535C96.1536 68.3787 96.1945 68.7333 96.39 68.9852C96.5739 69.2222 96.8955 69.3436 97.1901 69.2871C97.4846 69.2307 97.7387 68.999 97.822 68.7109C97.8901 68.4751 97.8647 68.1871 98.0498 68.0261C98.3074 67.8021 98.7318 68.0604 98.8342 68.3861C98.9367 68.7118 98.8518 69.0642 98.8716 69.4051C98.9013 69.9165 99.2031 70.4229 99.6745 70.6231C100.146 70.8235 100.766 70.6544 101.012 70.205C101.235 69.7987 101.135 69.2708 101.369 68.8712C101.578 68.5148 102.173 68.2236 102.561 68.3628L102.601 65.9727H85.9325L85.9352 68.2295Z" fill="white"/>
</g>
<path d="M63.0719 86.8314C63.0719 86.8314 57.6247 84.8904 49.415 87.2602C41.2053 89.6299 40.8958 93.1251 40.8958 93.1251C40.8958 93.1251 46.099 104.92 46.9205 118.276L68.3168 117.478C68.3168 117.478 70.8708 98.6268 63.0719 86.8314Z" fill="#263238"/>
<path opacity="0.2" d="M40.8958 93.1255C40.8958 93.1255 46.099 104.921 46.9205 118.276L68.3168 117.478C68.5725 115.304 68.7037 113.118 68.7098 110.929C68.752 107.725 68.553 104.522 68.1144 101.348C67.4 96.4062 65.9295 91.1308 63.0719 86.808C63.0719 86.808 57.6247 84.8669 49.415 87.2367C41.2053 89.6065 40.8958 93.1255 40.8958 93.1255Z" fill="white"/>
<path opacity="0.2" d="M63.368 102.176C63.368 102.176 64.2551 107.606 68.726 110.952C68.7682 107.749 68.5692 104.546 68.1307 101.372L63.368 102.176Z" fill="#263238"/>
<path d="M87.0096 86.4569L89.7065 82.4556C89.7065 82.4556 90.1173 80.717 90.6412 80.324C91.1651 79.931 96.3445 77.722 96.9696 77.7339C97.5947 77.7458 97.5649 81.7709 96.9696 82.4556C96.3743 83.1404 93.0761 84.6051 92.2069 84.7539C91.3377 84.9028 91.7664 84.7539 91.7664 84.7539L89.385 89.5173L87.0096 86.4569Z" fill="#E9B376"/>
<path d="M63.0716 86.8318C68.8491 89.2518 74.4234 92.131 79.741 95.4417L88.4508 83.5332C88.4508 83.5332 90.7964 84.2596 91.6655 88.3442C91.6655 88.3442 87.1946 105.379 81.3841 107.07C75.5737 108.761 63.3574 102.146 63.3574 102.146C63.3574 102.146 59.8211 93.2981 63.0716 86.8318Z" fill="#263238"/>
<path opacity="0.2" d="M63.0716 86.8318C68.8491 89.2518 74.4234 92.131 79.741 95.4417L88.4508 83.5332C88.4508 83.5332 90.7964 84.2596 91.6655 88.3442C91.6655 88.3442 87.1946 105.379 81.3841 107.07C75.5737 108.761 63.3574 102.146 63.3574 102.146C63.3574 102.146 59.8211 93.2981 63.0716 86.8318Z" fill="white"/>
<path opacity="0.2" d="M48.3617 101.251C48.3617 101.251 50.7901 102.115 52.9633 99.8872C55.1365 97.6594 56.3764 90.5928 56.3764 90.5928L48.3617 101.251Z" fill="#263238"/>
<path d="M57.5225 86.0592C57.5225 86.0592 55.3902 100.624 48.5 101.251C41.6099 101.878 38.5227 90.3452 39.6881 88.982C40.8535 87.6187 49.6919 85.9569 57.5225 86.0592Z" fill="#263238"/>
<path opacity="0.3" d="M57.5225 86.0592C57.5225 86.0592 55.3902 100.624 48.5 101.251C41.6099 101.878 38.5227 90.3452 39.6881 88.982C40.8535 87.6187 49.6919 85.9569 57.5225 86.0592Z" fill="white"/>
<path d="M56.5766 74.6429C56.5766 73.8986 55.9813 72.6423 54.7906 72.8149C53.6 72.9876 52.9212 75.9528 55.8741 76.6137C56.3206 76.709 56.5766 76.2089 56.5766 74.6429Z" fill="#E9B376"/>
<path opacity="0.2" d="M79.7391 95.4405C79.7391 95.4405 81.7693 96.8488 81.9377 97.4887C81.9377 97.4887 81.8407 95.792 80.1548 94.8721L79.7391 95.4405Z" fill="#263238"/>
</svg>
