<svg width="24" height="24" viewBox="-2 -2 22 22" fill="none" xmlns="http://www.w3.org/2000/svg">
<g id="InstagramIcon">
<g id="Vector">
<path d="M5.22 0H12.78C15.66 0 18 2.34 18 5.22V12.78C18 14.1644 17.45 15.4922 16.4711 16.4711C15.4922 17.45 14.1644 18 12.78 18H5.22C2.34 18 0 15.66 0 12.78V5.22C0 3.83557 0.549963 2.50784 1.5289 1.5289C2.50784 0.549963 3.83557 0 5.22 0ZM5.04 1.8C4.1807 1.8 3.35659 2.14136 2.74897 2.74897C2.14136 3.35659 1.8 4.1807 1.8 5.04V12.96C1.8 14.751 3.249 16.2 5.04 16.2H12.96C13.8193 16.2 14.6434 15.8586 15.251 15.251C15.8586 14.6434 16.2 13.8193 16.2 12.96V5.04C16.2 3.249 14.751 1.8 12.96 1.8H5.04ZM13.725 3.15C14.0234 3.15 14.3095 3.26853 14.5205 3.4795C14.7315 3.69048 14.85 3.97663 14.85 4.275C14.85 4.57337 14.7315 4.85952 14.5205 5.0705C14.3095 5.28147 14.0234 5.4 13.725 5.4C13.4266 5.4 13.1405 5.28147 12.9295 5.0705C12.7185 4.85952 12.6 4.57337 12.6 4.275C12.6 3.97663 12.7185 3.69048 12.9295 3.4795C13.1405 3.26853 13.4266 3.15 13.725 3.15ZM9 4.5C10.1935 4.5 11.3381 4.97411 12.182 5.81802C13.0259 6.66193 13.5 7.80653 13.5 9C13.5 10.1935 13.0259 11.3381 12.182 12.182C11.3381 13.0259 10.1935 13.5 9 13.5C7.80653 13.5 6.66193 13.0259 5.81802 12.182C4.97411 11.3381 4.5 10.1935 4.5 9C4.5 7.80653 4.97411 6.66193 5.81802 5.81802C6.66193 4.97411 7.80653 4.5 9 4.5ZM9 6.3C8.28392 6.3 7.59716 6.58446 7.09081 7.09081C6.58446 7.59716 6.3 8.28392 6.3 9C6.3 9.71608 6.58446 10.4028 7.09081 10.9092C7.59716 11.4155 8.28392 11.7 9 11.7C9.71608 11.7 10.4028 11.4155 10.9092 10.9092C11.4155 10.4028 11.7 9.71608 11.7 9C11.7 8.28392 11.4155 7.59716 10.9092 7.09081C10.4028 6.58446 9.71608 6.3 9 6.3Z" fill="#030302"/>
<path d="M5.22 0H12.78C15.66 0 18 2.34 18 5.22V12.78C18 14.1644 17.45 15.4922 16.4711 16.4711C15.4922 17.45 14.1644 18 12.78 18H5.22C2.34 18 0 15.66 0 12.78V5.22C0 3.83557 0.549963 2.50784 1.5289 1.5289C2.50784 0.549963 3.83557 0 5.22 0ZM5.04 1.8C4.1807 1.8 3.35659 2.14136 2.74897 2.74897C2.14136 3.35659 1.8 4.1807 1.8 5.04V12.96C1.8 14.751 3.249 16.2 5.04 16.2H12.96C13.8193 16.2 14.6434 15.8586 15.251 15.251C15.8586 14.6434 16.2 13.8193 16.2 12.96V5.04C16.2 3.249 14.751 1.8 12.96 1.8H5.04ZM13.725 3.15C14.0234 3.15 14.3095 3.26853 14.5205 3.4795C14.7315 3.69048 14.85 3.97663 14.85 4.275C14.85 4.57337 14.7315 4.85952 14.5205 5.0705C14.3095 5.28147 14.0234 5.4 13.725 5.4C13.4266 5.4 13.1405 5.28147 12.9295 5.0705C12.7185 4.85952 12.6 4.57337 12.6 4.275C12.6 3.97663 12.7185 3.69048 12.9295 3.4795C13.1405 3.26853 13.4266 3.15 13.725 3.15ZM9 4.5C10.1935 4.5 11.3381 4.97411 12.182 5.81802C13.0259 6.66193 13.5 7.80653 13.5 9C13.5 10.1935 13.0259 11.3381 12.182 12.182C11.3381 13.0259 10.1935 13.5 9 13.5C7.80653 13.5 6.66193 13.0259 5.81802 12.182C4.97411 11.3381 4.5 10.1935 4.5 9C4.5 7.80653 4.97411 6.66193 5.81802 5.81802C6.66193 4.97411 7.80653 4.5 9 4.5ZM9 6.3C8.28392 6.3 7.59716 6.58446 7.09081 7.09081C6.58446 7.59716 6.3 8.28392 6.3 9C6.3 9.71608 6.58446 10.4028 7.09081 10.9092C7.59716 11.4155 8.28392 11.7 9 11.7C9.71608 11.7 10.4028 11.4155 10.9092 10.9092C11.4155 10.4028 11.7 9.71608 11.7 9C11.7 8.28392 11.4155 7.59716 10.9092 7.09081C10.4028 6.58446 9.71608 6.3 9 6.3Z" fill="black" fill-opacity="0.2"/>
<path d="M5.22 0H12.78C15.66 0 18 2.34 18 5.22V12.78C18 14.1644 17.45 15.4922 16.4711 16.4711C15.4922 17.45 14.1644 18 12.78 18H5.22C2.34 18 0 15.66 0 12.78V5.22C0 3.83557 0.549963 2.50784 1.5289 1.5289C2.50784 0.549963 3.83557 0 5.22 0ZM5.04 1.8C4.1807 1.8 3.35659 2.14136 2.74897 2.74897C2.14136 3.35659 1.8 4.1807 1.8 5.04V12.96C1.8 14.751 3.249 16.2 5.04 16.2H12.96C13.8193 16.2 14.6434 15.8586 15.251 15.251C15.8586 14.6434 16.2 13.8193 16.2 12.96V5.04C16.2 3.249 14.751 1.8 12.96 1.8H5.04ZM13.725 3.15C14.0234 3.15 14.3095 3.26853 14.5205 3.4795C14.7315 3.69048 14.85 3.97663 14.85 4.275C14.85 4.57337 14.7315 4.85952 14.5205 5.0705C14.3095 5.28147 14.0234 5.4 13.725 5.4C13.4266 5.4 13.1405 5.28147 12.9295 5.0705C12.7185 4.85952 12.6 4.57337 12.6 4.275C12.6 3.97663 12.7185 3.69048 12.9295 3.4795C13.1405 3.26853 13.4266 3.15 13.725 3.15ZM9 4.5C10.1935 4.5 11.3381 4.97411 12.182 5.81802C13.0259 6.66193 13.5 7.80653 13.5 9C13.5 10.1935 13.0259 11.3381 12.182 12.182C11.3381 13.0259 10.1935 13.5 9 13.5C7.80653 13.5 6.66193 13.0259 5.81802 12.182C4.97411 11.3381 4.5 10.1935 4.5 9C4.5 7.80653 4.97411 6.66193 5.81802 5.81802C6.66193 4.97411 7.80653 4.5 9 4.5ZM9 6.3C8.28392 6.3 7.59716 6.58446 7.09081 7.09081C6.58446 7.59716 6.3 8.28392 6.3 9C6.3 9.71608 6.58446 10.4028 7.09081 10.9092C7.59716 11.4155 8.28392 11.7 9 11.7C9.71608 11.7 10.4028 11.4155 10.9092 10.9092C11.4155 10.4028 11.7 9.71608 11.7 9C11.7 8.28392 11.4155 7.59716 10.9092 7.09081C10.4028 6.58446 9.71608 6.3 9 6.3Z" fill="black" fill-opacity="0.2"/>
<path d="M5.22 0H12.78C15.66 0 18 2.34 18 5.22V12.78C18 14.1644 17.45 15.4922 16.4711 16.4711C15.4922 17.45 14.1644 18 12.78 18H5.22C2.34 18 0 15.66 0 12.78V5.22C0 3.83557 0.549963 2.50784 1.5289 1.5289C2.50784 0.549963 3.83557 0 5.22 0ZM5.04 1.8C4.1807 1.8 3.35659 2.14136 2.74897 2.74897C2.14136 3.35659 1.8 4.1807 1.8 5.04V12.96C1.8 14.751 3.249 16.2 5.04 16.2H12.96C13.8193 16.2 14.6434 15.8586 15.251 15.251C15.8586 14.6434 16.2 13.8193 16.2 12.96V5.04C16.2 3.249 14.751 1.8 12.96 1.8H5.04ZM13.725 3.15C14.0234 3.15 14.3095 3.26853 14.5205 3.4795C14.7315 3.69048 14.85 3.97663 14.85 4.275C14.85 4.57337 14.7315 4.85952 14.5205 5.0705C14.3095 5.28147 14.0234 5.4 13.725 5.4C13.4266 5.4 13.1405 5.28147 12.9295 5.0705C12.7185 4.85952 12.6 4.57337 12.6 4.275C12.6 3.97663 12.7185 3.69048 12.9295 3.4795C13.1405 3.26853 13.4266 3.15 13.725 3.15ZM9 4.5C10.1935 4.5 11.3381 4.97411 12.182 5.81802C13.0259 6.66193 13.5 7.80653 13.5 9C13.5 10.1935 13.0259 11.3381 12.182 12.182C11.3381 13.0259 10.1935 13.5 9 13.5C7.80653 13.5 6.66193 13.0259 5.81802 12.182C4.97411 11.3381 4.5 10.1935 4.5 9C4.5 7.80653 4.97411 6.66193 5.81802 5.81802C6.66193 4.97411 7.80653 4.5 9 4.5ZM9 6.3C8.28392 6.3 7.59716 6.58446 7.09081 7.09081C6.58446 7.59716 6.3 8.28392 6.3 9C6.3 9.71608 6.58446 10.4028 7.09081 10.9092C7.59716 11.4155 8.28392 11.7 9 11.7C9.71608 11.7 10.4028 11.4155 10.9092 10.9092C11.4155 10.4028 11.7 9.71608 11.7 9C11.7 8.28392 11.4155 7.59716 10.9092 7.09081C10.4028 6.58446 9.71608 6.3 9 6.3Z" fill="black" fill-opacity="0.2"/>
<path d="M5.22 0H12.78C15.66 0 18 2.34 18 5.22V12.78C18 14.1644 17.45 15.4922 16.4711 16.4711C15.4922 17.45 14.1644 18 12.78 18H5.22C2.34 18 0 15.66 0 12.78V5.22C0 3.83557 0.549963 2.50784 1.5289 1.5289C2.50784 0.549963 3.83557 0 5.22 0ZM5.04 1.8C4.1807 1.8 3.35659 2.14136 2.74897 2.74897C2.14136 3.35659 1.8 4.1807 1.8 5.04V12.96C1.8 14.751 3.249 16.2 5.04 16.2H12.96C13.8193 16.2 14.6434 15.8586 15.251 15.251C15.8586 14.6434 16.2 13.8193 16.2 12.96V5.04C16.2 3.249 14.751 1.8 12.96 1.8H5.04ZM13.725 3.15C14.0234 3.15 14.3095 3.26853 14.5205 3.4795C14.7315 3.69048 14.85 3.97663 14.85 4.275C14.85 4.57337 14.7315 4.85952 14.5205 5.0705C14.3095 5.28147 14.0234 5.4 13.725 5.4C13.4266 5.4 13.1405 5.28147 12.9295 5.0705C12.7185 4.85952 12.6 4.57337 12.6 4.275C12.6 3.97663 12.7185 3.69048 12.9295 3.4795C13.1405 3.26853 13.4266 3.15 13.725 3.15ZM9 4.5C10.1935 4.5 11.3381 4.97411 12.182 5.81802C13.0259 6.66193 13.5 7.80653 13.5 9C13.5 10.1935 13.0259 11.3381 12.182 12.182C11.3381 13.0259 10.1935 13.5 9 13.5C7.80653 13.5 6.66193 13.0259 5.81802 12.182C4.97411 11.3381 4.5 10.1935 4.5 9C4.5 7.80653 4.97411 6.66193 5.81802 5.81802C6.66193 4.97411 7.80653 4.5 9 4.5ZM9 6.3C8.28392 6.3 7.59716 6.58446 7.09081 7.09081C6.58446 7.59716 6.3 8.28392 6.3 9C6.3 9.71608 6.58446 10.4028 7.09081 10.9092C7.59716 11.4155 8.28392 11.7 9 11.7C9.71608 11.7 10.4028 11.4155 10.9092 10.9092C11.4155 10.4028 11.7 9.71608 11.7 9C11.7 8.28392 11.4155 7.59716 10.9092 7.09081C10.4028 6.58446 9.71608 6.3 9 6.3Z" fill="black" fill-opacity="0.2"/>
</g>
</g>
</svg>
