<svg width="207" height="80" viewBox="0 0 207 80" fill="none" xmlns="http://www.w3.org/2000/svg">
<path d="M33.1739 22.819C33.1739 22.819 42.5998 11.5232 55.0052 6.35328C69.7106 0.224994 86.7571 9.35667 89.4097 25.0466C90.5691 31.9008 88.9729 40.0012 79.8122 47.3184C78.2809 48.5535 76.8266 49.881 75.4574 51.2932L50.0614 77.2613C49.7003 77.6308 49.2079 77.8429 48.6911 77.8517C48.1742 77.8604 47.6748 77.6651 47.3015 77.3081L29.9872 60.7545C25.9937 56.9349 23.8366 51.5624 24.1923 46.0491C24.6228 39.3738 26.5921 30.3287 33.1739 22.819Z" fill="#C19DFF"/>
<path d="M27.1314 52.0436C40.9292 52.0436 52.1145 40.874 52.1145 27.0955C52.1145 13.3171 40.9292 2.14746 27.1314 2.14746C13.3337 2.14746 2.14844 13.3171 2.14844 27.0955C2.14844 40.874 13.3337 52.0436 27.1314 52.0436Z" fill="#98EBEE"/>
<path d="M52.1134 27.0956C52.1218 21.2529 50.067 15.5942 46.3104 11.1147C38.4482 16.4617 33.1619 22.7943 33.1619 22.7943C26.5926 30.2941 24.6227 39.3261 24.1927 45.9933C24.0667 47.9892 24.2678 49.9923 24.788 51.9235C25.5605 51.9951 26.3405 52.0419 27.1317 52.0419C40.9292 52.0437 52.1134 40.8739 52.1134 27.0956Z" fill="#3D84ED"/>
<path d="M59.4706 36.7637C56.684 36.7637 54.7859 35.3926 54.7859 32.247V18.3337H51.959V15.551H54.7859V10.1874H58.1782V15.551H62.3379V18.3337H58.1782V31.6017C58.1782 32.8922 58.8244 33.6988 60.3994 33.6988C60.884 33.6988 61.5302 33.6181 62.2975 33.3358V36.0378C61.5706 36.6024 60.4398 36.7637 59.4706 36.7637Z" fill="black"/>
<path d="M75.8747 36.9251C70.2208 36.9251 65.0919 33.0132 65.0919 26.0364C65.0919 18.979 70.2612 15.1478 75.5516 15.1478C80.8824 15.1478 86.4555 18.979 85.6074 27.2866H68.3227C68.8477 31.6824 72.1996 34.0214 76.2381 34.0214C78.7016 34.0214 80.9631 33.1342 82.4978 31.4807L84.1939 33.2148C82.2958 35.5539 79.267 36.9251 75.8747 36.9251ZM68.3227 24.7056H82.6189C82.3766 20.3904 79.1054 18.0917 75.592 18.0917C72.1189 18.0917 68.8477 20.3098 68.3227 24.7056Z" fill="black"/>
<path d="M99.3827 36.9251C93.9308 36.9251 88.4788 33.0535 88.4788 26.0364C88.4788 19.0193 93.9308 15.1478 99.3827 15.1478C103.017 15.1478 106.45 16.8819 108.348 20.3098L105.763 21.8423C104.431 19.5839 102.048 18.253 99.4231 18.253C95.6269 18.253 91.8711 21.076 91.8711 26.0364C91.8711 30.9968 95.6269 33.8198 99.4231 33.8198C102.048 33.8198 104.431 32.4889 105.763 30.2306L108.348 31.763C106.45 35.1506 103.017 36.9251 99.3827 36.9251Z" fill="black"/>
<path d="M112.087 36.5218V7.88867H115.479V18.979C116.569 16.9625 118.871 15.1478 122.506 15.1478C126.908 15.1478 130.704 17.8901 130.704 24.1813V36.5218H127.312V24.6652C127.312 20.4308 124.808 18.253 121.456 18.253C118.104 18.253 115.479 20.4308 115.479 24.6652V36.5218H112.087Z" fill="black"/>
<path d="M144.11 44.1841V15.551H147.503V19.5032H147.624C148.634 17.2852 151.582 15.1478 155.499 15.1478C160.587 15.1478 165.797 18.858 165.797 26.0364C165.797 33.2148 160.587 36.9251 155.499 36.9251C151.582 36.9251 148.634 34.7877 147.624 32.5696H147.503V44.1841H144.11ZM147.382 26.0364C147.382 31.1984 151.137 33.8198 154.934 33.8198C158.649 33.8198 162.405 31.2388 162.405 26.0364C162.405 20.8341 158.649 18.253 154.934 18.253C151.137 18.253 147.382 20.8744 147.382 26.0364Z" fill="black"/>
<path d="M169.548 36.5218V15.551H172.94V20.7534C173.708 17.7288 175.808 15.1478 179.685 15.1478C180.169 15.1478 180.573 15.1881 180.896 15.3091V18.495C180.533 18.4144 180.21 18.374 179.725 18.374C175.808 18.374 172.94 21.318 172.94 25.9961V36.5218H169.548Z" fill="black"/>
<path d="M193.956 36.9251C188.504 36.9251 183.052 33.0535 183.052 26.0364C183.052 19.0193 188.504 15.1478 193.956 15.1478C199.408 15.1478 204.86 19.0193 204.86 26.0364C204.86 33.0535 199.408 36.9251 193.956 36.9251ZM186.444 26.0364C186.444 30.9968 190.079 33.8198 193.956 33.8198C197.833 33.8198 201.467 30.9968 201.467 26.0364C201.467 21.076 197.833 18.253 193.956 18.253C190.079 18.253 186.444 21.076 186.444 26.0364Z" fill="black"/>
<path d="M52.8066 46.2617H57.249V57.2713H57.3701C58.1374 55.6179 60.8028 53.5208 64.6394 53.5208C69.6067 53.5208 74.8163 57.1907 74.8163 64.4095C74.8163 71.6282 69.6067 75.2981 64.6394 75.2981C60.8028 75.2981 58.1374 73.201 57.3701 71.5476H57.249V74.8948H52.8066V46.2617ZM57.1278 64.4095C57.1278 68.9262 60.399 71.2653 63.7913 71.2653C67.1432 71.2653 70.4144 68.9262 70.4144 64.4095C70.4144 59.8927 67.1432 57.5536 63.7913 57.5536C60.399 57.5536 57.1278 59.8927 57.1278 64.4095Z" fill="black"/>
<path d="M88.0982 75.2981C82.4039 75.2981 77.2347 71.3863 77.2347 64.4095C77.2347 57.352 82.4443 53.5208 87.7751 53.5208C93.1059 53.5208 98.9213 57.3117 97.9117 66.1032H81.4347C82.1213 69.7328 84.9886 71.5879 88.5828 71.5879C90.8444 71.5879 92.8636 70.862 94.3982 69.4102L96.4982 71.5879C94.6809 73.8463 91.6521 75.2981 88.0982 75.2981ZM81.3943 62.7963H93.954C93.7117 59.1668 90.804 57.3117 87.8155 57.3117C84.8674 57.3117 82.0405 59.0861 81.3943 62.7963Z" fill="black"/>
<path d="M115.083 74.8948V62.877C115.083 59.4894 113.427 57.5536 110.641 57.5536C107.773 57.5536 105.916 59.4894 105.916 62.877V74.8948H101.473V53.9241H105.916V56.9084C107.006 55.0533 108.985 53.5208 112.135 53.5208C114.881 53.5208 117.224 54.7307 118.516 57.352C119.647 55.2953 121.949 53.5208 125.543 53.5208C129.945 53.5208 133.175 56.3035 133.175 62.635V74.8948H128.693V62.877C128.693 59.4894 127.037 57.5536 124.25 57.5536C121.383 57.5536 119.566 59.4894 119.566 62.877V74.8948H115.083Z" fill="black"/>
<path d="M139.336 75.2981C137.923 75.2981 136.752 74.2092 136.752 72.6768C136.752 71.1443 137.923 70.0958 139.336 70.0958C140.79 70.0958 141.961 71.1443 141.961 72.6768C141.961 74.2092 140.79 75.2981 139.336 75.2981Z" fill="black"/>
</svg>
