<svg width="593" height="173" viewBox="0 0 593 173" fill="none" xmlns="http://www.w3.org/2000/svg">
<path d="M61.8129 67.3569C61.8129 67.3569 73.213 53.6764 88.216 47.422C106 39.9991 126.617 51.0589 129.825 70.0619C131.227 78.3664 129.298 88.1734 118.217 97.0339C116.366 98.5303 114.607 100.138 112.951 101.849L82.234 133.293C81.7968 133.74 81.201 133.996 80.5759 134.006C79.9509 134.017 79.347 133.78 78.8953 133.348L57.9572 113.301C55.5627 111.022 53.6952 108.248 52.4855 105.172C51.2758 102.095 50.7531 98.792 50.9541 95.4926C51.4694 87.4068 53.8519 76.4524 61.8129 67.3569Z" fill="#C19DFF"/>
<path d="M54.5042 102.752C71.1915 102.752 84.7193 89.224 84.7193 72.5366C84.7193 55.8493 71.1915 42.3215 54.5042 42.3215C37.8168 42.3215 24.2891 55.8493 24.2891 72.5366C24.2891 89.224 37.8168 102.752 54.5042 102.752Z" fill="#98EBEE"/>
<path d="M84.7188 72.5368C84.7271 65.4601 82.2405 58.607 77.6962 53.1821C68.1891 59.6569 61.7969 67.3262 61.7969 67.3262C53.8489 76.4103 51.4697 87.3485 50.9543 95.4246C50.8018 97.8421 51.0449 100.268 51.6739 102.608C52.6074 102.695 53.5523 102.75 54.5085 102.75C71.1906 102.745 84.7188 89.2237 84.7188 72.5368Z" fill="#3D84ED"/>
<path d="M101.515 116.556C96.3393 116.556 92.8136 114.006 92.8136 108.155V82.2746H87.5625V77.0986H92.8136V67.1216H99.1148V77.0986H106.841V82.2746H99.1148V106.955C99.1148 109.355 100.315 110.855 103.241 110.855C104.141 110.855 105.341 110.705 106.766 110.18V115.206C105.416 116.256 103.316 116.556 101.515 116.556Z" fill="black"/>
<path d="M131.986 116.857C121.484 116.857 111.957 109.58 111.957 96.6025C111.957 83.4748 121.559 76.3484 131.386 76.3484C141.288 76.3484 151.64 83.4748 150.065 98.9279H117.958C118.933 107.105 125.16 111.455 132.661 111.455C137.237 111.455 141.438 109.805 144.289 106.73L147.439 109.955C143.913 114.306 138.287 116.857 131.986 116.857ZM117.958 94.127H144.514C144.063 86.1004 137.987 81.8245 131.461 81.8245C125.01 81.8245 118.933 85.9503 117.958 94.127Z" fill="black"/>
<path d="M175.652 116.857C165.525 116.857 155.398 109.655 155.398 96.6025C155.398 83.5499 165.525 76.3484 175.652 76.3484C182.404 76.3484 188.78 79.5741 192.306 85.9503L187.505 88.8009C185.029 84.6001 180.603 82.1246 175.727 82.1246C168.676 82.1246 161.7 87.3756 161.7 96.6025C161.7 105.829 168.676 111.08 175.727 111.08C180.603 111.08 185.029 108.605 187.505 104.404L192.306 107.255C188.78 113.556 182.404 116.857 175.652 116.857Z" fill="black"/>
<path d="M199.25 116.106V62.8457H205.551V83.4748C207.577 79.7241 211.853 76.3484 218.604 76.3484C226.781 76.3484 233.832 81.4494 233.832 93.1518V116.106H227.531V94.052C227.531 86.1754 222.88 82.1246 216.653 82.1246C210.427 82.1246 205.551 86.1754 205.551 94.052V116.106H199.25Z" fill="black"/>
<path d="M258.735 130.359V77.0986H265.036V84.45H265.261C267.136 80.3242 272.612 76.3484 279.889 76.3484C289.341 76.3484 299.018 83.2498 299.018 96.6025C299.018 109.955 289.341 116.857 279.889 116.857C272.612 116.857 267.136 112.881 265.261 108.755H265.036V130.359H258.735ZM264.811 96.6025C264.811 106.204 271.787 111.08 278.839 111.08C285.74 111.08 292.716 106.279 292.716 96.6025C292.716 86.9255 285.74 82.1246 278.839 82.1246C271.787 82.1246 264.811 87.0006 264.811 96.6025Z" fill="black"/>
<path d="M305.985 116.106V77.0986H312.287V86.7755C313.712 81.1494 317.613 76.3484 324.814 76.3484C325.714 76.3484 326.464 76.4234 327.065 76.6485V82.5747C326.389 82.4246 325.789 82.3496 324.889 82.3496C317.613 82.3496 312.287 87.8257 312.287 96.5275V116.106H305.985Z" fill="black"/>
<path d="M351.323 116.857C341.195 116.857 331.068 109.655 331.068 96.6025C331.068 83.5499 341.195 76.3484 351.323 76.3484C361.45 76.3484 371.577 83.5499 371.577 96.6025C371.577 109.655 361.45 116.857 351.323 116.857ZM337.37 96.6025C337.37 105.829 344.121 111.08 351.323 111.08C358.524 111.08 365.275 105.829 365.275 96.6025C365.275 87.3756 358.524 82.1246 351.323 82.1246C344.121 82.1246 337.37 87.3756 337.37 96.6025Z" fill="black"/>
<path d="M393.998 62.7744H404.05V82.2783H404.275C405.25 80.1029 409.751 76.2771 416.728 76.2771C425.804 76.2771 435.481 83.0285 435.481 96.5312C435.481 110.034 425.804 116.785 416.728 116.785C409.751 116.785 405.25 112.959 404.275 110.784H404.05V116.035H393.998V62.7744ZM403.825 96.5312C403.825 103.883 409.076 107.783 414.702 107.783C420.328 107.783 425.579 103.808 425.579 96.5312C425.579 89.2547 420.328 85.2789 414.702 85.2789C409.076 85.2789 403.825 89.1797 403.825 96.5312Z" fill="black"/>
<path d="M459.702 116.785C448.975 116.785 439.373 109.509 439.373 96.5312C439.373 83.4036 449.125 76.2771 459.102 76.2771C469.004 76.2771 480.257 83.2535 478.081 100.432H448.9C450.326 105.758 454.977 108.534 460.828 108.534C464.653 108.534 468.029 107.483 470.88 105.008L475.456 109.884C472.23 113.935 466.604 116.785 459.702 116.785ZM448.75 93.0805H469.154C468.554 87.5294 463.903 84.7538 459.177 84.7538C454.526 84.7538 450.026 87.4544 448.75 93.0805Z" fill="black"/>
<path d="M508.934 116.035V93.8307C508.934 88.2795 506.008 85.2789 501.733 85.2789C497.307 85.2789 494.156 88.2795 494.156 93.8307V116.035H484.104V77.0273H494.156V82.0533C496.256 78.7526 499.857 76.2771 505.333 76.2771C510.134 76.2771 514.335 78.3025 516.736 82.8034C518.986 79.2027 523.262 76.2771 529.638 76.2771C537.89 76.2771 543.891 81.4532 543.891 93.3806V116.035H533.764V93.8307C533.764 88.2795 530.913 85.2789 526.563 85.2789C522.137 85.2789 518.986 88.2795 518.986 93.8307V116.035H508.934Z" fill="black"/>
<path d="M555.926 116.785C552.776 116.785 550.15 114.46 550.15 111.009C550.15 107.558 552.776 105.233 555.926 105.233C559.002 105.233 561.702 107.558 561.702 111.009C561.702 114.46 559.002 116.785 555.926 116.785Z" fill="black"/>
</svg>
