<svg width="396" height="322" viewBox="0 0 396 322" fill="none" xmlns="http://www.w3.org/2000/svg">
<g clip-path="url(#clip0_4036_20072)">
<path d="M198.18 324.71C305.263 324.71 392.07 319.642 392.07 313.39C392.07 307.138 305.263 302.07 198.18 302.07C91.0975 302.07 4.29004 307.138 4.29004 313.39C4.29004 319.642 91.0975 324.71 198.18 324.71Z" fill="#F5F5F5"/>
<path d="M246.7 185.421L245.36 211.001C245.334 211.408 245.392 211.816 245.532 212.199C245.671 212.582 245.889 212.932 246.171 213.226C246.453 213.52 246.794 213.753 247.17 213.909C247.547 214.064 247.952 214.14 248.36 214.131H337.19C337.751 214.131 338.305 214.244 338.821 214.464C339.337 214.684 339.802 215.006 340.19 215.411L344.71 220.171C344.966 220.416 345.288 220.582 345.636 220.648C345.984 220.715 346.344 220.679 346.672 220.546C347.001 220.413 347.284 220.188 347.487 219.898C347.691 219.608 347.806 219.265 347.82 218.911L349.58 185.381C349.608 184.974 349.551 184.565 349.411 184.181C349.272 183.798 349.055 183.447 348.772 183.153C348.49 182.858 348.149 182.625 347.771 182.47C347.394 182.315 346.988 182.24 346.58 182.251H250C249.15 182.26 248.335 182.593 247.722 183.182C247.109 183.771 246.743 184.572 246.7 185.421Z" fill="#CFB3FF"/>
<path opacity="0.4" d="M246.7 185.421L245.36 211.001C245.334 211.408 245.392 211.816 245.532 212.199C245.671 212.582 245.889 212.932 246.171 213.226C246.453 213.52 246.794 213.753 247.17 213.909C247.547 214.064 247.952 214.14 248.36 214.131H337.19C337.751 214.131 338.305 214.244 338.821 214.464C339.337 214.684 339.802 215.006 340.19 215.411L344.71 220.171C344.966 220.416 345.288 220.582 345.636 220.648C345.984 220.715 346.344 220.679 346.672 220.546C347.001 220.413 347.284 220.188 347.487 219.898C347.691 219.608 347.806 219.265 347.82 218.911L349.58 185.381C349.608 184.974 349.551 184.565 349.411 184.181C349.272 183.798 349.055 183.447 348.772 183.153C348.49 182.858 348.149 182.625 347.771 182.47C347.394 182.315 346.988 182.24 346.58 182.251H250C249.15 182.26 248.335 182.593 247.722 183.182C247.109 183.771 246.743 184.572 246.7 185.421Z" fill="white"/>
<path d="M244.81 183.421L243.47 209.001C243.442 209.408 243.499 209.817 243.639 210.2C243.778 210.584 243.995 210.934 244.278 211.229C244.56 211.524 244.901 211.756 245.279 211.912C245.656 212.067 246.062 212.141 246.47 212.131H335.3C335.861 212.131 336.415 212.244 336.931 212.464C337.446 212.684 337.912 213.006 338.3 213.411L342.81 218.171C343.067 218.414 343.389 218.579 343.738 218.645C344.086 218.711 344.446 218.675 344.775 218.543C345.103 218.41 345.387 218.186 345.592 217.896C345.797 217.607 345.914 217.265 345.93 216.911L347.69 183.381C347.716 182.974 347.658 182.566 347.518 182.183C347.379 181.8 347.161 181.45 346.879 181.156C346.597 180.861 346.256 180.629 345.88 180.473C345.503 180.317 345.098 180.242 344.69 180.251H248.1C247.251 180.26 246.437 180.593 245.826 181.183C245.214 181.772 244.851 182.572 244.81 183.421Z" fill="#CFB3FF"/>
<path opacity="0.8" d="M244.81 183.421L243.47 209.001C243.442 209.408 243.499 209.817 243.639 210.2C243.778 210.584 243.995 210.934 244.278 211.229C244.56 211.524 244.901 211.756 245.279 211.912C245.656 212.067 246.062 212.141 246.47 212.131H335.3C335.861 212.131 336.415 212.244 336.931 212.464C337.446 212.684 337.912 213.006 338.3 213.411L342.81 218.171C343.067 218.414 343.389 218.579 343.738 218.645C344.086 218.711 344.446 218.675 344.775 218.543C345.103 218.41 345.387 218.186 345.592 217.896C345.797 217.607 345.914 217.265 345.93 216.911L347.69 183.381C347.716 182.974 347.658 182.566 347.518 182.183C347.379 181.8 347.161 181.45 346.879 181.156C346.597 180.861 346.256 180.629 345.88 180.473C345.503 180.317 345.098 180.242 344.69 180.251H248.1C247.251 180.26 246.437 180.593 245.826 181.183C245.214 181.772 244.851 182.572 244.81 183.421Z" fill="white"/>
<path d="M296.82 200.66L293.25 196.88L294.45 195.74L296.94 198.38L301.7 193.85L302.78 194.99L296.82 200.66Z" fill="#CFB3FF"/>
<path d="M298.29 196.82L297.27 195.74L296.07 196.88L297.09 197.96L298.29 196.82Z" fill="#CFB3FF"/>
<path d="M304.52 193.85L299.76 198.38L299.64 198.25L298.44 199.39L299.64 200.66L305.6 194.99L304.52 193.85Z" fill="#CFB3FF"/>
<path d="M265 192.141L264.56 200.541H263.92L264.13 196.541H259.25L259.04 200.541H258.4L258.84 192.141H259.48L259.28 195.921H264.16L264.36 192.141H265Z" fill="#263238"/>
<path d="M266.76 192.611C266.772 192.483 266.831 192.365 266.925 192.278C267.019 192.191 267.142 192.142 267.27 192.141C267.331 192.141 267.391 192.153 267.447 192.177C267.503 192.201 267.553 192.235 267.596 192.279C267.638 192.323 267.67 192.375 267.692 192.432C267.713 192.489 267.723 192.55 267.72 192.611C267.712 192.739 267.657 192.86 267.564 192.949C267.471 193.038 267.349 193.088 267.22 193.091C267.158 193.091 267.096 193.078 267.039 193.054C266.982 193.029 266.93 192.994 266.887 192.949C266.844 192.904 266.811 192.851 266.789 192.793C266.767 192.735 266.757 192.673 266.76 192.611ZM266.84 194.541H267.44L267.13 200.541H266.53L266.84 194.541Z" fill="#263238"/>
<path d="M268.82 200.12C268.825 199.973 268.888 199.835 268.994 199.734C269.101 199.633 269.243 199.577 269.39 199.58C269.46 199.58 269.528 199.594 269.592 199.622C269.656 199.649 269.714 199.689 269.762 199.74C269.809 199.791 269.846 199.85 269.87 199.916C269.894 199.981 269.904 200.051 269.9 200.12C269.89 200.265 269.826 200.401 269.72 200.501C269.615 200.601 269.475 200.658 269.33 200.66C269.26 200.662 269.19 200.649 269.126 200.622C269.061 200.595 269.003 200.555 268.955 200.504C268.907 200.453 268.87 200.392 268.847 200.326C268.823 200.26 268.814 200.19 268.82 200.12Z" fill="#263238"/>
<path d="M271.37 200.12C271.378 199.974 271.441 199.837 271.547 199.736C271.653 199.636 271.794 199.58 271.94 199.58C272.01 199.579 272.08 199.592 272.144 199.619C272.209 199.646 272.267 199.686 272.315 199.737C272.363 199.788 272.4 199.848 272.423 199.914C272.447 199.98 272.456 200.05 272.45 200.12C272.442 200.266 272.379 200.404 272.273 200.504C272.167 200.605 272.026 200.66 271.88 200.66C271.81 200.662 271.74 200.649 271.676 200.622C271.611 200.595 271.553 200.555 271.505 200.504C271.457 200.453 271.42 200.392 271.397 200.326C271.374 200.26 271.364 200.19 271.37 200.12Z" fill="#263238"/>
<path d="M273.93 200.12C273.938 199.974 274.001 199.837 274.107 199.736C274.213 199.636 274.354 199.58 274.5 199.58C274.57 199.58 274.639 199.594 274.702 199.622C274.766 199.649 274.824 199.689 274.872 199.74C274.92 199.79 274.956 199.85 274.98 199.916C275.004 199.981 275.014 200.051 275.01 200.12C275 200.265 274.936 200.401 274.83 200.501C274.725 200.601 274.585 200.658 274.44 200.66C274.37 200.662 274.301 200.649 274.236 200.622C274.171 200.595 274.113 200.554 274.065 200.504C274.017 200.453 273.98 200.392 273.957 200.326C273.934 200.26 273.924 200.19 273.93 200.12Z" fill="#263238"/>
<path d="M337.195 204.831C342.203 199.952 342.511 192.145 337.883 187.394C333.255 182.643 325.442 182.746 320.434 187.625C315.426 192.504 315.118 200.311 319.746 205.062C324.375 209.813 332.187 209.709 337.195 204.831Z" fill="white"/>
<path d="M323.63 204.7C323.63 204.7 325.33 203.26 325.72 199.76H330.58C330.58 199.76 330.36 204.7 332.72 204.7H323.63Z" fill="#FFB573"/>
<path opacity="0.1" d="M325.72 199.76C325.652 200.439 325.515 201.109 325.31 201.76C326.16 202.097 327.066 202.266 327.98 202.26C328.905 202.255 329.82 202.065 330.67 201.7C330.591 201.066 330.561 200.428 330.58 199.79L325.72 199.76Z" fill="black"/>
<path d="M335.49 192.1C335.22 197.16 332.35 201.27 327.84 201.27C323.33 201.27 320.84 197.16 321.15 192.1C321.46 187.04 324.29 182.92 328.8 182.92C333.31 182.92 335.75 187 335.49 192.1Z" fill="#FFB573"/>
<path d="M328.78 192.52C328.909 193.358 329.158 194.173 329.52 194.94C329.32 195.033 329.101 195.082 328.88 195.082C328.659 195.082 328.44 195.033 328.24 194.94L328.78 192.52Z" fill="#ED893E"/>
<path d="M330.24 196.581C328.834 196.549 327.428 196.677 326.05 196.961C326.47 197.961 327.23 198.251 328.81 197.961C330.39 197.671 330.24 196.581 330.24 196.581Z" fill="#263238"/>
<path d="M330.1 196.58C330.08 196.712 330.028 196.837 329.947 196.944C329.867 197.05 329.761 197.135 329.64 197.19C328.734 197.336 327.817 197.393 326.9 197.36C326.753 197.373 326.605 197.34 326.476 197.267C326.348 197.194 326.244 197.083 326.18 196.95C327.472 196.703 328.784 196.579 330.1 196.58Z" fill="white"/>
<path d="M329.56 197.12C328.725 197.038 327.882 197.082 327.06 197.25C326.835 197.335 326.638 197.48 326.49 197.67C326.95 198.11 327.67 198.18 328.8 197.99C329.235 197.945 329.642 197.751 329.95 197.44C329.832 197.32 329.701 197.212 329.56 197.12Z" fill="white"/>
<path d="M325.62 192.551C325.62 192.881 325.72 193.161 325.94 193.181C326.16 193.201 326.36 192.931 326.4 192.601C326.44 192.271 326.3 191.981 326.08 191.971C325.86 191.961 325.66 192.211 325.62 192.551Z" fill="#263238"/>
<path d="M324.49 191.37C324.457 191.379 324.423 191.379 324.39 191.37C324.356 191.333 324.338 191.285 324.338 191.235C324.338 191.185 324.356 191.137 324.39 191.1C324.599 190.861 324.86 190.672 325.153 190.549C325.446 190.426 325.763 190.372 326.08 190.39C326.13 190.402 326.173 190.433 326.201 190.475C326.229 190.518 326.239 190.57 326.23 190.62C326.218 190.671 326.189 190.717 326.146 190.748C326.104 190.779 326.052 190.794 326 190.79C325.751 190.778 325.501 190.821 325.271 190.918C325.041 191.015 324.835 191.163 324.67 191.35C324.645 191.369 324.614 191.381 324.583 191.385C324.551 191.388 324.519 191.383 324.49 191.37Z" fill="#263238"/>
<path d="M331.61 192.551C331.61 192.881 331.44 193.161 331.22 193.181C331 193.201 330.82 192.931 330.82 192.601C330.82 192.271 330.99 191.981 331.21 191.971C331.43 191.961 331.6 192.211 331.61 192.551Z" fill="#263238"/>
<path d="M332.86 191.371C332.894 191.37 332.928 191.359 332.957 191.34C332.985 191.321 333.007 191.294 333.021 191.262C333.035 191.231 333.039 191.196 333.034 191.162C333.028 191.128 333.013 191.096 332.99 191.071C332.801 190.829 332.555 190.638 332.274 190.514C331.993 190.391 331.686 190.338 331.38 190.361C331.327 190.37 331.28 190.399 331.246 190.441C331.213 190.484 331.197 190.537 331.2 190.591C331.203 190.616 331.21 190.64 331.222 190.662C331.234 190.684 331.25 190.704 331.27 190.72C331.289 190.735 331.312 190.747 331.336 190.754C331.36 190.761 331.385 190.763 331.41 190.761C331.651 190.743 331.893 190.785 332.115 190.883C332.336 190.98 332.53 191.131 332.68 191.321C332.703 191.345 332.731 191.362 332.763 191.371C332.795 191.38 332.828 191.38 332.86 191.371Z" fill="#263238"/>
<path d="M335.57 192.001L335.49 192.131C333.49 185.271 329.32 186.481 329.32 186.481L332.32 187.851C329.647 187.906 327.004 187.268 324.65 186.001C323.22 191.361 320.92 192.601 320.92 192.601V192.001C320.92 178.821 326.28 180.441 329.47 181.001C331.24 181.311 335.92 181.851 336.23 179.071C336.17 179.001 337.46 186.741 335.57 192.001Z" fill="#263238"/>
<path d="M321.94 192.561C322.194 192.985 322.295 193.482 322.228 193.971C322.161 194.46 321.929 194.912 321.57 195.251C320.87 195.691 319.92 195.181 319.43 194.131C319.178 193.706 319.078 193.208 319.147 192.719C319.216 192.23 319.45 191.779 319.81 191.441C320.5 191.001 321.46 191.501 321.94 192.561Z" fill="#FFB573"/>
<path d="M334.25 192.561C333.65 193.611 333.69 194.821 334.34 195.251C334.99 195.681 336 195.181 336.6 194.131C337.2 193.081 337.15 191.871 336.5 191.441C335.85 191.011 334.85 191.501 334.25 192.561Z" fill="#FFB573"/>
<path d="M328.17 208.561C331.502 208.54 334.699 207.24 337.1 204.931C335.503 204.137 333.744 203.723 331.96 203.721C330.697 204.405 329.277 204.75 327.84 204.721C326.47 204.781 325.113 204.433 323.94 203.721C322.365 203.658 320.798 203.974 319.37 204.641C320.472 205.885 321.827 206.879 323.345 207.555C324.863 208.231 326.508 208.574 328.17 208.561Z" fill="#CFB3FF"/>
<path d="M354.9 160.579H263.48C262.744 160.587 262.015 160.443 261.337 160.157C260.659 159.87 260.048 159.446 259.542 158.911C259.036 158.377 258.646 157.744 258.396 157.052C258.146 156.36 258.042 155.623 258.09 154.889L265 22.5087C265.094 20.9768 265.765 19.5375 266.879 18.4814C267.992 17.4253 269.465 16.831 271 16.8187H362.42C363.156 16.8102 363.886 16.954 364.563 17.2409C365.241 17.5278 365.852 17.9517 366.358 18.486C366.865 19.0203 367.255 19.6534 367.505 20.3457C367.754 21.0379 367.858 21.7743 367.81 22.5087L360.9 154.889C360.802 156.419 360.129 157.856 359.016 158.911C357.904 159.966 356.433 160.562 354.9 160.579Z" fill="#CFB3FF"/>
<path opacity="0.4" d="M354.9 160.579H263.48C262.744 160.587 262.015 160.443 261.337 160.157C260.659 159.87 260.048 159.446 259.542 158.911C259.036 158.377 258.646 157.744 258.396 157.052C258.146 156.36 258.042 155.623 258.09 154.889L265 22.5087C265.094 20.9768 265.765 19.5375 266.879 18.4814C267.992 17.4253 269.465 16.831 271 16.8187H362.42C363.156 16.8102 363.886 16.954 364.563 17.2409C365.241 17.5278 365.852 17.9517 366.358 18.486C366.865 19.0203 367.255 19.6534 367.505 20.3457C367.754 21.0379 367.858 21.7743 367.81 22.5087L360.9 154.889C360.802 156.419 360.129 157.856 359.016 158.911C357.904 159.966 356.433 160.562 354.9 160.579Z" fill="white"/>
<path d="M352.9 158.579H261.48C260.744 158.587 260.015 158.443 259.337 158.157C258.659 157.87 258.048 157.446 257.542 156.911C257.036 156.377 256.646 155.744 256.396 155.052C256.146 154.36 256.042 153.623 256.09 152.889L263 20.5087C263.094 18.9768 263.765 17.5375 264.879 16.4814C265.992 15.4253 267.465 14.831 269 14.8187H360.42C361.156 14.8102 361.886 14.954 362.563 15.2409C363.241 15.5278 363.852 15.9517 364.358 16.486C364.865 17.0203 365.255 17.6534 365.505 18.3457C365.754 19.0379 365.858 19.7744 365.81 20.5087L358.9 152.889C358.802 154.419 358.129 155.856 357.016 156.911C355.904 157.966 354.433 158.562 352.9 158.579Z" fill="#CFB3FF"/>
<path opacity="0.9" d="M352.9 158.579H261.48C260.744 158.587 260.015 158.443 259.337 158.157C258.659 157.87 258.048 157.446 257.542 156.911C257.036 156.377 256.646 155.744 256.396 155.052C256.146 154.36 256.042 153.623 256.09 152.889L263 20.5087C263.094 18.9768 263.765 17.5375 264.879 16.4814C265.992 15.4253 267.465 14.831 269 14.8187H360.42C361.156 14.8102 361.886 14.954 362.563 15.2409C363.241 15.5278 363.852 15.9517 364.358 16.486C364.865 17.0203 365.255 17.6534 365.505 18.3457C365.754 19.0379 365.858 19.7744 365.81 20.5087L358.9 152.889C358.802 154.419 358.129 155.856 357.016 156.911C355.904 157.966 354.433 158.562 352.9 158.579Z" fill="white"/>
<path d="M355.06 120.17H263.36L268.05 30.5703H359.75L355.06 120.17Z" fill="#CFB3FF"/>
<path d="M280.34 23.3098H296.79C297.46 23.3098 297.52 22.2598 296.79 22.2598H280.39C279.72 22.2598 279.66 23.3098 280.34 23.3098Z" fill="#263238"/>
<g opacity="0.5">
<path d="M280.34 23.3098H296.79C297.46 23.3098 297.52 22.2598 296.79 22.2598H280.39C279.72 22.2598 279.66 23.3098 280.34 23.3098Z" fill="white"/>
</g>
<path d="M280.17 26.5502H292.59C293.27 26.5502 293.33 25.4902 292.65 25.4902H280.22C279.55 25.4902 279.49 26.5502 280.17 26.5502Z" fill="#263238"/>
<g opacity="0.5">
<path d="M280.17 26.5502H292.59C293.27 26.5502 293.33 25.4902 292.65 25.4902H280.22C279.55 25.4902 279.49 26.5502 280.17 26.5502Z" fill="white"/>
</g>
<path d="M311.62 139.33H325.27C326.27 139.33 326.37 137.76 325.35 137.76H311.71C310.71 137.76 310.61 139.33 311.62 139.33Z" fill="#CFB3FF"/>
<path d="M262.62 134.26H281.87C282.87 134.26 282.97 132.68 281.95 132.68H262.7C261.7 132.68 261.6 134.26 262.62 134.26Z" fill="#263238"/>
<path d="M262.35 139.33H308.2C309.2 139.33 309.3 137.76 308.28 137.76H262.44C261.44 137.76 261.34 139.33 262.35 139.33Z" fill="#263238"/>
<path d="M262.09 144.41H295.26C296.26 144.41 296.35 142.83 295.34 142.83H262.17C261.17 142.83 261.07 144.41 262.09 144.41Z" fill="#263238"/>
<path d="M261.82 149.48H274.69C275.69 149.48 275.79 147.91 274.77 147.91H261.9C260.9 147.91 260.81 149.48 261.82 149.48Z" fill="#263238"/>
<g opacity="0.5">
<path d="M262.62 134.26H281.87C282.87 134.26 282.97 132.68 281.95 132.68H262.7C261.7 132.68 261.6 134.26 262.62 134.26Z" fill="white"/>
</g>
<g opacity="0.5">
<path d="M262.35 139.33H308.2C309.2 139.33 309.3 137.76 308.28 137.76H262.44C261.44 137.76 261.34 139.33 262.35 139.33Z" fill="white"/>
</g>
<g opacity="0.5">
<path d="M262.09 144.41H295.26C296.26 144.41 296.35 142.83 295.34 142.83H262.17C261.17 142.83 261.07 144.41 262.09 144.41Z" fill="white"/>
</g>
<g opacity="0.5">
<path d="M261.82 149.48H274.69C275.69 149.48 275.79 147.91 274.77 147.91H261.9C260.9 147.91 260.81 149.48 261.82 149.48Z" fill="white"/>
</g>
<path d="M360 25.8503C359.99 25.9901 359.928 26.121 359.826 26.2173C359.724 26.3136 359.59 26.3682 359.45 26.3703C359.382 26.3718 359.315 26.3592 359.252 26.3334C359.19 26.3075 359.133 26.2689 359.086 26.22C359.039 26.1712 359.003 26.1131 358.979 26.0494C358.956 25.9858 358.946 25.918 358.95 25.8503C358.958 25.7088 359.019 25.5754 359.121 25.477C359.223 25.3786 359.358 25.3226 359.5 25.3203C359.568 25.3202 359.636 25.334 359.699 25.361C359.761 25.388 359.818 25.4275 359.865 25.4772C359.912 25.5268 359.948 25.5856 359.971 25.6497C359.994 25.7139 360.004 25.7822 360 25.8503Z" fill="#263238"/>
<path d="M360.08 24.2096C360.073 24.3511 360.012 24.4845 359.91 24.5829C359.808 24.6813 359.672 24.7373 359.53 24.7396C359.462 24.7397 359.394 24.7259 359.332 24.6989C359.269 24.6719 359.212 24.6324 359.166 24.5827C359.119 24.5331 359.083 24.4743 359.059 24.4102C359.036 24.346 359.026 24.2777 359.03 24.2096C359.043 24.069 359.107 23.9379 359.21 23.8418C359.314 23.7458 359.449 23.6915 359.59 23.6896C359.658 23.688 359.725 23.7005 359.787 23.7265C359.849 23.7524 359.905 23.7912 359.951 23.8403C359.997 23.8893 360.033 23.9476 360.055 24.0112C360.077 24.0748 360.086 24.1424 360.08 24.2096Z" fill="#263238"/>
<path d="M360.17 22.5788C360.16 22.7186 360.098 22.8495 359.996 22.9458C359.894 23.0421 359.76 23.0967 359.62 23.0988C359.552 23.1003 359.485 23.0878 359.422 23.0619C359.36 23.036 359.303 22.9974 359.256 22.9486C359.209 22.8997 359.173 22.8416 359.149 22.778C359.126 22.7143 359.116 22.6465 359.12 22.5788C359.13 22.4381 359.192 22.306 359.293 22.2081C359.395 22.1102 359.529 22.0534 359.67 22.0488C359.738 22.0487 359.806 22.0626 359.869 22.0895C359.931 22.1165 359.988 22.1561 360.035 22.2057C360.082 22.2554 360.118 22.3141 360.141 22.3783C360.164 22.4424 360.174 22.5107 360.17 22.5788Z" fill="#263238"/>
<g opacity="0.5">
<path d="M360 25.8484C359.99 25.9881 359.928 26.1191 359.826 26.2153C359.724 26.3116 359.59 26.3662 359.45 26.3683C359.382 26.3699 359.315 26.3573 359.252 26.3314C359.19 26.3056 359.133 26.267 359.086 26.2181C359.039 26.1692 359.003 26.1111 358.979 26.0475C358.956 25.9838 358.946 25.916 358.95 25.8484C358.958 25.7068 359.019 25.5734 359.121 25.475C359.223 25.3767 359.358 25.3207 359.5 25.3184C359.568 25.3182 359.636 25.3321 359.699 25.3591C359.761 25.3861 359.818 25.4256 359.865 25.4752C359.912 25.5249 359.948 25.5836 359.971 25.6478C359.994 25.712 360.004 25.7802 360 25.8484Z" fill="white"/>
<path d="M360.08 24.2096C360.073 24.3511 360.012 24.4845 359.91 24.5829C359.808 24.6813 359.672 24.7373 359.53 24.7396C359.462 24.7397 359.394 24.7259 359.332 24.6989C359.269 24.6719 359.212 24.6324 359.166 24.5827C359.119 24.5331 359.083 24.4743 359.059 24.4102C359.036 24.346 359.026 24.2777 359.03 24.2096C359.043 24.069 359.107 23.9379 359.21 23.8418C359.314 23.7458 359.449 23.6915 359.59 23.6896C359.658 23.688 359.725 23.7005 359.787 23.7265C359.849 23.7524 359.905 23.7912 359.951 23.8403C359.997 23.8893 360.033 23.9476 360.055 24.0112C360.077 24.0748 360.086 24.1424 360.08 24.2096Z" fill="white"/>
<path d="M360.17 22.5788C360.16 22.7186 360.098 22.8495 359.996 22.9458C359.894 23.0421 359.76 23.0967 359.62 23.0988C359.552 23.1003 359.485 23.0878 359.422 23.0619C359.36 23.036 359.303 22.9974 359.256 22.9486C359.209 22.8997 359.173 22.8416 359.149 22.778C359.126 22.7143 359.116 22.6465 359.12 22.5788C359.13 22.4381 359.192 22.306 359.293 22.2081C359.395 22.1102 359.529 22.0534 359.67 22.0488C359.738 22.0487 359.806 22.0626 359.869 22.0895C359.931 22.1165 359.988 22.1561 360.035 22.2057C360.082 22.2554 360.118 22.3141 360.141 22.3783C360.164 22.4424 360.174 22.5107 360.17 22.5788Z" fill="white"/>
</g>
<path d="M277.85 129.179C277.443 129.179 277.041 129.097 276.666 128.937C276.292 128.777 275.955 128.543 275.674 128.248C275.393 127.953 275.176 127.605 275.034 127.223C274.892 126.842 274.83 126.435 274.85 126.029C274.905 125.184 275.276 124.391 275.89 123.807C276.503 123.224 277.314 122.892 278.16 122.879C278.567 122.878 278.97 122.961 279.344 123.121C279.718 123.281 280.056 123.515 280.336 123.81C280.617 124.105 280.835 124.453 280.976 124.835C281.118 125.216 281.181 125.622 281.16 126.029C281.137 126.426 281.042 126.816 280.88 127.179L281.07 129.179L279.17 128.899C278.754 129.082 278.305 129.177 277.85 129.179ZM278.16 123.179C277.408 123.192 276.689 123.487 276.145 124.006C275.6 124.525 275.27 125.229 275.22 125.979C275.197 126.34 275.248 126.702 275.371 127.042C275.494 127.383 275.686 127.694 275.935 127.957C276.183 128.22 276.484 128.428 276.817 128.57C277.15 128.711 277.508 128.782 277.87 128.779C278.293 128.778 278.71 128.682 279.09 128.499H279.14L280.69 128.729L280.53 127.109C280.688 126.773 280.779 126.41 280.8 126.039C280.823 125.678 280.772 125.317 280.65 124.976C280.528 124.636 280.337 124.325 280.09 124.061C279.842 123.798 279.543 123.588 279.211 123.445C278.879 123.302 278.522 123.228 278.16 123.229V123.179Z" fill="#263238"/>
<path d="M305.67 126.86C305.66 127.073 305.568 127.274 305.413 127.422C305.259 127.569 305.054 127.651 304.84 127.65C304.738 127.65 304.637 127.63 304.544 127.59C304.45 127.549 304.365 127.491 304.295 127.417C304.225 127.343 304.171 127.255 304.135 127.16C304.1 127.064 304.085 126.962 304.09 126.86C304.107 126.65 304.201 126.453 304.354 126.307C304.508 126.161 304.709 126.077 304.92 126.07C305.022 126.07 305.123 126.091 305.217 126.131C305.31 126.171 305.395 126.23 305.465 126.304C305.535 126.378 305.59 126.465 305.625 126.561C305.66 126.657 305.676 126.759 305.67 126.86Z" fill="#263238"/>
<path d="M309 126.86C308.99 127.073 308.898 127.274 308.743 127.422C308.589 127.569 308.384 127.651 308.17 127.65C308.069 127.651 307.968 127.63 307.875 127.59C307.782 127.549 307.698 127.49 307.628 127.416C307.559 127.342 307.506 127.255 307.471 127.159C307.437 127.063 307.423 126.962 307.43 126.86C307.443 126.648 307.536 126.448 307.69 126.302C307.844 126.155 308.048 126.072 308.26 126.07C308.362 126.07 308.462 126.091 308.555 126.131C308.649 126.171 308.733 126.23 308.802 126.304C308.871 126.379 308.925 126.466 308.959 126.562C308.993 126.657 309.007 126.759 309 126.86Z" fill="#CFB3FF"/>
<path d="M312.28 126.86C312.265 127.072 312.172 127.27 312.018 127.416C311.865 127.562 311.662 127.646 311.45 127.65C311.348 127.652 311.246 127.632 311.152 127.593C311.057 127.553 310.972 127.494 310.902 127.42C310.831 127.346 310.777 127.258 310.742 127.161C310.708 127.065 310.693 126.962 310.7 126.86C310.715 126.649 310.808 126.451 310.962 126.304C311.116 126.158 311.318 126.075 311.53 126.07C311.632 126.07 311.733 126.091 311.827 126.131C311.92 126.171 312.005 126.23 312.075 126.304C312.145 126.378 312.2 126.465 312.235 126.561C312.27 126.657 312.286 126.759 312.28 126.86Z" fill="#263238"/>
<path opacity="0.7" d="M305.67 126.86C305.66 127.073 305.568 127.274 305.413 127.422C305.259 127.569 305.054 127.651 304.84 127.65C304.738 127.65 304.637 127.63 304.544 127.59C304.45 127.549 304.365 127.491 304.295 127.417C304.225 127.343 304.171 127.255 304.135 127.16C304.1 127.064 304.085 126.962 304.09 126.86C304.107 126.65 304.201 126.453 304.354 126.307C304.508 126.161 304.709 126.077 304.92 126.07C305.022 126.07 305.123 126.091 305.217 126.131C305.31 126.171 305.395 126.23 305.465 126.304C305.535 126.378 305.59 126.465 305.625 126.561C305.66 126.657 305.676 126.759 305.67 126.86Z" fill="white"/>
<path opacity="0.7" d="M312.28 126.86C312.265 127.072 312.172 127.27 312.018 127.416C311.865 127.562 311.662 127.646 311.45 127.65C311.348 127.652 311.246 127.632 311.152 127.593C311.057 127.553 310.972 127.494 310.902 127.42C310.831 127.346 310.777 127.258 310.742 127.161C310.708 127.065 310.693 126.962 310.7 126.86C310.715 126.649 310.808 126.451 310.962 126.304C311.116 126.158 311.318 126.075 311.53 126.07C311.632 126.07 311.733 126.091 311.827 126.131C311.92 126.171 312.005 126.23 312.075 126.304C312.145 126.378 312.2 126.465 312.235 126.561C312.27 126.657 312.286 126.759 312.28 126.86Z" fill="white"/>
<path d="M269.32 123.51C267.471 123.416 265.619 123.416 263.77 123.51C263.382 123.853 263.142 124.333 263.101 124.85C263.059 125.367 263.221 125.879 263.55 126.28L263.63 126.37L266.26 129.15L269.18 126.37L269.27 126.28C269.634 125.914 269.843 125.421 269.852 124.905C269.862 124.388 269.671 123.888 269.32 123.51Z" fill="#CFB3FF"/>
<path d="M354.76 129.14L351.93 126.94L348.87 129.14L349.19 122.93H355.09L354.76 129.14ZM349.53 123.28L349.26 128.44L352 126.5L354.5 128.44L354.77 123.28H349.53Z" fill="#263238"/>
<path d="M277.14 24.1789C277.067 25.3562 276.551 26.4622 275.696 27.2747C274.841 28.0872 273.71 28.546 272.53 28.5589C271.964 28.5642 271.404 28.4527 270.883 28.2313C270.362 28.0099 269.893 27.6835 269.504 27.2723C269.116 26.8611 268.816 26.3741 268.625 25.8419C268.433 25.3096 268.353 24.7434 268.39 24.1789C268.463 23.0042 268.978 21.9007 269.832 21.0901C270.685 20.2795 271.813 19.8218 272.99 19.8089C273.556 19.8022 274.117 19.9125 274.638 20.1326C275.159 20.3528 275.629 20.6782 276.019 21.0884C276.408 21.4986 276.709 21.9848 276.902 22.5166C277.095 23.0484 277.176 23.6143 277.14 24.1789Z" fill="#CFB3FF"/>
<path d="M272.53 28.5597C273.437 28.559 274.323 28.2835 275.07 27.7697L274.9 26.3997C274.873 26.154 274.756 25.927 274.571 25.7627C274.386 25.5983 274.147 25.5082 273.9 25.5097H273.38V24.9397C273.688 24.7763 273.947 24.5353 274.133 24.2406C274.319 23.9459 274.425 23.6078 274.44 23.2597C274.466 23.0371 274.447 22.8115 274.382 22.5968C274.318 22.3821 274.211 22.1828 274.066 22.0113C273.922 21.8398 273.744 21.6998 273.543 21.5997C273.343 21.4997 273.124 21.4418 272.9 21.4297C272.433 21.4598 271.994 21.665 271.672 22.0042C271.349 22.3434 271.167 22.7917 271.16 23.2597C271.131 23.5957 271.199 23.933 271.357 24.2311C271.515 24.5291 271.756 24.7752 272.05 24.9397V25.5097H271.53C271.27 25.5097 271.018 25.5977 270.815 25.7594C270.611 25.921 270.469 26.1467 270.41 26.3997L270.1 27.7697C270.805 28.2852 271.657 28.5619 272.53 28.5597Z" fill="white"/>
<path d="M286.59 124.59L289.59 126.37L291.2 129.48L293.57 122.58L286.59 124.59ZM287.47 124.7L292.7 123.2L289.7 126.02L287.47 124.7ZM291.16 128.59L289.96 126.27L292.96 123.45L291.16 128.59Z" fill="#263238"/>
<path d="M321.44 120.17C321.107 116.675 320.417 113.224 319.38 109.87L290.12 108C290.12 108 289.33 111.12 287.94 120.13L321.44 120.17Z" fill="white"/>
<path d="M304.55 31.7394C304.55 31.7394 301.92 26.6494 310.25 22.4894C318.58 18.3294 328.85 23.3094 327.64 34.0894C326.43 44.8694 337.12 53.4094 329.4 61.4294C321.68 69.4494 297.01 67.7194 297.61 57.4994C298.33 45.2094 301.83 45.0894 303.04 39.2894C304.25 33.4894 304.55 31.7394 304.55 31.7394Z" fill="#263238"/>
<path d="M270.87 78.7499C270.87 78.7499 266.66 72.2599 266.2 72.0499C264.88 71.4299 263.2 70.6899 262.64 69.4499C262.08 68.2099 260.2 66.4999 260.81 64.2799C261.42 62.0599 264.81 60.8199 265.94 60.4499C267.07 60.0799 269.81 61.9299 270.45 63.9099C270.839 65.814 270.943 67.7652 270.76 69.6999L275.36 74.3699L270.87 78.7499Z" fill="#FFC3BD"/>
<path d="M269.54 78.1288C271.68 81.8388 274.87 86.3588 278.46 87.3188C283.98 88.7988 295.2 74.7388 295.2 74.7388C295.2 74.7388 304.02 53.5688 296.87 58.1488C293.25 60.4788 289.54 64.9988 285.76 71.2888C281.98 77.5788 280.84 78.0688 279.13 77.6988C278.28 77.5188 276.47 74.9888 274.83 73.2488L269.54 78.1288Z" fill="#263238"/>
<path opacity="0.2" d="M269.54 78.1288C271.68 81.8388 274.87 86.3588 278.46 87.3188C283.98 88.7988 295.2 74.7388 295.2 74.7388C295.2 74.7388 304.02 53.5688 296.87 58.1488C293.25 60.4788 289.54 64.9988 285.76 71.2888C281.98 77.5788 280.84 78.0688 279.13 77.6988C278.28 77.5188 276.47 74.9888 274.83 73.2488L269.54 78.1288Z" fill="black"/>
<path opacity="0.5" d="M297 70.1899L294.32 68.9199L289.91 71.5999C289.91 71.5999 288.02 81.3599 283.78 85.7799C289.18 82.3399 295.25 74.7799 295.25 74.7799C295.25 74.7799 296 72.7799 297 70.1899Z" fill="black"/>
<path d="M317.35 43.1699C316.2 47.3599 314.91 53.5099 317.64 56.3999C317.64 56.3999 317.16 60.6899 304.89 65.0499C301.07 58.7899 304.51 56.0499 304.51 56.0499C309.31 55.0499 309.32 53.1299 308.76 49.8299L317.35 43.1699Z" fill="#FFC3BD"/>
<path opacity="0.2" d="M313.86 45.8594L308.81 49.8594C308.957 50.6274 309.034 51.4073 309.04 52.1894C310.86 51.9794 313.8 50.5194 314.34 48.5694C314.414 47.6399 314.249 46.7069 313.86 45.8594Z" fill="black"/>
<path d="M323.4 36.0687C320.98 42.9287 320.1 45.8787 315.61 48.6187C308.84 52.7587 301.07 48.7187 301.42 41.3787C301.74 34.7787 305.65 24.6287 313.18 23.4987C314.427 23.2684 315.708 23.2984 316.943 23.5867C318.178 23.875 319.34 24.4155 320.356 25.1743C321.372 25.933 322.22 26.8936 322.847 27.9957C323.474 29.0978 323.867 30.3177 324 31.5787C324.146 33.1016 323.941 34.6377 323.4 36.0687Z" fill="#FFC3BD"/>
<path d="M311.92 35.2905C311.75 35.8505 311.32 36.2905 310.92 36.1605C310.52 36.0305 310.39 35.5405 310.54 34.9705C310.69 34.4005 311.14 34.0205 311.54 34.1005C311.94 34.1805 312 34.7405 311.92 35.2905Z" fill="#263238"/>
<path d="M305.59 33.7987C305.42 34.3687 304.99 34.7487 304.59 34.6687C304.19 34.5887 304.06 34.0487 304.22 33.4787C304.38 32.9087 304.81 32.5287 305.22 32.6187C305.63 32.7087 305.75 33.2287 305.59 33.7987Z" fill="#263238"/>
<path d="M307.25 35.2891C306.372 36.462 305.347 37.5173 304.2 38.4291C304.434 38.7034 304.726 38.9227 305.054 39.0713C305.383 39.22 305.74 39.2943 306.1 39.2891L307.25 35.2891Z" fill="#ED893E"/>
<path d="M308.51 42.2299C308.227 42.2093 307.945 42.1624 307.67 42.0899C307.648 42.0865 307.627 42.0784 307.608 42.0661C307.589 42.0539 307.573 42.0378 307.561 42.019C307.548 42.0001 307.54 41.9788 307.537 41.9566C307.533 41.9343 307.534 41.9116 307.54 41.8899C307.558 41.8478 307.589 41.813 307.629 41.7912C307.669 41.7693 307.715 41.7618 307.76 41.7699C308.47 41.9449 309.211 41.9548 309.925 41.7988C310.639 41.6428 311.308 41.325 311.88 40.8699C311.912 40.8381 311.955 40.8203 312 40.8203C312.045 40.8203 312.088 40.8381 312.12 40.8699C312.153 40.9034 312.171 40.9483 312.171 40.9949C312.171 41.0415 312.153 41.0863 312.12 41.1199C311.108 41.9476 309.812 42.3461 308.51 42.2299Z" fill="#263238"/>
<path d="M314.83 34.5989C314.757 34.5975 314.688 34.5707 314.633 34.5232C314.578 34.4757 314.542 34.4105 314.53 34.3389C314.359 33.8232 314.078 33.3507 313.707 32.9537C313.336 32.5567 312.883 32.2447 312.38 32.0389C312.339 32.0225 312.301 31.998 312.27 31.9668C312.238 31.9355 312.213 31.8983 312.196 31.8572C312.18 31.8161 312.171 31.7721 312.172 31.7277C312.173 31.6833 312.182 31.6395 312.2 31.5989C312.236 31.5147 312.302 31.4471 312.385 31.4099C312.469 31.3728 312.564 31.3688 312.65 31.3989C313.257 31.6399 313.802 32.0152 314.244 32.4966C314.685 32.978 315.012 33.5532 315.2 34.1789C315.213 34.2684 315.193 34.3596 315.143 34.4351C315.093 34.5107 315.017 34.5654 314.93 34.5889C314.898 34.6007 314.864 34.6042 314.83 34.5989Z" fill="#263238"/>
<path d="M304.54 30.3891C304.481 30.3847 304.424 30.3648 304.375 30.3315C304.326 30.2981 304.286 30.2525 304.26 30.1991C304.228 30.1138 304.229 30.0196 304.262 29.9347C304.295 29.8498 304.359 29.7802 304.44 29.7392C304.926 29.4783 305.469 29.3418 306.02 29.3418C306.572 29.3418 307.114 29.4783 307.6 29.7392C307.637 29.7606 307.668 29.7893 307.693 29.8234C307.718 29.8575 307.736 29.8964 307.745 29.9376C307.755 29.9788 307.755 30.0215 307.748 30.063C307.74 30.1045 307.724 30.1441 307.7 30.1791C307.653 30.256 307.577 30.3114 307.489 30.3338C307.402 30.3561 307.309 30.3437 307.23 30.2991C306.846 30.1041 306.421 30.0025 305.99 30.0025C305.559 30.0025 305.135 30.1041 304.75 30.2991C304.693 30.3525 304.619 30.3843 304.54 30.3891Z" fill="#263238"/>
<path d="M289.2 111.429C289.2 111.429 287.94 68.5086 291.74 62.9586C295.54 57.4086 303.13 53.8986 313.97 55.3786C324.81 56.8586 329.51 58.8886 327.78 67.2186C326.05 75.5486 320.89 114.019 320.89 114.019C320.89 114.019 301 116.799 289.2 111.429Z" fill="#263238"/>
<path opacity="0.2" d="M289.2 111.429C289.2 111.429 287.94 68.5086 291.74 62.9586C295.54 57.4086 303.13 53.8986 313.97 55.3786C324.81 56.8586 329.51 58.8886 327.78 67.2186C326.05 75.5486 320.89 114.019 320.89 114.019C320.89 114.019 301 116.799 289.2 111.429Z" fill="black"/>
<path d="M304.49 56.2994L305.49 53.8994C305.689 53.4203 306.031 53.0148 306.47 52.7389C306.909 52.463 307.423 52.3304 307.94 52.3594L316.73 52.9994C317.303 53.0504 317.834 53.3239 318.208 53.7614C318.582 54.1988 318.769 54.7653 318.73 55.3394L318.59 57.9694L304.49 56.2994Z" fill="#263238"/>
<path opacity="0.2" d="M304.49 56.2994L305.49 53.8994C305.689 53.4203 306.031 53.0148 306.47 52.7389C306.909 52.463 307.423 52.3304 307.94 52.3594L316.73 52.9994C317.303 53.0504 317.834 53.3239 318.208 53.7614C318.582 54.1988 318.769 54.7653 318.73 55.3394L318.59 57.9694L304.49 56.2994Z" fill="black"/>
<path opacity="0.5" d="M327.4 69.2195L327.22 68.5895L324.5 66.5195L321.34 68.5895L325 84.9195C325.87 78.6195 326.76 72.7795 327.4 69.2195Z" fill="black"/>
<path d="M326.09 103.389L323 107.179C323 107.179 317.87 108.179 316.91 109.579C315.95 110.979 312.58 113.749 315.08 115.319C316.198 116.088 317.545 116.45 318.898 116.345C320.25 116.239 321.526 115.672 322.51 114.739C324.56 112.819 325.51 111.529 325.72 110.419L330.29 105.699L326.09 103.389Z" fill="#FFC3BD"/>
<path d="M313.38 22.4892C313.38 22.4892 302.71 23.0392 306.16 28.5892C306.16 28.5892 311.58 28.1292 314.4 30.8092C314.4 30.8092 314.78 27.1992 317.46 27.1992C317.46 27.1992 313.56 30.9792 317.03 35.2892C320.5 39.5992 317.26 41.5292 317.26 41.5292C317.26 41.5292 318.98 42.3692 320.51 39.5992L322.88 39.2892L324.59 34.6792L324.91 28.6792L323.18 25.6792L320.46 23.3292L316.78 22.4492L313.38 22.4892Z" fill="#263238"/>
<path d="M323.74 41.8691C322.95 43.0088 321.762 43.8114 320.41 44.1191C318.63 44.4891 317.94 42.8891 318.6 41.2691C319.22 39.8191 320.88 37.8791 322.6 38.1991C322.893 38.2648 323.169 38.39 323.412 38.5669C323.654 38.7437 323.857 38.9686 324.009 39.2274C324.161 39.4862 324.258 39.7734 324.295 40.0713C324.331 40.3692 324.306 40.6714 324.22 40.9591C324.126 41.2928 323.962 41.6028 323.74 41.8691Z" fill="#FFC3BD"/>
<path d="M323.08 57.3796C323.08 57.3796 330.53 59.4496 336.36 80.0496C342.19 100.65 328.85 108.05 328.85 108.05L324.85 103.61C324.85 103.61 330.3 96.0896 329.91 91.6096C329.52 87.1296 325.24 77.1796 325.24 77.1796C325.24 77.1796 313.85 56.1796 323.08 57.3796Z" fill="#263238"/>
<path opacity="0.2" d="M323.08 57.3796C323.08 57.3796 330.53 59.4496 336.36 80.0496C342.19 100.65 328.85 108.05 328.85 108.05L324.85 103.61C324.85 103.61 330.3 96.0896 329.91 91.6096C329.52 87.1296 325.24 77.1796 325.24 77.1796C325.24 77.1796 313.85 56.1796 323.08 57.3796Z" fill="black"/>
<path d="M325.89 8.59953H311.78C311.08 8.59953 310.99 7.51953 311.68 7.51953H325.8C326.49 7.51953 326.59 8.59953 325.89 8.59953Z" fill="#CFB3FF"/>
<path d="M306.61 8.59953H302.55C301.86 8.59953 301.76 7.51953 302.46 7.51953H306.51C307.21 7.51953 307.31 8.59953 306.61 8.59953Z" fill="#CFB3FF"/>
<g opacity="0.4">
<path d="M325.89 8.59953H311.78C311.08 8.59953 310.99 7.51953 311.68 7.51953H325.8C326.49 7.51953 326.59 8.59953 325.89 8.59953Z" fill="white"/>
</g>
<g opacity="0.4">
<path d="M306.61 8.59953H302.55C301.86 8.59953 301.76 7.51953 302.46 7.51953H306.51C307.21 7.51953 307.31 8.59953 306.61 8.59953Z" fill="white"/>
</g>
<path d="M212.15 294.26L211.91 307.65L218.95 307.23L219.82 295.1L212.15 294.26Z" fill="#FFB573"/>
<path d="M220.23 306.381L211.33 306.221C211.168 306.218 211.01 306.27 210.881 306.368C210.753 306.466 210.66 306.604 210.62 306.761L208.89 314.001C208.815 314.307 208.864 314.631 209.027 314.901C209.19 315.171 209.454 315.365 209.76 315.441H210.01C213.21 315.441 216.07 315.311 220.06 315.391C224.77 315.481 223.56 316.021 229.06 316.201C232.39 316.301 233.06 312.521 231.66 312.311C225.2 311.381 224.56 309.411 222.11 307.051C221.586 306.607 220.917 306.368 220.23 306.381Z" fill="#263238"/>
<path opacity="0.2" d="M212.11 296.371L212.02 301.391L219.36 301.621L219.64 297.601L212.11 296.371Z" fill="black"/>
<path d="M180.73 291.91L178.99 305.18L186.03 305.55L188.25 293.6L180.73 291.91Z" fill="#FFB573"/>
<path d="M187.39 304.851L178.57 303.701C178.41 303.677 178.246 303.711 178.108 303.794C177.969 303.878 177.864 304.008 177.81 304.161L175.27 311.161C175.163 311.456 175.176 311.783 175.307 312.069C175.438 312.355 175.676 312.578 175.97 312.691C176.05 312.721 176.135 312.741 176.22 312.751C179.4 313.111 182.22 313.31 186.22 313.83C190.89 314.45 189.63 314.831 195.11 315.651C198.41 316.131 199.51 312.45 198.11 312.08C191.8 310.43 191.39 308.401 189.21 305.781C188.736 305.261 188.089 304.93 187.39 304.851Z" fill="#263238"/>
<path opacity="0.2" d="M180.45 294L179.8 298.98L187.06 300.03L187.8 296.06L180.45 294Z" fill="black"/>
<path d="M217 57.0001C217 57.0001 203.65 52.7401 200.62 64.5501C197.59 76.3601 198.26 79.6802 192.87 83.9902C198.95 88.0044 206.28 89.6778 213.5 88.7001C213.5 88.7001 220.26 90.3801 224.84 87.9902C229.42 85.6002 227.03 69.7001 225.68 65.3901C224.13 60.5101 220.53 57.0901 217 57.0001Z" fill="#263238"/>
<path d="M221.74 143.171C221.74 143.171 229.49 206.021 227.94 218.421C226.39 230.821 220.71 299.531 220.71 299.531H210.89C210.89 299.531 207.45 240.291 210.89 217.051C210.89 217.051 201.76 163.661 202.8 150.231C203.84 136.801 221.13 138.711 221.74 143.171Z" fill="#263238"/>
<path opacity="0.3" d="M209.43 208.18C211.6 187.18 207.04 163.32 207.04 163.32L203.9 168.86C205.36 182.11 207.85 198.35 209.43 208.18Z" fill="black"/>
<path d="M207.75 172.36C207.75 191 207.57 213.24 205.94 219.93C202.94 232.07 188.43 297.64 188.43 297.64L178.68 296.51C178.68 296.51 183.08 239.18 189.17 216.51C189.17 216.51 187.88 195.04 187.75 175.22C187.75 175.22 181.9 159.22 189.33 139.22C189.33 139.22 205.91 134.52 211.17 141.17C211.17 141.17 207.74 164.35 207.75 172.36Z" fill="#263238"/>
<path d="M234.08 113.85L239.24 129.74C239.24 129.74 248.03 130.9 254.48 128.84C255.323 127.634 256.42 126.627 257.693 125.89C258.966 125.152 260.385 124.702 261.85 124.57C266.62 124.32 267.01 125.09 267.01 125.09C266.908 125.375 266.737 125.631 266.512 125.833C266.287 126.036 266.015 126.179 265.72 126.25C264.72 126.51 262.88 126.77 262.88 126.77C262.88 126.77 263.01 133.23 260.04 134.13C258.27 134.669 256.38 134.669 254.61 134.13C254.61 134.13 240.28 138.01 235.76 136.58C231.24 135.15 227.23 116.22 227.23 116.22L234.08 113.85Z" fill="#FFB573"/>
<path d="M228.33 95.7598C228.33 95.7598 232.18 95.7598 233.56 102.27C234.94 108.78 235.28 110.88 235.28 110.88C235.28 110.88 236.83 111.74 236.28 114.24C234.148 116.447 231.638 118.255 228.87 119.58C224.78 121.39 225.42 95.7798 228.33 95.7598Z" fill="#CFB3FF"/>
<path opacity="0.1" d="M232.31 103.91L228.23 106.36L226 109.94C226.13 115.5 227 120.41 228.91 119.58C230.104 119.047 231.243 118.397 232.31 117.64V103.91Z" fill="black"/>
<path d="M222.37 147.301C222.37 147.301 225.67 131.401 227.37 126.981C228.7 123.501 230.3 121.131 230.99 112.521C231.32 108.371 234.99 97.8806 229.09 95.9906C223.19 94.1006 197.41 88.5806 193.96 92.7206C190.51 96.8606 191.84 121.941 190.69 131.631C190.35 134.501 187.94 142.831 187.94 142.831L222.37 147.301Z" fill="#CFB3FF"/>
<path d="M187.33 104.59L192.33 112.69C192.33 112.69 189.75 121.09 187.94 126.25C187.94 126.25 195.17 132.84 202.53 134.78C202.53 134.78 207.96 134 210.93 135.78C213.9 137.56 213.57 139.14 213.57 139.14C213.57 139.14 209.83 143.44 207.2 142.51C204.57 141.58 203.31 141.59 201.37 139.65C201.37 139.65 180.86 133.97 179.68 129.45C178 123 187.33 104.59 187.33 104.59Z" fill="#FFB573"/>
<path d="M209 77.8906C209.12 82.2306 208.26 89.5306 204.31 90.8906C204.31 90.8906 204.73 95.7706 215.86 102.401C221.18 96.9606 219.34 93.0906 219.34 93.0906C214.04 91.2606 214.55 89.2906 215.91 86.1506L209 77.8906Z" fill="#FFB573"/>
<path d="M198.17 91.7692C198.17 91.7692 193.44 89.6192 186.64 100.899C186.304 100.902 185.974 100.981 185.672 101.129C185.371 101.277 185.107 101.491 184.9 101.755C184.692 102.02 184.547 102.327 184.474 102.655C184.402 102.982 184.404 103.322 184.48 103.649C184.48 103.649 188.62 113.209 193.48 116.219C193.48 116.219 195.98 115.789 194.43 112.949C194.47 112.999 198.86 96.8492 198.17 91.7692Z" fill="#CFB3FF"/>
<path d="M204.44 90.6094C204.44 90.6094 211.17 101.149 215.31 100.979C219.45 100.809 218.94 92.7094 218.94 92.7094L222.02 93.3994C222.02 93.3994 222.45 109.399 216.25 103.049C216.25 103.049 214.66 105.759 210.61 103.999C206.56 102.239 201.85 90.6094 201.85 90.6094H204.44Z" fill="white"/>
<path opacity="0.1" d="M211.09 83.3301C211.738 85.471 213.165 87.291 215.09 88.4301C215.28 87.6311 215.551 86.8537 215.9 86.1101L214 83.8401L211.09 83.3301Z" fill="black"/>
<path d="M204.69 69.7504C205.42 76.9704 205.59 80.0304 209.39 83.5904C215.11 88.9504 223.81 86.4604 225.25 79.1804C226.53 72.6104 225.11 61.8804 217.91 59.3304C216.326 58.7542 214.62 58.5923 212.956 58.8598C211.291 59.1274 209.723 59.8156 208.399 60.8592C207.075 61.9028 206.039 63.2673 205.39 64.8233C204.741 66.3793 204.5 68.0752 204.69 69.7504Z" fill="#FFB573"/>
<path d="M216.29 73.2404C216.29 73.8304 216.65 74.2404 217.03 74.2404C217.41 74.2404 217.71 73.7304 217.69 73.1404C217.67 72.5504 217.33 72.0904 216.95 72.1404C216.57 72.1904 216.3 72.6804 216.29 73.2404Z" fill="#263238"/>
<path d="M222.94 73.0004C222.94 73.6004 223.3 74.0604 223.68 74.0504C224.06 74.0404 224.36 73.5304 224.35 72.9504C224.34 72.3704 223.98 71.8904 223.6 71.9504C223.22 72.0104 222.92 72.4004 222.94 73.0004Z" fill="#263238"/>
<path d="M223.43 71.9307L224.83 71.4707C224.83 71.4707 224.15 72.6007 223.43 71.9307Z" fill="#263238"/>
<path d="M220.94 74.1309C221.522 75.4549 222.282 76.6931 223.2 77.8109C222.906 78.0343 222.567 78.1927 222.207 78.2754C221.846 78.3582 221.473 78.3634 221.11 78.2908L220.94 74.1309Z" fill="#ED893E"/>
<path d="M218 80.7202C218.29 80.7401 218.58 80.7401 218.87 80.7202C218.914 80.7178 218.956 80.6991 218.988 80.6677C219.019 80.6363 219.038 80.5945 219.04 80.5502C219.035 80.5042 219.012 80.4619 218.977 80.4322C218.942 80.4024 218.896 80.3873 218.85 80.3902C218.118 80.4347 217.385 80.3068 216.711 80.0167C216.037 79.7267 215.441 79.2826 214.97 78.7202C214.955 78.7032 214.937 78.6895 214.916 78.6802C214.895 78.6708 214.873 78.666 214.85 78.666C214.827 78.666 214.805 78.6708 214.784 78.6802C214.763 78.6895 214.745 78.7032 214.73 78.7202C214.698 78.752 214.68 78.7952 214.68 78.8402C214.68 78.8852 214.698 78.9283 214.73 78.9602C215.545 79.9549 216.721 80.5874 218 80.7202Z" fill="#263238"/>
<path d="M213.56 72.0001C213.634 72.0108 213.709 71.997 213.774 71.9608C213.839 71.9247 213.89 71.8683 213.92 71.8001C214.218 71.3221 214.612 70.9109 215.076 70.5925C215.541 70.2741 216.067 70.0554 216.62 69.9501C216.711 69.9308 216.791 69.8778 216.845 69.8019C216.899 69.7259 216.922 69.6324 216.91 69.5401C216.902 69.4961 216.885 69.4541 216.86 69.4166C216.835 69.3792 216.803 69.347 216.766 69.3219C216.729 69.2968 216.687 69.2793 216.643 69.2704C216.599 69.2615 216.554 69.2614 216.51 69.2701C215.845 69.3927 215.214 69.6571 214.66 70.0453C214.106 70.4336 213.642 70.9366 213.3 71.5201C213.282 71.5608 213.271 71.6048 213.27 71.6494C213.269 71.6941 213.276 71.7386 213.292 71.7804C213.307 71.8222 213.331 71.8604 213.362 71.893C213.393 71.9255 213.429 71.9518 213.47 71.9701C213.497 71.9876 213.528 71.9979 213.56 72.0001Z" fill="#263238"/>
<path d="M224.81 69.8306C224.873 69.8392 224.936 69.8307 224.994 69.8061C225.053 69.7814 225.103 69.7415 225.14 69.6906C225.193 69.6171 225.215 69.526 225.202 69.4365C225.189 69.3471 225.142 69.2661 225.07 69.2106C224.638 68.8608 224.127 68.6223 223.581 68.5159C223.035 68.4096 222.472 68.4387 221.94 68.6006C221.856 68.6282 221.786 68.6875 221.745 68.7659C221.704 68.8444 221.695 68.9358 221.72 69.0206C221.752 69.106 221.815 69.1756 221.898 69.2148C221.98 69.254 222.074 69.2597 222.16 69.2306C222.58 69.1174 223.02 69.1046 223.446 69.1932C223.872 69.2818 224.27 69.4693 224.61 69.7406C224.665 69.7919 224.735 69.8235 224.81 69.8306Z" fill="#263238"/>
<path d="M216.78 72.2393L218.17 71.7793C218.17 71.7793 217.5 72.8693 216.78 72.2393Z" fill="#263238"/>
<path d="M225.21 66.6693C225.21 66.6693 223.92 62.1893 222.5 60.8393C221.08 59.4893 218.04 57.4793 211.09 58.7293C204.14 59.9793 201.83 76.3993 206.16 74.9093C210.49 73.4193 213.49 67.9093 213.49 67.9093L212.68 70.9093C216.18 69.0393 217.83 64.0293 218.12 63.0793C219.146 64.6811 219.681 66.5475 219.66 68.4493C219.66 68.4493 223.18 66.7093 221.33 63.6493C222.811 64.389 224.13 65.4155 225.21 66.6693Z" fill="#263238"/>
<path d="M203 75.39C203.507 76.6644 204.495 77.6881 205.75 78.24C207.44 78.95 208.51 77.5 208.24 75.78C207.99 74.24 206.81 72.01 205.03 72C204.723 72.0078 204.42 72.076 204.139 72.2009C203.858 72.3257 203.605 72.5047 203.393 72.7276C203.181 72.9505 203.015 73.2129 202.905 73.4998C202.795 73.7868 202.742 74.0927 202.75 74.4C202.757 74.7447 202.843 75.0833 203 75.39Z" fill="#FFB573"/>
<path d="M159.47 225H55.6C54.9147 225.001 54.2364 224.862 53.6072 224.59C52.978 224.319 52.4114 223.921 51.9425 223.421C51.4736 222.921 51.1125 222.33 50.8816 221.685C50.6506 221.04 50.5548 220.354 50.6 219.67L58.6 67.6699C58.686 66.2378 59.3116 64.8915 60.3508 63.9025C61.39 62.9134 62.7654 62.355 64.2 62.3399H168C168.685 62.3384 169.364 62.4778 169.993 62.7494C170.622 63.0211 171.189 63.4192 171.658 63.919C172.126 64.4188 172.488 65.0097 172.718 65.6549C172.949 66.3002 173.045 66.986 173 67.6699L165 219.67C164.913 221.089 164.296 222.424 163.272 223.411C162.249 224.398 160.892 224.965 159.47 225Z" fill="#CFB3FF"/>
<path opacity="0.4" d="M159.47 225H55.6C54.9147 225.001 54.2364 224.862 53.6072 224.59C52.978 224.319 52.4114 223.921 51.9425 223.421C51.4736 222.921 51.1125 222.33 50.8816 221.685C50.6506 221.04 50.5548 220.354 50.6 219.67L58.6 67.6699C58.686 66.2378 59.3116 64.8915 60.3508 63.9025C61.39 62.9134 62.7654 62.355 64.2 62.3399H168C168.685 62.3384 169.364 62.4778 169.993 62.7494C170.622 63.0211 171.189 63.4192 171.658 63.919C172.126 64.4188 172.488 65.0097 172.718 65.6549C172.949 66.3002 173.045 66.986 173 67.6699L165 219.67C164.913 221.089 164.296 222.424 163.272 223.411C162.249 224.398 160.892 224.965 159.47 225Z" fill="white"/>
<path d="M158 223.42H54.1401C53.4547 223.422 52.7764 223.282 52.1472 223.011C51.518 222.739 50.9514 222.341 50.4825 221.841C50.0136 221.341 49.6525 220.75 49.4216 220.105C49.1907 219.46 49.0948 218.774 49.1401 218.09L57.1401 66.0901C57.2261 64.6564 57.8532 63.3087 58.8945 62.3194C59.9358 61.33 61.3138 60.7728 62.7501 60.7601H166.53C167.22 60.7517 167.903 60.886 168.538 61.1546C169.174 61.4232 169.746 61.8203 170.221 62.3209C170.695 62.8214 171.06 63.4147 171.294 64.0634C171.528 64.712 171.626 65.4021 171.58 66.0901L163.58 218.09C163.49 219.517 162.866 220.858 161.832 221.846C160.798 222.833 159.43 223.395 158 223.42Z" fill="#CFB3FF"/>
<path opacity="0.8" d="M158 223.42H54.1401C53.4547 223.422 52.7764 223.282 52.1472 223.011C51.518 222.739 50.9514 222.341 50.4825 221.841C50.0136 221.341 49.6525 220.75 49.4216 220.105C49.1907 219.46 49.0948 218.774 49.1401 218.09L57.1401 66.0901C57.2261 64.6564 57.8532 63.3087 58.8945 62.3194C59.9358 61.33 61.3138 60.7728 62.7501 60.7601H166.53C167.22 60.7517 167.903 60.886 168.538 61.1546C169.174 61.4232 169.746 61.8203 170.221 62.3209C170.695 62.8214 171.06 63.4147 171.294 64.0634C171.528 64.712 171.626 65.4021 171.58 66.0901L163.58 218.09C163.49 219.517 162.866 220.858 161.832 221.846C160.798 222.833 159.43 223.395 158 223.42Z" fill="white"/>
<path d="M160.45 187.04H55.51L59.2 116.6H164.14L160.45 187.04Z" fill="#CFB3FF"/>
<path d="M164.14 116.599H59.2L60.91 83.9492H165.85L164.14 116.599Z" fill="white"/>
<path d="M158.82 218.141H53.8801L55.5101 187.041H160.45L158.82 218.141Z" fill="white"/>
<path d="M165.95 82.0708H61.01L61.82 66.5508H166.76L165.95 82.0708Z" fill="#CFB3FF"/>
<path d="M75.8701 95.6C75.7713 97.2594 75.0463 98.8193 73.8416 99.9646C72.6369 101.11 71.0423 101.755 69.3801 101.77C68.5825 101.779 67.7917 101.622 67.0573 101.311C66.323 101 65.6609 100.54 65.1125 99.9605C64.5642 99.3812 64.1415 98.6949 63.8709 97.9445C63.6003 97.1941 63.4877 96.396 63.5401 95.6C63.6435 93.9424 64.3699 92.3851 65.5736 91.2407C66.7774 90.0964 68.3693 89.4495 70.0301 89.43C70.8277 89.4214 71.6185 89.5777 72.3529 89.8891C73.0872 90.2005 73.7493 90.6602 74.2977 91.2395C74.846 91.8189 75.2687 92.5052 75.5393 93.2556C75.8099 94.0059 75.9225 94.8041 75.8701 95.6Z" fill="#CFB3FF"/>
<path opacity="0.3" d="M75.8701 95.6C75.7713 97.2594 75.0463 98.8193 73.8416 99.9646C72.6369 101.11 71.0423 101.755 69.3801 101.77C68.5825 101.779 67.7917 101.622 67.0573 101.311C66.323 101 65.6609 100.54 65.1125 99.9605C64.5642 99.3812 64.1415 98.6949 63.8709 97.9445C63.6003 97.1941 63.4877 96.396 63.5401 95.6C63.6435 93.9424 64.3699 92.3851 65.5736 91.2407C66.7774 90.0964 68.3693 89.4495 70.0301 89.43C70.8277 89.4214 71.6185 89.5777 72.3529 89.8891C73.0872 90.2005 73.7493 90.6602 74.2977 91.2395C74.846 91.8189 75.2687 92.5052 75.5393 93.2556C75.8099 94.0059 75.9225 94.8041 75.8701 95.6Z" fill="black"/>
<path d="M69.3802 101.771C70.6609 101.768 71.9115 101.382 72.9702 100.661L72.7302 98.7307C72.688 98.3781 72.5163 98.0539 72.2482 97.821C71.9802 97.5881 71.6352 97.4632 71.2802 97.4707H70.5502V96.6707C70.9845 96.4425 71.3514 96.1046 71.6146 95.6905C71.8777 95.2765 72.0279 94.8008 72.0502 94.3107C72.0876 93.9956 72.0599 93.6762 71.9689 93.3722C71.878 93.0683 71.7256 92.7862 71.5213 92.5434C71.3169 92.3007 71.065 92.1024 70.781 91.9609C70.497 91.8194 70.187 91.7376 69.8702 91.7207C69.2112 91.7659 68.5933 92.0573 68.1393 92.5372C67.6854 93.0171 67.4287 93.6502 67.4202 94.3107C67.3804 94.7825 67.4771 95.2558 67.6987 95.6742C67.9203 96.0926 68.2575 96.4385 68.6702 96.6707V97.4707H67.9402C67.5735 97.4724 67.218 97.5977 66.9313 97.8263C66.6446 98.0549 66.4434 98.3736 66.3602 98.7307L65.9202 100.661C66.9258 101.39 68.138 101.779 69.3802 101.771Z" fill="white"/>
<path d="M80.47 94.4292H104.72C105.84 94.4292 105.93 92.6992 104.81 92.6992H80.56C79.45 92.6992 79.35 94.4292 80.47 94.4292Z" fill="black"/>
<g opacity="0.6">
<path d="M80.47 94.4292H104.72C105.84 94.4292 105.93 92.6992 104.81 92.6992H80.56C79.45 92.6992 79.35 94.4292 80.47 94.4292Z" fill="white"/>
</g>
<path d="M82.3702 195.25H125.87C126.61 195.25 126.68 194.1 125.93 194.1H82.4301C81.6901 194.1 81.6302 195.25 82.3702 195.25Z" fill="black"/>
<g opacity="0.6">
<path d="M82.3702 195.25H125.87C126.61 195.25 126.68 194.1 125.93 194.1H82.4301C81.6901 194.1 81.6302 195.25 82.3702 195.25Z" fill="white"/>
</g>
<path d="M136.37 195.25H156.07C156.81 195.25 156.88 194.1 156.13 194.1H136.43C135.69 194.1 135.63 195.25 136.37 195.25Z" fill="black"/>
<g opacity="0.6">
<path d="M136.37 195.25H156.07C156.81 195.25 156.88 194.1 156.13 194.1H136.43C135.69 194.1 135.63 195.25 136.37 195.25Z" fill="white"/>
</g>
<path d="M78.9199 210.941H85C86.11 210.941 86.1999 209.211 85.0899 209.211H79C77.89 209.211 77.79 210.941 78.91 210.941H78.9199Z" fill="black"/>
<g opacity="0.6">
<path d="M78.9199 210.941H85C86.11 210.941 86.1999 209.211 85.0899 209.211H79C77.89 209.211 77.79 210.941 78.91 210.941H78.9199Z" fill="white"/>
</g>
<path d="M137.41 210.941H145.05C146.16 210.941 146.25 209.211 145.14 209.211H137.5C136.39 209.211 136.3 210.941 137.41 210.941Z" fill="black"/>
<g opacity="0.6">
<path d="M137.41 210.941H145.05C146.16 210.941 146.25 209.211 145.14 209.211H137.5C136.39 209.211 136.3 210.941 137.41 210.941Z" fill="white"/>
</g>
<path d="M104.35 210.941H118.77C119.88 210.941 119.97 209.211 118.86 209.211H104.44C103.33 209.211 103.23 210.941 104.35 210.941Z" fill="black"/>
<g opacity="0.6">
<path d="M104.35 210.941H118.77C119.88 210.941 119.97 209.211 118.86 209.211H104.44C103.33 209.211 103.23 210.941 104.35 210.941Z" fill="white"/>
</g>
<path d="M63.4401 108.26H91.8801C92.6201 108.26 92.6801 107.1 91.9401 107.1H63.5001C62.7501 107.1 62.6901 108.26 63.4401 108.26Z" fill="black"/>
<g opacity="0.6">
<path d="M63.4401 108.26H91.8801C92.6201 108.26 92.6801 107.1 91.9401 107.1H63.5001C62.7501 107.1 62.6901 108.26 63.4401 108.26Z" fill="white"/>
</g>
<path d="M80.26 98.4996H112.26C113 98.4996 113.06 97.3496 112.32 97.3496H80.32C79.58 97.3496 79.51 98.4996 80.26 98.4996Z" fill="black"/>
<g opacity="0.6">
<path d="M80.26 98.4996H112.26C113 98.4996 113.06 97.3496 112.32 97.3496H80.32C79.58 97.3496 79.51 98.4996 80.26 98.4996Z" fill="white"/>
</g>
<path d="M118.32 97.9304C118.297 98.2957 118.137 98.6389 117.872 98.8912C117.607 99.1434 117.256 99.286 116.89 99.2904C116.714 99.2921 116.54 99.2575 116.378 99.1889C116.216 99.1202 116.07 99.0189 115.949 98.8913C115.828 98.7637 115.734 98.6125 115.674 98.4472C115.614 98.2818 115.589 98.1059 115.6 97.9304C115.623 97.565 115.783 97.2218 116.048 96.9696C116.313 96.7173 116.664 96.5747 117.03 96.5704C117.206 96.5687 117.38 96.6032 117.542 96.6719C117.704 96.7405 117.85 96.8418 117.971 96.9694C118.092 97.097 118.186 97.2482 118.246 97.4136C118.306 97.5789 118.331 97.7548 118.32 97.9304Z" fill="#263238"/>
<path opacity="0.5" d="M118.32 97.9304C118.297 98.2957 118.137 98.6389 117.872 98.8912C117.607 99.1434 117.256 99.286 116.89 99.2904C116.714 99.2921 116.54 99.2575 116.378 99.1889C116.216 99.1202 116.07 99.0189 115.949 98.8913C115.828 98.7637 115.734 98.6125 115.674 98.4472C115.614 98.2818 115.589 98.1059 115.6 97.9304C115.623 97.565 115.783 97.2218 116.048 96.9696C116.313 96.7173 116.664 96.5747 117.03 96.5704C117.206 96.5687 117.38 96.6032 117.542 96.6719C117.704 96.7405 117.85 96.8418 117.971 96.9694C118.092 97.097 118.186 97.2482 118.246 97.4136C118.306 97.5789 118.331 97.7548 118.32 97.9304Z" fill="white"/>
<path d="M157.68 95.5993C157.605 95.5994 157.531 95.5843 157.462 95.5548C157.394 95.5253 157.332 95.4821 157.28 95.4278C157.229 95.3735 157.189 95.3093 157.163 95.239C157.137 95.1688 157.126 95.094 157.13 95.0193C157.14 94.8646 157.209 94.7195 157.322 94.6136C157.435 94.5078 157.585 94.449 157.74 94.4493C157.814 94.4478 157.888 94.4617 157.957 94.4901C158.026 94.5185 158.088 94.5607 158.139 94.6143C158.191 94.6678 158.231 94.7314 158.257 94.8011C158.283 94.8708 158.294 94.9451 158.29 95.0193C158.28 95.175 158.212 95.3212 158.098 95.4287C157.985 95.5362 157.836 95.5971 157.68 95.5993Z" fill="black"/>
<path d="M159.48 95.5994C159.405 95.601 159.33 95.5868 159.261 95.5578C159.191 95.5288 159.128 95.4856 159.077 95.431C159.025 95.3764 158.985 95.3116 158.96 95.2407C158.935 95.1698 158.924 95.0944 158.93 95.0194C158.94 94.8646 159.009 94.7195 159.122 94.6137C159.235 94.5078 159.385 94.449 159.54 94.4493C159.614 94.4477 159.687 94.4616 159.756 94.4901C159.824 94.5186 159.885 94.561 159.936 94.6147C159.987 94.6684 160.026 94.7321 160.051 94.8018C160.076 94.8715 160.086 94.9456 160.08 95.0194C160.075 95.175 160.009 95.3225 159.897 95.4307C159.785 95.539 159.636 95.5994 159.48 95.5994Z" fill="black"/>
<path d="M161.27 95.5993C161.196 95.5995 161.122 95.5844 161.054 95.5548C160.985 95.5251 160.924 95.4818 160.873 95.4273C160.823 95.3728 160.784 95.3085 160.759 95.2383C160.734 95.1681 160.724 95.0935 160.73 95.0193C160.738 94.8655 160.804 94.7204 160.916 94.6143C161.028 94.5082 161.176 94.4491 161.33 94.4493C161.404 94.4478 161.478 94.4617 161.547 94.4901C161.616 94.5185 161.678 94.5607 161.729 94.6143C161.781 94.6678 161.821 94.7314 161.847 94.8011C161.873 94.8708 161.884 94.9451 161.88 95.0193C161.87 95.175 161.802 95.3212 161.689 95.4287C161.575 95.5362 161.426 95.5971 161.27 95.5993Z" fill="black"/>
<g opacity="0.5">
<path d="M157.68 95.5993C157.605 95.5994 157.531 95.5843 157.462 95.5548C157.394 95.5253 157.332 95.4821 157.28 95.4278C157.229 95.3735 157.189 95.3093 157.163 95.239C157.137 95.1688 157.126 95.094 157.13 95.0193C157.14 94.8646 157.209 94.7195 157.322 94.6136C157.435 94.5078 157.585 94.449 157.74 94.4493C157.814 94.4478 157.888 94.4617 157.957 94.4901C158.026 94.5185 158.088 94.5607 158.139 94.6143C158.191 94.6678 158.231 94.7314 158.257 94.8011C158.283 94.8708 158.294 94.9451 158.29 95.0193C158.28 95.175 158.212 95.3212 158.098 95.4287C157.985 95.5362 157.836 95.5971 157.68 95.5993Z" fill="white"/>
<path d="M159.48 95.5994C159.405 95.601 159.33 95.5868 159.261 95.5578C159.191 95.5288 159.128 95.4856 159.077 95.431C159.025 95.3764 158.985 95.3116 158.96 95.2407C158.935 95.1698 158.924 95.0944 158.93 95.0194C158.94 94.8646 159.009 94.7195 159.122 94.6137C159.235 94.5078 159.385 94.449 159.54 94.4493C159.614 94.4477 159.687 94.4616 159.756 94.4901C159.824 94.5186 159.885 94.561 159.936 94.6147C159.987 94.6684 160.026 94.7321 160.051 94.8018C160.076 94.8715 160.086 94.9456 160.08 95.0194C160.075 95.175 160.009 95.3225 159.897 95.4307C159.785 95.539 159.636 95.5994 159.48 95.5994Z" fill="white"/>
<path d="M161.27 95.5993C161.196 95.5995 161.122 95.5844 161.054 95.5548C160.985 95.5251 160.924 95.4818 160.873 95.4273C160.823 95.3728 160.784 95.3085 160.759 95.2383C160.734 95.1681 160.724 95.0935 160.73 95.0193C160.738 94.8655 160.804 94.7204 160.916 94.6143C161.028 94.5082 161.176 94.4491 161.33 94.4493C161.404 94.4478 161.478 94.4617 161.547 94.4901C161.616 94.5185 161.678 94.5607 161.729 94.6143C161.781 94.6678 161.821 94.7314 161.847 94.8011C161.873 94.8708 161.884 94.9451 161.88 95.0193C161.87 95.175 161.802 95.3212 161.689 95.4287C161.575 95.5362 161.426 95.5971 161.27 95.5993Z" fill="white"/>
</g>
<path opacity="0.3" d="M147.93 68.93H80.5902C79.399 68.9427 78.2567 69.4054 77.3925 70.2251C76.5282 71.0449 76.0058 72.1612 75.9302 73.35C75.893 73.9211 75.9741 74.4937 76.1683 75.0321C76.3626 75.5704 76.6658 76.0629 77.0591 76.4787C77.4524 76.8945 77.9272 77.2247 78.4539 77.4486C78.9806 77.6725 79.5479 77.7853 80.1202 77.78H147.47C148.663 77.7671 149.807 77.303 150.671 76.4811C151.536 75.6593 152.057 74.5406 152.13 73.35C152.166 72.7788 152.084 72.2064 151.888 71.6686C151.693 71.1307 151.388 70.639 150.994 70.2241C150.6 69.8093 150.124 69.4802 149.597 69.2575C149.07 69.0349 148.502 68.9233 147.93 68.93Z" fill="black"/>
<path d="M159.36 70.0608C158.479 70.0693 157.634 70.4115 156.996 71.0183C156.358 71.6252 155.973 72.4516 155.92 73.3308C155.894 73.8138 155.979 74.2963 156.17 74.7408L155.79 76.6508L157.79 76.3608C158.181 76.5188 158.598 76.6003 159.02 76.6008C159.901 76.5923 160.746 76.25 161.384 75.6432C162.022 75.0363 162.407 74.21 162.46 73.3308C162.488 72.9086 162.428 72.4852 162.284 72.0873C162.14 71.6894 161.916 71.3255 161.625 71.0184C161.333 70.7114 160.982 70.4678 160.592 70.303C160.203 70.1382 159.783 70.0557 159.36 70.0608ZM158.82 74.9508L158.89 73.5408L157.35 73.8608L159.55 71.7608L159.48 73.1708L161.03 72.8508L158.82 74.9508Z" fill="white"/>
<path d="M65.0601 73.0497L67.4101 74.0097L70.0101 72.2297L68.0601 74.5397L69.4901 76.5597L71.7601 70.9297L65.0601 73.0497Z" fill="white"/>
<path d="M67.1301 74.8809L68.1901 76.1808H67.0601L67.1301 74.8809Z" fill="white"/>
<path d="M69.3701 191.28C68.5318 191.291 67.7288 191.619 67.1222 192.198C66.5157 192.777 66.1505 193.563 66.1001 194.4C66.075 194.806 66.1345 195.212 66.2749 195.594C66.4154 195.975 66.6336 196.323 66.9157 196.615C67.1978 196.908 67.5377 197.139 67.9138 197.293C68.2898 197.447 68.6938 197.521 69.1001 197.51C69.9367 197.499 70.7384 197.173 71.3447 196.596C71.951 196.02 72.3172 195.235 72.3701 194.4C72.3966 193.994 72.3382 193.586 72.1984 193.204C72.0586 192.821 71.8406 192.472 71.5584 192.178C71.2761 191.885 70.9357 191.653 70.5589 191.499C70.1821 191.344 69.7772 191.27 69.3701 191.28ZM68.1501 195.77C68.1449 195.873 68.1005 195.97 68.0261 196.04C67.9516 196.111 67.8528 196.15 67.7501 196.15C67.7002 196.152 67.6506 196.143 67.6044 196.124C67.5582 196.105 67.5164 196.077 67.4816 196.042C67.4468 196.006 67.4198 195.963 67.4023 195.917C67.3849 195.87 67.3773 195.82 67.3801 195.77L67.4501 194.49C67.4551 194.387 67.4992 194.289 67.5734 194.217C67.6476 194.144 67.7465 194.103 67.8501 194.1C67.9008 194.099 67.9513 194.108 67.9983 194.127C68.0452 194.146 68.0876 194.175 68.1225 194.212C68.1575 194.249 68.1842 194.293 68.201 194.341C68.2178 194.389 68.2243 194.44 68.2201 194.49L68.1501 195.77ZM70.6601 195.77C70.6503 195.831 70.6224 195.886 70.5801 195.93L70.4401 196.08C70.4081 196.118 70.3682 196.148 70.3233 196.169C70.2784 196.19 70.2295 196.2 70.1801 196.2H68.7201C68.6847 196.202 68.6493 196.196 68.6164 196.183C68.5835 196.169 68.5538 196.149 68.5292 196.124C68.5046 196.098 68.4857 196.068 68.4738 196.035C68.4619 196.001 68.4572 195.966 68.4601 195.93L68.5401 194.39C68.5411 194.305 68.5731 194.223 68.6301 194.16L69.3201 193.29V192.69H69.6401C69.7015 192.69 69.7609 192.712 69.807 192.753C69.8531 192.793 69.8827 192.849 69.8901 192.91V193.34C69.8949 193.387 69.8949 193.434 69.8901 193.48L69.6001 194.15H70.7301L70.9101 194.4L70.6601 195.77Z" fill="#CFB3FF"/>
<path d="M69.55 208H68.84C68.676 208.002 68.519 208.066 68.4003 208.179C68.2816 208.293 68.21 208.446 68.2 208.61L68 211.9C67.9944 211.978 68.0051 212.056 68.0314 212.129C68.0576 212.202 68.0989 212.269 68.1525 212.326C68.2062 212.382 68.271 212.427 68.3429 212.457C68.4148 212.487 68.4921 212.502 68.57 212.5H69.28C69.443 212.5 69.6 212.438 69.7189 212.327C69.8379 212.215 69.9098 212.063 69.92 211.9L70.09 208.62C70.0968 208.544 70.0881 208.466 70.0644 208.393C70.0407 208.32 70.0025 208.253 69.9521 208.195C69.9016 208.137 69.84 208.09 69.7709 208.056C69.7018 208.023 69.6267 208.004 69.55 208ZM69.55 211.89C69.5449 211.95 69.5175 212.006 69.473 212.047C69.4285 212.088 69.3703 212.11 69.31 212.11H68.6C68.5715 212.11 68.5434 212.104 68.5172 212.093C68.4911 212.082 68.4675 212.066 68.4478 212.045C68.4282 212.024 68.4129 212 68.403 211.973C68.3931 211.947 68.3886 211.918 68.39 211.89L68.56 208.61C68.5671 208.551 68.5952 208.496 68.6393 208.456C68.6833 208.415 68.7403 208.392 68.8 208.39H69.51C69.5384 208.39 69.5666 208.396 69.5927 208.407C69.6189 208.418 69.6425 208.434 69.6621 208.455C69.6818 208.476 69.697 208.5 69.707 208.527C69.7169 208.553 69.7213 208.582 69.72 208.61L69.55 211.89Z" fill="black"/>
<path d="M75.1601 208H73.0801L73.5401 206.91C73.5892 206.793 73.6097 206.667 73.6001 206.54L73.5001 205.68C73.4826 205.513 73.403 205.359 73.2771 205.248C73.1511 205.137 72.9881 205.077 72.8201 205.08H72.0001L71.9301 206.41L70.5901 208.1C70.4572 208.265 70.3801 208.468 70.3701 208.68L70.2101 211.75C70.2046 211.846 70.219 211.943 70.2523 212.033C70.2857 212.123 70.3372 212.206 70.4039 212.275C70.4705 212.344 70.5507 212.399 70.6396 212.436C70.7284 212.473 70.8239 212.492 70.9201 212.49H73.8301C74.0869 212.481 74.3304 212.374 74.5101 212.19L74.7801 211.89C74.8825 211.769 74.9545 211.625 74.9901 211.47L75.6301 208.63L75.1601 208ZM74.6101 211.41C74.5883 211.495 74.5473 211.574 74.4901 211.64L74.2201 211.94C74.1719 211.993 74.1133 212.036 74.0479 212.065C73.9825 212.094 73.9118 212.11 73.8401 212.11H70.9301C70.8833 212.112 70.8367 212.103 70.7934 212.086C70.75 212.068 70.711 212.041 70.6788 212.007C70.6467 211.973 70.6221 211.932 70.6068 211.888C70.5915 211.844 70.5858 211.797 70.5901 211.75L70.7501 208.68C70.7522 208.552 70.798 208.429 70.8801 208.33L72.3001 206.53L72.3601 205.46H72.8001C72.8785 205.46 72.9544 205.488 73.0134 205.539C73.0723 205.591 73.1103 205.662 73.1201 205.74L73.2201 206.6C73.2297 206.66 73.2297 206.721 73.2201 206.78L72.5301 208.39H75.0001L75.2601 208.74L74.6101 211.41Z" fill="black"/>
<g opacity="0.5">
<path d="M69.55 208H68.84C68.676 208.002 68.519 208.066 68.4003 208.179C68.2816 208.293 68.21 208.446 68.2 208.61L68 211.9C67.9944 211.978 68.0051 212.056 68.0314 212.129C68.0576 212.202 68.0989 212.269 68.1525 212.326C68.2062 212.382 68.271 212.427 68.3429 212.457C68.4148 212.487 68.4921 212.502 68.57 212.5H69.28C69.443 212.5 69.6 212.438 69.7189 212.327C69.8379 212.215 69.9098 212.063 69.92 211.9L70.09 208.62C70.0968 208.544 70.0881 208.466 70.0644 208.393C70.0407 208.32 70.0025 208.253 69.9521 208.195C69.9016 208.137 69.84 208.09 69.7709 208.056C69.7018 208.023 69.6267 208.004 69.55 208ZM69.55 211.89C69.5449 211.95 69.5175 212.006 69.473 212.047C69.4285 212.088 69.3703 212.11 69.31 212.11H68.6C68.5715 212.11 68.5434 212.104 68.5172 212.093C68.4911 212.082 68.4675 212.066 68.4478 212.045C68.4282 212.024 68.4129 212 68.403 211.973C68.3931 211.947 68.3886 211.918 68.39 211.89L68.56 208.61C68.5671 208.551 68.5952 208.496 68.6393 208.456C68.6833 208.415 68.7403 208.392 68.8 208.39H69.51C69.5384 208.39 69.5666 208.396 69.5927 208.407C69.6189 208.418 69.6425 208.434 69.6621 208.455C69.6818 208.476 69.697 208.5 69.707 208.527C69.7169 208.553 69.7213 208.582 69.72 208.61L69.55 211.89Z" fill="white"/>
<path d="M75.1599 208H73.0799L73.5399 206.91C73.5889 206.793 73.6095 206.667 73.5999 206.54L73.4999 205.68C73.4824 205.513 73.4028 205.359 73.2768 205.248C73.1509 205.137 72.9878 205.077 72.8199 205.08H71.9999L71.9299 206.41L70.5899 208.1C70.4569 208.265 70.3799 208.468 70.3699 208.68L70.2099 211.75C70.2044 211.846 70.2187 211.943 70.2521 212.033C70.2854 212.123 70.337 212.206 70.4036 212.275C70.4703 212.344 70.5505 212.399 70.6393 212.436C70.7282 212.473 70.8237 212.492 70.9199 212.49H73.8299C74.0867 212.481 74.3302 212.374 74.5099 212.19L74.7799 211.89C74.8822 211.769 74.9542 211.625 74.9899 211.47L75.6299 208.63L75.1599 208ZM74.6099 211.41C74.5881 211.495 74.547 211.574 74.4899 211.64L74.2199 211.94C74.1717 211.993 74.113 212.036 74.0476 212.065C73.9823 212.094 73.9115 212.11 73.8399 212.11H70.9299C70.8831 212.112 70.8365 212.103 70.7931 212.086C70.7498 212.068 70.7108 212.041 70.6786 212.007C70.6464 211.973 70.6219 211.932 70.6066 211.888C70.5913 211.844 70.5856 211.797 70.5899 211.75L70.7499 208.68C70.7519 208.552 70.7978 208.429 70.8799 208.33L72.2999 206.53L72.3599 205.46H72.7999C72.8783 205.46 72.9541 205.488 73.0131 205.539C73.0721 205.591 73.1101 205.662 73.1199 205.74L73.2199 206.6C73.2294 206.66 73.2294 206.721 73.2199 206.78L72.5299 208.39H74.9999L75.2599 208.74L74.6099 211.41Z" fill="white"/>
</g>
<path d="M96.1102 213.41L96.2102 211.52H95.1501C94.8849 211.52 94.6306 211.414 94.443 211.227C94.2555 211.039 94.1501 210.785 94.1501 210.52L94.3502 206.76C94.3725 206.49 94.4944 206.238 94.6922 206.053C94.89 205.868 95.1495 205.764 95.4202 205.76H100.22C100.485 205.76 100.74 205.865 100.927 206.053C101.115 206.24 101.22 206.495 101.22 206.76L101.02 210.52C100.998 210.79 100.876 211.041 100.678 211.226C100.48 211.411 100.221 211.516 99.9501 211.52H98.1002L96.1102 213.41ZM95.4301 206.07C95.2493 206.072 95.0758 206.142 94.9443 206.266C94.8127 206.39 94.7327 206.559 94.7202 206.74L94.5302 210.5C94.5232 210.587 94.5344 210.674 94.563 210.756C94.5915 210.839 94.6368 210.914 94.696 210.978C94.7552 211.042 94.827 211.093 94.9069 211.128C94.9868 211.162 95.073 211.18 95.1602 211.18H96.5702L96.5002 212.58L97.9702 211.18H99.9702C100.152 211.175 100.325 211.103 100.457 210.977C100.588 210.851 100.668 210.681 100.68 210.5L100.87 206.74C100.876 206.654 100.863 206.567 100.834 206.486C100.805 206.405 100.759 206.331 100.7 206.268C100.641 206.205 100.57 206.155 100.491 206.121C100.412 206.087 100.326 206.07 100.24 206.07H95.4301Z" fill="black"/>
<g opacity="0.5">
<path d="M96.1102 213.41L96.2102 211.52H95.1501C94.8849 211.52 94.6306 211.414 94.443 211.227C94.2555 211.039 94.1501 210.785 94.1501 210.52L94.3502 206.76C94.3725 206.49 94.4944 206.238 94.6922 206.053C94.89 205.868 95.1495 205.764 95.4202 205.76H100.22C100.485 205.76 100.74 205.865 100.927 206.053C101.115 206.24 101.22 206.495 101.22 206.76L101.02 210.52C100.998 210.79 100.876 211.041 100.678 211.226C100.48 211.411 100.221 211.516 99.9501 211.52H98.1002L96.1102 213.41ZM95.4301 206.07C95.2493 206.072 95.0758 206.142 94.9443 206.266C94.8127 206.39 94.7327 206.559 94.7202 206.74L94.5302 210.5C94.5232 210.587 94.5344 210.674 94.563 210.756C94.5915 210.839 94.6368 210.914 94.696 210.978C94.7552 211.042 94.827 211.093 94.9069 211.128C94.9868 211.162 95.073 211.18 95.1602 211.18H96.5702L96.5002 212.58L97.9702 211.18H99.9702C100.152 211.175 100.325 211.103 100.457 210.977C100.588 210.851 100.668 210.681 100.68 210.5L100.87 206.74C100.876 206.654 100.863 206.567 100.834 206.486C100.805 206.405 100.759 206.331 100.7 206.268C100.641 206.205 100.57 206.155 100.491 206.121C100.412 206.087 100.326 206.07 100.24 206.07H95.4301Z" fill="white"/>
</g>
<path d="M125.94 213.15V212.47C126.13 208.7 129.28 207.79 130.78 207.56L130.87 205.99L133.87 209.17L130.51 212.36L130.62 210.36C127.4 210.67 126.25 212.54 126.24 212.56L125.94 213.15ZM131.21 206.82L131.15 207.87H131C129.43 208.07 126.82 208.87 126.38 211.87C127.573 210.683 129.177 209.999 130.86 209.96H131.04L130.96 211.52L133.44 209.16L131.21 206.82Z" fill="black"/>
<g opacity="0.5">
<path d="M125.94 213.15V212.47C126.13 208.7 129.28 207.79 130.78 207.56L130.87 205.99L133.87 209.17L130.51 212.36L130.62 210.36C127.4 210.67 126.25 212.54 126.24 212.56L125.94 213.15ZM131.21 206.82L131.15 207.87H131C129.43 208.07 126.82 208.87 126.38 211.87C127.573 210.683 129.177 209.999 130.86 209.96H131.04L130.96 211.52L133.44 209.16L131.21 206.82Z" fill="white"/>
</g>
<path d="M76.4301 191.279C75.5908 191.29 74.7866 191.618 74.1784 192.196C73.5702 192.775 73.2029 193.562 73.1501 194.399C73.1254 194.801 73.1835 195.203 73.3209 195.581C73.4583 195.959 73.672 196.304 73.9487 196.596C74.2255 196.888 74.5593 197.119 74.9294 197.276C75.2995 197.434 75.698 197.513 76.1001 197.509C76.9367 197.498 77.7384 197.172 78.3447 196.595C78.951 196.019 79.3172 195.234 79.3701 194.399C79.3962 193.998 79.3394 193.596 79.2032 193.217C79.067 192.839 78.8545 192.493 78.5787 192.2C78.3029 191.907 77.9698 191.674 77.6001 191.516C77.2305 191.358 76.8322 191.277 76.4301 191.279ZM74.8401 193.689C74.6301 193.689 74.4701 193.439 74.4801 193.129C74.4901 192.819 74.6901 192.569 74.9001 192.569C75.1101 192.569 75.2701 192.819 75.2501 193.129C75.2301 193.439 75.0501 193.689 74.8401 193.689ZM76.2301 196.539C75.7501 196.539 75.3801 195.969 75.4201 195.269C75.4601 194.569 75.8801 193.999 76.3601 193.999C76.8401 193.999 77.2101 194.569 77.1701 195.269C77.1301 195.969 76.7101 196.539 76.2301 196.539ZM77.9201 193.689C77.7101 193.689 77.5501 193.439 77.5601 193.129C77.5701 192.819 77.7701 192.569 77.9801 192.569C78.1901 192.569 78.3501 192.819 78.3301 193.129C78.3101 193.439 78.1301 193.689 77.9201 193.689Z" fill="#CFB3FF"/>
<path d="M61.6401 191.28C60.8008 191.291 59.9966 191.619 59.3884 192.197C58.7802 192.776 58.4129 193.563 58.3601 194.4C58.335 194.806 58.3945 195.212 58.535 195.594C58.6754 195.975 58.8936 196.323 59.1757 196.615C59.4578 196.908 59.7977 197.139 60.1738 197.293C60.5499 197.447 60.9538 197.521 61.3601 197.51C62.1978 197.5 63.0006 197.173 63.6086 196.597C64.2165 196.021 64.5848 195.236 64.6401 194.4C64.6666 193.994 64.6082 193.586 64.4684 193.204C64.3286 192.821 64.1106 192.472 63.8284 192.178C63.5461 191.885 63.2057 191.653 62.8289 191.499C62.4521 191.344 62.0472 191.27 61.6401 191.28ZM63.0001 194.53V194.58L61.4401 196.06L60.0001 194.58V194.53C59.8351 194.312 59.7568 194.04 59.7802 193.767C59.8036 193.494 59.9271 193.239 60.1268 193.052C60.3266 192.865 60.5886 192.758 60.8624 192.752C61.1362 192.746 61.4025 192.842 61.6101 193.02C61.7092 192.926 61.826 192.852 61.9538 192.802C62.0816 192.753 62.2179 192.729 62.3548 192.732C62.4918 192.736 62.6268 192.766 62.7521 192.821C62.8774 192.877 62.9905 192.956 63.0851 193.055C63.1796 193.154 63.2537 193.271 63.3031 193.399C63.3526 193.527 63.3763 193.663 63.3731 193.8C63.3698 193.937 63.3396 194.072 63.2842 194.197C63.2288 194.323 63.1492 194.436 63.0501 194.53H63.0001Z" fill="#CFB3FF"/>
<path d="M116.18 75.6698L114.5 73.8898C114.761 73.4919 114.871 73.0141 114.812 72.5421C114.752 72.0701 114.526 71.6349 114.174 71.3145C113.823 70.9941 113.368 70.8096 112.893 70.794C112.417 70.7785 111.952 70.933 111.58 71.2298C111.376 71.4053 111.209 71.6204 111.09 71.862C110.971 72.1036 110.902 72.3667 110.887 72.6357C110.872 72.9047 110.911 73.1739 111.003 73.4272C111.095 73.6805 111.236 73.9127 111.42 74.1098C111.763 74.4589 112.222 74.67 112.711 74.7032C113.199 74.7364 113.683 74.5893 114.07 74.2898L115.76 76.0698L116.18 75.6698ZM111.85 73.6698C111.633 73.463 111.483 73.1959 111.419 72.903C111.356 72.6102 111.381 72.3049 111.492 72.0267C111.604 71.7484 111.796 71.5099 112.044 71.3419C112.292 71.1739 112.585 71.0841 112.885 71.0841C113.185 71.0841 113.478 71.1739 113.726 71.3419C113.974 71.5099 114.166 71.7484 114.278 72.0267C114.389 72.3049 114.414 72.6102 114.351 72.903C114.287 73.1959 114.137 73.463 113.92 73.6698C113.786 73.8081 113.627 73.9187 113.45 73.9951C113.274 74.0715 113.084 74.1123 112.891 74.1151C112.699 74.1179 112.508 74.0826 112.329 74.0114C112.151 73.9401 111.988 73.8342 111.85 73.6998V73.6698Z" fill="white"/>
<path d="M122.76 140.299C124.485 140.599 126.11 141.319 127.491 142.395C128.872 143.471 129.967 144.87 130.68 146.469C133.3 152.069 136.68 162.869 138.68 163.719C140.68 164.569 149.22 156.129 149.22 156.129C149.22 156.129 147.47 150.549 150.09 149.669C152.71 148.789 152.18 144.889 154.63 145.669C157.08 146.449 158.47 149.979 158.29 151.899C158.11 153.819 153.58 158.179 153.58 158.179C153.58 158.179 145.38 172.779 137 171.449C128.62 170.119 122.78 147.889 122.78 147.889C122.78 147.889 120.41 139.999 122.76 140.299Z" fill="#EEC8C0"/>
<path opacity="0.2" d="M125.09 155.121C126.92 160.071 129.76 166.311 133.25 169.491C129.47 163.411 128.56 149.891 128.56 149.891L125.09 155.121Z" fill="black"/>
<path d="M116.54 109.24C116.819 109.31 117.093 109.4 117.36 109.51C119.62 110.379 121.467 112.069 122.534 114.242C123.6 116.415 123.806 118.911 123.11 121.23C122.538 123.294 122.538 125.475 123.11 127.54C123.341 128.369 123.384 129.24 123.236 130.088C123.088 130.936 122.752 131.74 122.254 132.442C121.756 133.145 121.108 133.727 120.356 134.147C119.605 134.567 118.769 134.814 117.91 134.87C115.532 135.189 113.113 134.925 110.86 134.1C109.526 133.486 108.006 133.414 106.62 133.9C102.435 135.44 97.9648 136.051 93.52 135.69C91.2583 135.413 89.064 134.736 87.04 133.69C86.1727 133.243 85.4349 132.581 84.8973 131.767C84.3597 130.953 84.0404 130.014 83.9701 129.041C83.8998 128.068 84.0809 127.094 84.4959 126.211C84.9109 125.328 85.5459 124.567 86.34 124C88.5508 122.533 90.4254 120.614 91.84 118.37C93.7292 115.146 96.1775 112.285 99.07 109.92C99.5492 109.515 100.094 109.193 100.68 108.97L102.3 108.34C102.625 108.215 102.959 108.118 103.3 108.05L107.14 107.36C107.94 107.211 108.762 107.239 109.55 107.44L116.54 109.24Z" fill="#263238"/>
<path d="M94.0701 142C97.0657 141.146 100.103 140.445 103.17 139.9L103.27 139.99L103.43 140.14L104.78 141.14L108.44 143.35L111.44 143.82L114.35 143.11L116.21 140.52L116.55 139.03V139C119.816 139.13 123.032 139.851 126.04 141.13C126.572 141.372 127.028 141.756 127.358 142.239C127.688 142.722 127.879 143.286 127.91 143.87C128.159 147.317 128.593 150.749 129.21 154.15C130.42 161.31 126.71 177.34 125.27 183.15C125.107 183.786 124.757 184.359 124.265 184.794C123.773 185.229 123.162 185.506 122.51 185.59C114.285 186.719 105.949 186.773 97.7101 185.75C96.9356 185.647 96.2238 185.269 95.7044 184.686C95.185 184.102 94.8925 183.351 94.8801 182.57C94.7801 173.39 92.5401 152.9 91.7001 145.57C91.5971 144.789 91.7805 143.997 92.2161 143.341C92.6518 142.685 93.3104 142.208 94.0701 142Z" fill="#CFB3FF"/>
<path opacity="0.6" d="M94.0701 142C97.0657 141.146 100.103 140.445 103.17 139.9L103.27 139.99L103.43 140.14L104.78 141.14L108.44 143.35L111.44 143.82L114.35 143.11L116.21 140.52L116.55 139.03V139C119.816 139.13 123.032 139.851 126.04 141.13C126.572 141.372 127.028 141.756 127.358 142.239C127.688 142.722 127.879 143.286 127.91 143.87C128.159 147.317 128.593 150.749 129.21 154.15C130.42 161.31 126.71 177.34 125.27 183.15C125.107 183.786 124.757 184.359 124.265 184.794C123.773 185.229 123.162 185.506 122.51 185.59C114.285 186.719 105.949 186.773 97.7101 185.75C96.9356 185.647 96.2238 185.269 95.7044 184.686C95.185 184.102 94.8925 183.351 94.8801 182.57C94.7801 173.39 92.5401 152.9 91.7001 145.57C91.5971 144.789 91.7805 143.997 92.2161 143.341C92.6518 142.685 93.3104 142.208 94.0701 142Z" fill="white"/>
<path d="M104.71 139.66C107.08 137.17 106.13 126 106.13 126L113.06 130.71C113.06 130.71 113.47 137.62 115.13 138.95C115.51 139.26 116.13 139 116.55 139.03L116.13 140.79L114.84 143L113.06 144.26H110.44L108.08 143.58L105.39 141.71L103.2 139.94C103.71 139.83 104.37 140 104.71 139.66Z" fill="#EEC8C0"/>
<path opacity="0.1" d="M113.54 132.62C108.98 132.1 106.88 129.74 105.94 127.87L106.13 126L113.06 130.71L113.54 132.62Z" fill="black"/>
<path d="M119.78 105.801C119.78 105.801 122.27 109.871 117.93 110.431C117.93 110.431 120.32 107.751 119.78 105.801Z" fill="#263238"/>
<path d="M101.28 126.879L103.22 124.939L105.16 126.879H101.28Z" fill="#CFB3FF"/>
<path d="M103.29 118.831C104.75 124.581 105.29 127.041 108.75 129.471C114.03 133.121 120.75 130.061 121.07 123.991C121.32 118.531 118.88 109.991 112.74 108.811C111.39 108.533 109.992 108.604 108.677 109.019C107.363 109.433 106.176 110.176 105.229 111.178C104.283 112.18 103.608 113.407 103.268 114.742C102.929 116.078 102.936 117.479 103.29 118.811V118.831Z" fill="#EEC8C0"/>
<path d="M112.85 118.59C112.95 119.06 113.27 119.4 113.58 119.34C113.89 119.28 114.07 118.85 113.98 118.34C113.89 117.83 113.56 117.52 113.26 117.58C112.96 117.64 112.79 118.13 112.85 118.59Z" fill="#263238"/>
<path d="M118.21 117.579C118.3 118.059 118.63 118.389 118.93 118.339C119.23 118.289 119.42 117.839 119.34 117.339C119.26 116.839 118.92 116.529 118.61 116.589C118.3 116.649 118.12 117.109 118.21 117.579Z" fill="#263238"/>
<path d="M118.48 116.671L119.56 116.131C119.56 116.131 119.14 117.131 118.48 116.671Z" fill="#263238"/>
<path d="M116.72 118.75C117.348 119.753 118.112 120.665 118.99 121.46C118.78 121.677 118.526 121.847 118.244 121.957C117.963 122.067 117.662 122.116 117.36 122.1L116.72 118.75Z" fill="#ED893E"/>
<path d="M110.5 117.921C110.559 117.921 110.617 117.901 110.664 117.865C110.711 117.829 110.745 117.778 110.76 117.721C110.948 117.293 111.222 116.91 111.567 116.594C111.911 116.279 112.318 116.04 112.76 115.891C112.796 115.879 112.829 115.861 112.858 115.837C112.886 115.812 112.91 115.782 112.926 115.749C112.943 115.715 112.953 115.679 112.955 115.641C112.958 115.604 112.953 115.566 112.94 115.531C112.917 115.461 112.868 115.403 112.802 115.369C112.737 115.335 112.66 115.329 112.59 115.351C112.065 115.529 111.585 115.818 111.182 116.2C110.78 116.581 110.465 117.046 110.26 117.561C110.241 117.631 110.251 117.706 110.286 117.769C110.322 117.833 110.381 117.88 110.45 117.901H110.54L110.5 117.921Z" fill="#263238"/>
<path d="M119.35 114.81C119.399 114.807 119.447 114.791 119.489 114.765C119.531 114.739 119.565 114.703 119.59 114.66C119.609 114.627 119.622 114.591 119.627 114.553C119.632 114.516 119.629 114.478 119.618 114.441C119.608 114.405 119.591 114.371 119.567 114.341C119.543 114.312 119.513 114.288 119.48 114.27C119.087 114.039 118.644 113.908 118.189 113.889C117.734 113.87 117.281 113.963 116.87 114.16C116.838 114.175 116.809 114.196 116.785 114.222C116.761 114.249 116.742 114.279 116.73 114.313C116.718 114.346 116.713 114.382 116.714 114.417C116.716 114.453 116.725 114.488 116.74 114.52C116.776 114.582 116.834 114.628 116.903 114.649C116.972 114.669 117.046 114.662 117.11 114.63C117.43 114.495 117.777 114.435 118.124 114.456C118.471 114.477 118.808 114.577 119.11 114.75C119.179 114.8 119.265 114.822 119.35 114.81Z" fill="#263238"/>
<path d="M113.12 117.72L114.2 117.18C114.2 117.18 113.79 118.14 113.12 117.72Z" fill="#263238"/>
<path d="M115.82 105.55C117.91 106.71 123.53 112.5 108.38 111.55C108.38 111.55 108.38 121.01 103.65 122.3L91.2 120.24C91.2 120.24 96.15 94.6897 115.82 105.55Z" fill="#263238"/>
<path d="M102.55 123.601C102.827 124.088 103.197 124.516 103.64 124.859C104.083 125.203 104.589 125.455 105.13 125.601C106.58 125.971 107.27 124.671 106.85 123.311C106.43 121.951 105.23 120.431 103.79 120.631C103.471 120.686 103.171 120.822 102.918 121.024C102.665 121.227 102.467 121.49 102.344 121.789C102.22 122.089 102.174 122.415 102.21 122.737C102.246 123.059 102.363 123.367 102.55 123.631V123.601Z" fill="#EEC8C0"/>
<path d="M117.86 123.75C117.116 124.078 116.313 124.247 115.5 124.247C114.687 124.247 113.884 124.078 113.14 123.75C113.14 123.75 112.95 126.65 116.39 126.41C116.76 126.41 117.86 126.23 117.86 126.23C117.689 125.412 117.689 124.568 117.86 123.75Z" fill="#263238"/>
<path d="M113.29 124.75C113.182 124.428 113.131 124.09 113.14 123.75C114.381 124.268 115.756 124.37 117.06 124.04V125.04C115.798 125.244 114.506 125.144 113.29 124.75Z" fill="white"/>
<path d="M113.61 125.39C113.863 125.375 114.117 125.375 114.37 125.39C115.472 125.36 116.553 125.69 117.45 126.33C117.1 126.38 116.61 126.45 116.39 126.46C115.873 126.555 115.34 126.505 114.85 126.316C114.359 126.127 113.93 125.807 113.61 125.39Z" fill="#C13B37"/>
<path d="M117.87 139C117.87 139 116.25 138.45 115.6 139C115.6 139 115.72 143.21 112.33 143.74C108.94 144.27 103.72 139.67 103.72 139.67C102.943 139.49 102.127 139.616 101.44 140.02C101.44 140.02 105.44 145.83 112.44 145.83C118.06 145.86 117.87 139 117.87 139Z" fill="white"/>
<path d="M88.12 152.72C88.12 150.55 88.68 143.67 93.36 142.33C98.04 140.99 97.56 156.33 96.46 164.02C95.36 171.71 94 173.58 97.2 174.23L115.53 178C115.53 178 118.8 174.54 121.08 174.86C123.36 175.18 125.96 173.34 126.2 175.8C126.44 178.26 124.94 183.42 121.72 183.31C119.648 183.23 117.581 183.036 115.53 182.73C115.53 182.73 100.53 184.56 93 181.91C85.47 179.26 87.91 161.73 88.12 152.72Z" fill="#EEC8C0"/>
<path d="M126.11 186.999L125.29 183.109C125.29 183.109 104.06 185.309 95.0001 183.289L93.8201 186.999H126.11Z" fill="#263238"/>
<path d="M118.88 231.34H104.77C104.07 231.34 103.98 230.26 104.67 230.26H118.79C119.48 230.26 119.58 231.34 118.88 231.34Z" fill="#CFB3FF"/>
<path d="M99.6001 231.34H95.5401C94.8501 231.34 94.7501 230.26 95.4501 230.26H99.5001C100.2 230.26 100.29 231.34 99.6001 231.34Z" fill="#CFB3FF"/>
<g opacity="0.4">
<path d="M118.88 231.34H104.77C104.07 231.34 103.98 230.26 104.67 230.26H118.79C119.48 230.26 119.58 231.34 118.88 231.34Z" fill="white"/>
</g>
<g opacity="0.4">
<path d="M99.6001 231.34H95.5401C94.8501 231.34 94.7501 230.26 95.4501 230.26H99.5001C100.2 230.26 100.29 231.34 99.6001 231.34Z" fill="white"/>
</g>
<path d="M184.57 12.1788L183.23 37.7988C183.177 38.6392 182.809 39.4286 182.199 40.009C181.589 40.5893 180.782 40.9179 179.94 40.9288H91.1C89.922 40.937 88.7916 41.3949 87.94 42.2088L82.94 46.9688C82.699 47.2304 82.3832 47.4113 82.0357 47.4869C81.6881 47.5626 81.3257 47.5292 80.9978 47.3915C80.6699 47.2538 80.3924 47.0184 80.2031 46.7173C80.0138 46.4161 79.9219 46.064 79.94 45.7088L81.7 12.1788C81.7506 11.3386 82.1186 10.549 82.7294 9.96972C83.3402 9.39049 84.1482 9.0649 84.99 9.05882H181.61C182.014 9.05383 182.414 9.13238 182.786 9.28952C183.158 9.44667 183.494 9.67902 183.772 9.97199C184.05 10.265 184.264 10.6122 184.401 10.992C184.539 11.3718 184.596 11.7758 184.57 12.1788Z" fill="#CFB3FF"/>
<path opacity="0.4" d="M184.57 12.1788L183.23 37.7988C183.177 38.6392 182.809 39.4286 182.199 40.009C181.589 40.5893 180.782 40.9179 179.94 40.9288H91.1C89.922 40.937 88.7916 41.3949 87.94 42.2088L82.94 46.9688C82.699 47.2304 82.3832 47.4113 82.0357 47.4869C81.6881 47.5626 81.3257 47.5292 80.9978 47.3915C80.6699 47.2538 80.3924 47.0184 80.2031 46.7173C80.0138 46.4161 79.9219 46.064 79.94 45.7088L81.7 12.1788C81.7506 11.3386 82.1186 10.549 82.7294 9.96972C83.3402 9.39049 84.1482 9.0649 84.99 9.05882H181.61C182.014 9.05383 182.414 9.13238 182.786 9.28952C183.158 9.44667 183.494 9.67902 183.772 9.97199C184.05 10.265 184.264 10.6122 184.401 10.992C184.539 11.3718 184.596 11.7758 184.57 12.1788Z" fill="white"/>
<path d="M182.67 10.1791L181.33 35.7991C181.279 36.6403 180.912 37.431 180.301 38.0119C179.691 38.5927 178.883 38.9205 178.04 38.9291H89.21C88.0316 38.9353 86.9005 39.3934 86.05 40.2091L81 44.9991C80.759 45.2607 80.4432 45.4416 80.0957 45.5172C79.7482 45.5928 79.3858 45.5595 79.0579 45.4218C78.73 45.2841 78.4525 45.0486 78.2632 44.7475C78.0739 44.4464 77.982 44.0943 78 43.7391L79.76 10.2091C79.8106 9.37058 80.1771 8.58239 80.7858 8.00341C81.3945 7.42443 82.2 7.09771 83.04 7.08911H179.66C180.065 7.07742 180.469 7.14999 180.844 7.3022C181.22 7.45442 181.56 7.68298 181.843 7.97342C182.126 8.26386 182.346 8.60985 182.488 8.98952C182.63 9.36919 182.692 9.77426 182.67 10.1791Z" fill="#CFB3FF"/>
<path opacity="0.8" d="M182.67 10.1791L181.33 35.7991C181.279 36.6403 180.912 37.431 180.301 38.0119C179.691 38.5927 178.883 38.9205 178.04 38.9291H89.21C88.0316 38.9353 86.9005 39.3934 86.05 40.2091L81 44.9991C80.759 45.2607 80.4432 45.4416 80.0957 45.5172C79.7482 45.5928 79.3858 45.5595 79.0579 45.4218C78.73 45.2841 78.4525 45.0486 78.2632 44.7475C78.0739 44.4464 77.982 44.0943 78 43.7391L79.76 10.2091C79.8106 9.37058 80.1771 8.58239 80.7858 8.00341C81.3945 7.42443 82.2 7.09771 83.04 7.08911H179.66C180.065 7.07742 180.469 7.14999 180.844 7.3022C181.22 7.45442 181.56 7.68298 181.843 7.97342C182.126 8.26386 182.346 8.60985 182.488 8.98952C182.63 9.36919 182.692 9.77426 182.67 10.1791Z" fill="white"/>
<path d="M105.71 31.5922C110.718 26.7133 111.026 18.9066 106.398 14.1554C101.77 9.40424 93.9576 9.50778 88.9492 14.3867C83.9409 19.2656 83.6329 27.0723 88.2613 31.8235C92.8897 36.5747 100.702 36.4711 105.71 31.5922Z" fill="white"/>
<path d="M102.13 32.7996L104.34 31.6996C104.34 31.6996 107.34 19.2296 103.83 11.7696L99.6701 10.5996H98.1801L94.0301 11.0896C94.0301 11.0896 89.0301 12.1896 89.9201 31.0896L91.6101 32.4596L92.2701 32.7996C93.8602 33.2581 95.4975 33.5332 97.1501 33.6196C98.6375 33.8152 100.148 33.5277 101.46 32.7996H102.13Z" fill="#263238"/>
<path d="M93.27 31.3094C94.4741 30.0302 95.1832 28.364 95.27 26.6094H99.89C99.89 26.6094 99.67 31.3094 101.89 31.3094H93.27Z" fill="#CE7A63"/>
<path opacity="0.1" d="M95.2601 26.6094C95.1918 27.244 95.0611 27.8703 94.8701 28.4794C96.5034 29.1528 98.3368 29.1528 99.9701 28.4794C99.8914 27.8761 99.8613 27.2675 99.8801 26.6594L95.2601 26.6094Z" fill="black"/>
<path d="M104.55 19.3196C104.29 24.1396 101.55 28.0496 97.2701 28.0496C92.9901 28.0496 90.6601 24.1396 90.9101 19.3196C91.1601 14.4996 93.9101 10.5996 98.1801 10.5996C102.45 10.5996 104.8 14.5096 104.55 19.3196Z" fill="#CE7A63"/>
<path d="M98.1699 19.7188C98.2901 20.5186 98.5259 21.2967 98.8699 22.0287C98.6788 22.1174 98.4706 22.1633 98.2599 22.1633C98.0492 22.1633 97.841 22.1174 97.6499 22.0287L98.1699 19.7188Z" fill="#BA4D3C"/>
<path d="M95.1599 19.7503C95.1599 20.0703 95.2599 20.3403 95.4699 20.3503C95.6799 20.3603 95.8699 20.1203 95.9099 19.8003C95.9499 19.4803 95.8099 19.2203 95.5999 19.2003C95.3899 19.1803 95.1999 19.4403 95.1599 19.7503Z" fill="#263238"/>
<path d="M94.0899 18.6304H93.9999C93.9662 18.5936 93.9475 18.5454 93.9475 18.4954C93.9475 18.4455 93.9662 18.3973 93.9999 18.3604C94.2002 18.1376 94.4479 17.9626 94.7249 17.8484C95.0018 17.7342 95.3008 17.6836 95.5999 17.7004C95.6244 17.7026 95.648 17.71 95.6693 17.7222C95.6906 17.7344 95.709 17.751 95.7232 17.771C95.7375 17.7909 95.7472 17.8137 95.7518 17.8378C95.7564 17.8618 95.7558 17.8866 95.7499 17.9104C95.7463 17.9355 95.7377 17.9596 95.7246 17.9813C95.7115 18.003 95.6942 18.0219 95.6737 18.0368C95.6532 18.0517 95.6299 18.0624 95.6052 18.0681C95.5805 18.0739 95.5549 18.0747 95.5299 18.0704C95.2926 18.0578 95.0555 18.0999 94.837 18.1936C94.6185 18.2872 94.4245 18.4298 94.2699 18.6104C94.2444 18.6294 94.2143 18.6412 94.1826 18.6447C94.151 18.6482 94.119 18.6433 94.0899 18.6304Z" fill="#263238"/>
<path d="M100.86 19.7503C100.86 20.0703 100.7 20.3403 100.49 20.3503C100.28 20.3603 100.11 20.1203 100.1 19.8003C100.09 19.4803 100.26 19.2203 100.47 19.2003C100.68 19.1803 100.85 19.4403 100.86 19.7503Z" fill="#263238"/>
<path d="M102.05 18.6303H102.14C102.174 18.5934 102.193 18.5453 102.193 18.4953C102.193 18.4453 102.174 18.3971 102.14 18.3603C101.96 18.1318 101.726 17.9517 101.459 17.8365C101.192 17.7213 100.9 17.6744 100.61 17.7003C100.585 17.7028 100.561 17.7102 100.539 17.7221C100.517 17.7341 100.497 17.7503 100.481 17.7698C100.465 17.7893 100.454 17.8118 100.447 17.8359C100.44 17.86 100.437 17.8853 100.44 17.9103C100.443 17.934 100.45 17.9569 100.461 17.9778C100.473 17.9988 100.488 18.0172 100.507 18.0321C100.525 18.0469 100.547 18.058 100.57 18.0645C100.592 18.0711 100.616 18.0731 100.64 18.0703C100.871 18.0534 101.102 18.0938 101.313 18.1881C101.524 18.2823 101.709 18.4274 101.85 18.6103C101.877 18.6344 101.911 18.6494 101.947 18.653C101.983 18.6566 102.019 18.6486 102.05 18.6303Z" fill="#263238"/>
<path d="M97.9201 24.5898C98.1114 24.593 98.3024 24.5762 98.4901 24.5398C98.5033 24.5386 98.5161 24.5347 98.5277 24.5285C98.5394 24.5223 98.5497 24.5138 98.5581 24.5036C98.5664 24.4933 98.5727 24.4816 98.5765 24.4689C98.5803 24.4562 98.5815 24.4429 98.5801 24.4298C98.5754 24.4042 98.5618 24.3811 98.5416 24.3647C98.5215 24.3482 98.4962 24.3394 98.4701 24.3398C98.0597 24.4258 97.6345 24.4117 97.2306 24.2985C96.8268 24.1854 96.4562 23.9766 96.1501 23.6898C96.132 23.6735 96.1085 23.6643 96.0841 23.6641C96.0597 23.6638 96.0361 23.6725 96.0177 23.6885C95.9992 23.7045 95.9873 23.7266 95.984 23.7508C95.9808 23.775 95.9865 23.7996 96.0001 23.8198C96.2525 24.0699 96.5524 24.2668 96.8822 24.3991C97.212 24.5313 97.5649 24.5962 97.9201 24.5898Z" fill="#263238"/>
<path d="M101.79 15.4995C101.79 15.4995 102.62 19.6095 104.5 20.1795L105.29 19.3195C105.29 19.3195 106.82 9.23945 98.75 9.18945C89.04 9.18945 90.49 20.1895 90.49 20.1895C90.49 20.1895 93.36 19.2494 93.87 13.1294C94.6046 14.1145 95.5887 14.8858 96.7207 15.3639C97.8527 15.842 99.0917 16.0096 100.31 15.8494L101.79 15.4995Z" fill="#263238"/>
<path d="M91.6699 19.7591C91.9093 20.1633 92.0041 20.637 91.9387 21.1022C91.8733 21.5674 91.6515 21.9966 91.3099 22.3191C90.6499 22.7391 89.7399 22.2591 89.3099 21.2591C89.0705 20.8549 88.9757 20.3812 89.0412 19.916C89.1066 19.4508 89.3283 19.0216 89.6699 18.6991C90.2999 18.2791 91.1999 18.7591 91.6699 19.7591Z" fill="#CE7A63"/>
<path d="M103.37 19.7588C102.8 20.7588 102.84 21.9088 103.46 22.3188C104.08 22.7288 105.03 22.2588 105.6 21.2588C106.17 20.2588 106.13 19.1088 105.51 18.6988C104.89 18.2888 103.93 18.7588 103.37 19.7588Z" fill="#CE7A63"/>
<path d="M96.6799 35.3197C100.091 35.2947 103.356 33.9299 105.77 31.5197C104.253 30.7693 102.583 30.3791 100.89 30.3797C99.6851 31.022 98.3349 31.3423 96.9699 31.3097C95.6687 31.3714 94.3781 31.0479 93.2599 30.3797C91.4611 30.2593 89.6726 30.7337 88.1699 31.7297C89.2684 32.877 90.5901 33.7875 92.0536 34.4049C93.5171 35.0223 95.0915 35.3336 96.6799 35.3197Z" fill="#CFB3FF"/>
<path d="M166.97 28.7199L163.4 24.9499L164.6 23.8099L167.09 26.4399L171.85 21.9199L172.93 23.0599L166.97 28.7199Z" fill="#CFB3FF"/>
<path d="M168.44 24.8886L167.41 23.8086L166.21 24.9486L167.24 26.0286L168.44 24.8886Z" fill="#CFB3FF"/>
<path d="M174.67 21.9199L169.91 26.4399L169.79 26.3199L168.59 27.4599L169.79 28.7199L175.75 23.0599L174.67 21.9199Z" fill="#CFB3FF"/>
<path d="M123.39 20.1992L122.95 28.5892H122.32L122.53 24.5892H117.65L117.43 28.5892H116.8L117.24 20.1992H117.87L117.68 23.9692H122.56L122.76 20.1992H123.39Z" fill="#263238"/>
<path d="M130.74 25.6194V25.8994H125.31C125.315 26.208 125.382 26.5124 125.508 26.7944C125.633 27.0764 125.814 27.33 126.04 27.5402C126.266 27.7504 126.533 27.9127 126.823 28.0173C127.113 28.122 127.422 28.1669 127.73 28.1494C128.15 28.1677 128.568 28.0769 128.943 27.8859C129.318 27.6949 129.637 27.4102 129.87 27.0594L130.38 27.3694C130.079 27.8003 129.676 28.1495 129.206 28.3852C128.736 28.6209 128.215 28.7358 127.69 28.7194C127.279 28.7414 126.868 28.6745 126.485 28.5232C126.102 28.3718 125.757 28.1396 125.472 27.8425C125.187 27.5453 124.97 27.1902 124.835 26.8013C124.7 26.4125 124.65 25.9991 124.69 25.5894C124.714 24.7424 125.07 23.9388 125.682 23.3528C126.294 22.7669 127.113 22.4459 127.96 22.4594C128.357 22.4621 128.75 22.5488 129.111 22.7138C129.473 22.8788 129.795 23.1183 130.058 23.4167C130.32 23.715 130.517 24.0655 130.634 24.4451C130.752 24.8247 130.788 25.2249 130.74 25.6194ZM125.31 25.3194H130.13C130.144 25.0214 130.096 24.7238 129.99 24.4449C129.884 24.1661 129.722 23.9119 129.514 23.6982C129.306 23.4845 129.056 23.3157 128.78 23.2024C128.504 23.0891 128.208 23.0336 127.91 23.0394C127.271 23.0301 126.652 23.2581 126.171 23.6793C125.691 24.1005 125.384 24.6849 125.31 25.3194Z" fill="#263238"/>
<path d="M132.45 19.8398H133.05L132.59 28.5898H132L132.45 19.8398Z" fill="#263238"/>
<path d="M134.9 19.8398H135.5L135.04 28.5898H134.44L134.9 19.8398Z" fill="#263238"/>
<path d="M136.64 25.5903C136.686 24.744 137.055 23.9476 137.671 23.3653C138.287 22.783 139.103 22.459 139.95 22.4603C140.359 22.448 140.765 22.5216 141.143 22.6763C141.521 22.8311 141.863 23.0634 142.146 23.3585C142.429 23.6535 142.646 24.0046 142.785 24.389C142.923 24.7735 142.98 25.1827 142.95 25.5903C142.906 26.4357 142.54 27.232 141.925 27.8146C141.311 28.3972 140.497 28.7214 139.65 28.7203C139.24 28.7356 138.832 28.6641 138.452 28.5106C138.072 28.357 137.728 28.1249 137.444 27.8294C137.16 27.5339 136.941 27.1816 136.803 26.7958C136.664 26.4099 136.609 25.9991 136.64 25.5903ZM142.32 25.5903C142.347 25.2614 142.304 24.9305 142.195 24.6191C142.086 24.3077 141.912 24.0227 141.686 23.7824C141.46 23.5421 141.186 23.3519 140.882 23.224C140.578 23.0962 140.25 23.0336 139.92 23.0403C139.233 23.042 138.573 23.3076 138.076 23.7822C137.579 24.2567 137.283 24.904 137.25 25.5903C137.223 25.9205 137.266 26.2527 137.376 26.5653C137.486 26.8779 137.66 27.1641 137.887 27.4053C138.114 27.6465 138.389 27.8375 138.694 27.9658C139 28.0941 139.329 28.157 139.66 28.1503C140.347 28.1458 141.006 27.8777 141.501 27.4013C141.996 26.9249 142.289 26.2766 142.32 25.5903Z" fill="#263238"/>
<path d="M143.58 28.169C143.588 28.0231 143.651 27.8857 143.757 27.7852C143.863 27.6848 144.004 27.6288 144.15 27.629C144.22 27.6274 144.29 27.6405 144.354 27.6675C144.419 27.6944 144.477 27.7347 144.525 27.7856C144.573 27.8365 144.61 27.8969 144.633 27.963C144.657 28.029 144.666 28.0992 144.66 28.169C144.65 28.3141 144.586 28.4501 144.48 28.5502C144.375 28.6502 144.235 28.7069 144.09 28.709C144.02 28.7107 143.95 28.6976 143.886 28.6706C143.821 28.6436 143.763 28.6034 143.715 28.5525C143.667 28.5016 143.63 28.4411 143.607 28.3751C143.583 28.309 143.574 28.2388 143.58 28.169Z" fill="#263238"/>
<path d="M146.14 28.1689C146.145 28.0239 146.207 27.8865 146.311 27.7858C146.415 27.685 146.555 27.6288 146.7 27.6289C146.77 27.6289 146.839 27.6429 146.904 27.6703C146.968 27.6977 147.026 27.7378 147.075 27.7882C147.124 27.8386 147.161 27.8983 147.186 27.9638C147.211 28.0292 147.223 28.0989 147.22 28.1689C147.21 28.314 147.146 28.45 147.04 28.55C146.935 28.65 146.795 28.7067 146.65 28.7089C146.58 28.7105 146.51 28.6974 146.446 28.6705C146.381 28.6435 146.323 28.6033 146.275 28.5524C146.227 28.5014 146.19 28.441 146.167 28.375C146.144 28.3089 146.134 28.2387 146.14 28.1689Z" fill="#263238"/>
<path d="M148.69 28.169C148.698 28.0231 148.761 27.8857 148.867 27.7852C148.973 27.6848 149.114 27.6288 149.26 27.629C149.33 27.6274 149.4 27.6405 149.464 27.6675C149.529 27.6944 149.587 27.7347 149.635 27.7856C149.683 27.8365 149.72 27.8969 149.743 27.963C149.767 28.029 149.776 28.0992 149.77 28.169C149.762 28.3149 149.699 28.4523 149.593 28.5528C149.487 28.6533 149.346 28.7092 149.2 28.709C149.13 28.7107 149.061 28.6976 148.996 28.6706C148.931 28.6436 148.873 28.6034 148.825 28.5525C148.777 28.5016 148.74 28.4411 148.717 28.3751C148.694 28.309 148.684 28.2388 148.69 28.169Z" fill="#263238"/>
</g>
<defs>
<clipPath id="clip0_4036_20072">
<rect width="396" height="322" fill="white"/>
</clipPath>
</defs>
</svg>
