<svg width="20" height="20" viewBox="0 0 20 20" fill="none" xmlns="http://www.w3.org/2000/svg">
<mask id="mask0_4361_6471" style="mask-type:alpha" maskUnits="userSpaceOnUse" x="0" y="0" width="20" height="20">
<rect width="20" height="20" fill="#D9D9D9"/>
</mask>
<g mask="url(#mask0_4361_6471)">
<path d="M13.334 6.99935L5.91732 14.416C5.76454 14.5688 5.5701 14.6452 5.33398 14.6452C5.09787 14.6452 4.90343 14.5688 4.75065 14.416C4.59787 14.2632 4.52148 14.0688 4.52148 13.8327C4.52148 13.5966 4.59787 13.4021 4.75065 13.2493L12.1673 5.83268H5.83398C5.59787 5.83268 5.39996 5.75282 5.24023 5.5931C5.08051 5.43338 5.00065 5.23546 5.00065 4.99935C5.00065 4.76324 5.08051 4.56532 5.24023 4.4056C5.39996 4.24588 5.59787 4.16602 5.83398 4.16602H14.1673C14.4034 4.16602 14.6013 4.24588 14.7611 4.4056C14.9208 4.56532 15.0007 4.76324 15.0007 4.99935V13.3327C15.0007 13.5688 14.9208 13.7667 14.7611 13.9264C14.6013 14.0862 14.4034 14.166 14.1673 14.166C13.9312 14.166 13.7333 14.0862 13.5736 13.9264C13.4138 13.7667 13.334 13.5688 13.334 13.3327V6.99935Z" fill="#8742FF"/>
</g>
</svg>
